<svg width="170" height="47" viewBox="0 0 170 47" fill="none" xmlns="http://www.w3.org/2000/svg">
<path d="M0 5C0 2.23858 2.23858 0 5 0H120H165C167.761 0 170 2.23858 170 5V43.2212C170 44.827 168.203 45.778 166.875 44.875L157.976 38.8229C156.981 38.1462 155.805 37.7843 154.602 37.7843H5C2.23857 37.7843 0 35.5457 0 32.7843V5Z" fill="#FFBD00"/>
<path d="M19.9346 27H15.2998V15.6592H10.1934V27H5.55859V11.9678H19.9346V27ZM22.4468 19.4941C22.4468 17.04 23.1304 15.1294 24.4976 13.7622C25.8647 12.395 27.7686 11.7114 30.209 11.7114C32.7109 11.7114 34.6387 12.3848 35.9922 13.7314C37.3457 15.0713 38.0225 16.9512 38.0225 19.3711C38.0225 21.1279 37.7251 22.5703 37.1304 23.6982C36.5425 24.8193 35.688 25.6943 34.5669 26.3232C33.4526 26.9453 32.0615 27.2563 30.3936 27.2563C28.6982 27.2563 27.2935 26.9863 26.1792 26.4463C25.0718 25.9062 24.1729 25.0518 23.4824 23.8828C22.792 22.7139 22.4468 21.251 22.4468 19.4941ZM27.0918 19.5146C27.0918 21.0322 27.3721 22.1226 27.9326 22.7856C28.5 23.4487 29.269 23.7803 30.2397 23.7803C31.2378 23.7803 32.0103 23.4556 32.5571 22.8062C33.104 22.1567 33.3774 20.9912 33.3774 19.3096C33.3774 17.8945 33.0903 16.8623 32.5161 16.2129C31.9487 15.5566 31.1763 15.2285 30.1987 15.2285C29.2622 15.2285 28.5103 15.5601 27.9429 16.2231C27.3755 16.8862 27.0918 17.9834 27.0918 19.5146ZM49.9478 18.8276C51.7524 19.313 52.6548 20.4478 52.6548 22.2319C52.6548 23.7017 52.0874 24.9082 50.9526 25.8516C49.8247 26.7881 48.2285 27.2563 46.1641 27.2563C42.6367 27.2563 40.4458 25.7764 39.5913 22.8164L43.98 22.4883C44.2261 23.5342 44.9268 24.0571 46.082 24.0571C46.7246 24.0571 47.21 23.8965 47.5381 23.5752C47.873 23.2539 48.0405 22.8062 48.0405 22.2319C48.0405 21.6782 47.832 21.2305 47.415 20.8887C46.998 20.54 46.4272 20.3657 45.7026 20.3657H44.4414V17.6792H45.436C46.0308 17.6792 46.4956 17.5254 46.8306 17.2178C47.1724 16.9033 47.3433 16.4692 47.3433 15.9155C47.3433 15.1021 46.834 14.6953 45.8154 14.6953C44.7627 14.6953 44.1509 15.1636 43.98 16.1001L39.8271 15.6182C40.5039 13.0137 42.5273 11.7114 45.8975 11.7114C47.7637 11.7114 49.2266 12.0737 50.2861 12.7983C51.3457 13.5229 51.8755 14.4971 51.8755 15.7207C51.8755 17.1973 51.2329 18.2329 49.9478 18.8276ZM64.2314 24.5186H58.9404L58.2124 27H53.4648L59.1147 11.9678H64.1802L69.8301 27H64.9697L64.2314 24.5186ZM63.2573 21.2681L61.5962 15.8643L59.9453 21.2681H63.2573ZM91.5684 27H71.3477V11.9678H75.9824V23.3086H79.1099V11.9678H83.7549V23.3086H86.9233V11.9678H91.5684V27ZM108.313 27H103.083L101.279 23.1138C100.848 22.1978 100.513 21.627 100.274 21.4014C100.035 21.1689 99.7031 21.0527 99.2793 21.0527V27H94.6445V11.9678H99.2793V17.7407C99.6826 17.7202 99.9971 17.5767 100.223 17.3101C100.448 17.0435 100.8 16.2778 101.279 15.0132C101.627 14.0767 101.979 13.4067 102.335 13.0034C102.69 12.5933 103.268 12.2993 104.068 12.1216C104.868 11.9438 106.122 11.855 107.831 11.855V15.0337H107.595C106.802 15.0337 106.214 15.1841 105.832 15.4849C105.449 15.7856 105.134 16.2744 104.888 16.9512C104.642 17.6211 104.375 18.1235 104.088 18.4585C103.808 18.7866 103.422 19.0498 102.93 19.248C103.6 19.4668 104.184 19.8462 104.683 20.3862C105.182 20.9194 105.712 21.7534 106.272 22.8882L108.313 27ZM110.169 11.9678H114.824V27H110.169V11.9678ZM131.979 27H127.334V15.6592H123.704V20.2837C123.704 22.1841 123.602 23.582 123.396 24.4775C123.198 25.3662 122.727 26.019 121.981 26.436C121.243 26.853 120.047 27.0615 118.393 27.0615C117.887 27.0615 117.306 27.0068 116.649 26.8975V23.8521H117.347C117.976 23.8521 118.42 23.7153 118.68 23.4419C118.939 23.1616 119.069 22.6523 119.069 21.9141V11.9678H131.979V27ZM148.877 27H144.232V15.6592H140.603V20.2837C140.603 22.1841 140.5 23.582 140.295 24.4775C140.097 25.3662 139.625 26.019 138.88 26.436C138.142 26.853 136.945 27.0615 135.291 27.0615C134.785 27.0615 134.204 27.0068 133.548 26.8975V23.8521H134.245C134.874 23.8521 135.318 23.7153 135.578 23.4419C135.838 23.1616 135.968 22.6523 135.968 21.9141V11.9678H148.877V27ZM165.253 27V11.9678H157.511C156.076 11.9678 154.979 12.0908 154.22 12.3369C153.461 12.583 152.849 13.041 152.384 13.7109C151.919 14.374 151.687 15.1841 151.687 16.1411C151.687 16.9751 151.865 17.6963 152.22 18.3047C152.576 18.9062 153.064 19.395 153.687 19.771C154.083 20.0103 154.626 20.2085 155.317 20.3657C154.763 20.5503 154.36 20.7349 154.107 20.9194C153.936 21.0425 153.687 21.3057 153.358 21.709C153.037 22.1123 152.822 22.4233 152.712 22.6421L150.467 27H155.717L158.198 22.4062C158.513 21.8115 158.793 21.4253 159.039 21.2476C159.374 21.0151 159.753 20.8989 160.177 20.8989H160.587V27H165.253ZM160.587 18.0586H158.629C158.417 18.0586 158.007 17.9902 157.398 17.8535C157.091 17.792 156.838 17.6348 156.64 17.3818C156.448 17.1289 156.353 16.8384 156.353 16.5103C156.353 16.0249 156.506 15.6523 156.814 15.3926C157.122 15.1328 157.699 15.0029 158.547 15.0029H160.587V18.0586Z" fill="#3849F9"/>
</svg>
