<svg width="64" height="64" viewBox="0 0 64 64" fill="none" xmlns="http://www.w3.org/2000/svg">
<circle cx="33.1226" cy="34.6378" r="29.0909" fill="#FFBD00"/>
<path d="M23.6802 20.866C23.5693 20.4629 23.151 20.226 22.7479 20.3419C22.3447 20.4528 22.1079 20.8711 22.2238 21.2742C22.8789 23.6427 23.8969 25.6383 25.1718 27.0443C25.323 27.2106 25.5246 27.2912 25.7312 27.2912C25.9126 27.2912 26.094 27.2257 26.2402 27.0947C26.5476 26.8125 26.5728 26.3388 26.2956 26.0264C25.197 24.8119 24.2698 22.9775 23.6852 20.866H23.6802Z" fill="black"/>
<path d="M22.5567 19.4289C22.9699 19.3684 23.2521 18.9804 23.1917 18.5672C23.0909 17.8969 23.0203 17.2116 22.98 16.5212C22.9548 16.1029 22.6071 15.7854 22.1838 15.8056C21.7655 15.8308 21.448 16.1835 21.4682 16.6018C21.5085 17.3376 21.5841 18.0784 21.695 18.7939C21.7504 19.1669 22.0729 19.4339 22.4408 19.4339C22.4811 19.4339 22.5164 19.4339 22.5567 19.4239V19.4289Z" fill="black"/>
<path d="M50.4041 53.2004H43.5556V48.2669C43.5556 47.8486 43.218 47.5109 42.7997 47.5109H38.1282C36.8835 47.5109 35.4523 47.0372 35.4523 43.3585V35.6735C35.4523 35.4719 35.4523 35.2703 35.4523 35.0738C35.4322 33.0328 35.5229 32.2265 36.5711 31.8234C36.9893 31.6621 37.3975 31.4706 37.7956 31.2489C37.5739 31.8738 37.5789 32.4483 37.6293 32.8111C37.8612 34.6354 39.4989 36.3487 41.0662 36.4092C41.0763 36.4092 41.0863 36.4092 41.0964 36.4092C41.4996 36.4092 41.8372 36.0917 41.8523 35.6835C41.8675 35.2653 41.5449 34.9125 41.1267 34.8974C40.3708 34.8672 39.2772 33.7887 39.1311 32.6146C38.9547 31.2187 40.2196 30.5283 41.3182 30.1957C46.9975 28.4722 50.6309 26.2952 51.1651 20.767C51.2709 19.6634 50.9736 18.7361 50.2731 18.0155C49.0435 16.7456 46.8816 16.5188 45.7679 16.4886C45.8334 15.7327 45.8687 14.9667 45.8687 14.1856C45.8687 13.7673 45.5311 13.4297 45.1128 13.4297H19.1903C18.772 13.4297 18.4344 13.7673 18.4344 14.1856C18.4344 14.9617 18.4697 15.7327 18.5352 16.4835C17.4215 16.5087 15.2495 16.7355 14.0149 18.0105C13.3144 18.7311 13.0171 19.6583 13.1229 20.762C13.521 24.859 15.3049 27.8675 22.9698 30.1906C24.0684 30.5232 25.3383 31.2136 25.1569 32.6095C25.0057 33.7787 23.9172 34.8621 23.1613 34.8924C22.743 34.9075 22.4205 35.2602 22.4356 35.6785C22.4508 36.0867 22.7884 36.4042 23.1915 36.4042C23.2016 36.4042 23.2117 36.4042 23.2218 36.4042C24.789 36.3437 26.4268 34.6253 26.6586 32.8061C26.704 32.4432 26.7141 31.8637 26.4873 31.2338C26.8904 31.4555 27.3037 31.6521 27.727 31.8183C28.7752 32.2215 28.8659 33.0278 28.8457 35.0637C28.8457 35.2602 28.8457 35.4618 28.8457 35.6684V43.3535C28.8457 47.0322 27.4145 47.5059 26.1698 47.5059H21.4983C21.0801 47.5059 20.7424 47.8435 20.7424 48.2618V53.1954H13.9443C13.526 53.1954 13.1884 53.533 13.1884 53.9513V62.9919C13.1884 63.4102 13.526 63.7478 13.9443 63.7478H21.8612C22.2794 63.7478 22.6171 63.4102 22.6171 62.9919C22.6171 62.5736 22.2794 62.236 21.8612 62.236H14.7002V54.7072H21.332C21.3875 54.7172 21.4378 54.7273 21.4983 54.7273H42.7997C42.8552 54.7273 42.9106 54.7223 42.966 54.7072H49.6533V62.236H26.6385C26.2202 62.236 25.8826 62.5736 25.8826 62.9919C25.8826 63.4102 26.2202 63.7478 26.6385 63.7478H50.4092C50.8275 63.7478 51.1651 63.4102 51.1651 62.9919V53.9513C51.1651 53.533 50.8275 53.1954 50.4092 53.1954L50.4041 53.2004ZM49.1796 19.0788C49.5626 19.4719 49.7138 19.9809 49.6533 20.6309C49.3106 24.1938 47.7635 26.6631 40.8999 28.7494C43.2684 26.1289 44.9515 22.3242 45.5815 18.0054C46.5742 18.0155 48.343 18.2121 49.1796 19.0788V19.0788ZM14.6297 20.6309C14.5692 19.9809 14.7204 19.4719 15.1034 19.0788C15.9399 18.207 17.7238 18.0155 18.7115 18.0054C19.3415 22.3242 21.0246 26.1339 23.3982 28.7544C16.5194 26.6631 14.9723 24.1938 14.6297 20.6309ZM28.2712 30.4174C23.5342 28.6032 20.178 22.304 19.9613 14.9566H44.3367C44.12 22.304 40.7638 28.6032 36.0268 30.4174C33.9002 31.2338 33.9204 33.1941 33.9405 35.0939C33.9405 35.2854 33.9405 35.482 33.9405 35.6785V43.3635C33.9405 45.1828 34.2731 46.5686 34.9282 47.516H29.3648C30.0199 46.5686 30.3525 45.1878 30.3525 43.3635V35.6785C30.3525 35.482 30.3525 35.2854 30.3525 35.0889C30.3726 33.1941 30.3928 31.2287 28.2662 30.4124L28.2712 30.4174ZM22.2542 49.0228H42.0438V53.2004H22.2492V49.0228H22.2542Z" fill="black"/>
<path d="M32.1764 26.3579L33.2044 26.8971C33.4866 27.0433 33.7991 27.1239 34.1165 27.1239C34.6961 27.1239 35.2403 26.8669 35.6132 26.4234C35.9861 25.9799 36.1424 25.4004 36.0466 24.831L35.8501 23.682L36.6816 22.8707C37.2208 22.3466 37.4072 21.5755 37.1754 20.865C36.9436 20.1494 36.3389 19.6404 35.5931 19.5296L34.4391 19.3633L33.925 18.3201C33.5924 17.6448 32.9222 17.2266 32.1713 17.2266C31.4205 17.2266 30.7452 17.6448 30.4176 18.3201L29.9036 19.3633L28.7496 19.5296C28.0088 19.6354 27.3991 20.1494 27.1672 20.865C26.9354 21.5806 27.1269 22.3466 27.6611 22.8707L28.4926 23.682L28.2961 24.831C28.2003 25.4004 28.3565 25.9799 28.7294 26.4234C29.1024 26.8669 29.6517 27.1239 30.2261 27.1239C30.5436 27.1239 30.8561 27.0433 31.1383 26.8971L32.1663 26.3579H32.1764ZM30.2362 25.6121C29.9742 25.6121 29.7474 25.3752 29.7978 25.088L30.0901 23.3897C30.1153 23.2436 30.0649 23.0974 29.9641 22.9966L28.7294 21.7922C28.4624 21.5352 28.6085 21.0817 28.9764 21.0313L30.6797 20.7844C30.8258 20.7642 30.9518 20.6735 31.0173 20.5425L31.7783 18.9954C31.8589 18.8291 32.0202 18.7485 32.1764 18.7485C32.3326 18.7485 32.4939 18.8291 32.5745 18.9954L33.3354 20.5425C33.4009 20.6735 33.5269 20.7642 33.6731 20.7844L35.3764 21.0313C35.7443 21.0867 35.8904 21.5352 35.6233 21.7922L34.3887 22.9966C34.2828 23.0974 34.2375 23.2486 34.2576 23.3897L34.5499 25.088C34.6003 25.3752 34.3685 25.6121 34.1115 25.6121C34.0409 25.6121 33.9704 25.597 33.9049 25.5617L32.378 24.7604C32.3124 24.7251 32.2419 24.71 32.1713 24.71C32.1008 24.71 32.0302 24.7251 31.9647 24.7604L30.4378 25.5617C30.3672 25.597 30.2967 25.6121 30.2312 25.6121H30.2362Z" fill="black"/>
<path d="M36.1274 10.5601C35.7142 10.4997 35.3312 10.7819 35.2657 11.1951C35.2002 11.6083 35.4874 11.9913 35.9006 12.0568C36.4046 12.1324 36.8833 12.1727 37.3368 12.1727C38.6017 12.1727 39.6398 11.8704 40.4461 11.2606C41.6455 10.3535 41.832 9.12897 41.8471 8.9929C41.8975 8.58471 41.6102 8.2118 41.202 8.15637C40.7939 8.0959 40.4109 8.38818 40.3504 8.79637C40.3504 8.8266 40.2294 9.54723 39.5139 10.0713C38.763 10.6206 37.6291 10.7869 36.1375 10.5601H36.1274Z" fill="black"/>
<path d="M27.9889 12.3013C28.1351 12.4475 28.3316 12.5231 28.5231 12.5231C28.7146 12.5231 28.9111 12.4475 29.0573 12.3013C29.3546 12.004 29.3546 11.5253 29.0573 11.233L25.9379 8.11362C25.6406 7.81629 25.1618 7.81629 24.8695 8.11362C24.5773 8.41094 24.5722 8.88968 24.8695 9.18196L27.9889 12.3013Z" fill="black"/>
<path d="M34.9383 7.2144C35.1298 7.2144 35.3263 7.13881 35.4725 6.99267L37.6445 4.8207C37.9418 4.52338 37.9418 4.04464 37.6445 3.75236C37.3471 3.46007 36.8684 3.45503 36.5761 3.75236L34.4041 5.92432C34.1068 6.22165 34.1068 6.70039 34.4041 6.99267C34.5503 7.13881 34.7468 7.2144 34.9383 7.2144Z" fill="black"/>
<path d="M31.6224 10.9001C32.852 10.9001 33.8498 9.90232 33.8498 8.67271C33.8498 7.44311 32.852 6.44531 31.6224 6.44531C30.3928 6.44531 29.395 7.44311 29.395 8.67271C29.395 9.90232 30.3928 10.9001 31.6224 10.9001ZM31.6224 7.95208C32.0155 7.95208 32.338 8.2746 32.338 8.66767C32.338 9.06075 32.0155 9.38327 31.6224 9.38327C31.2293 9.38327 30.9068 9.06075 30.9068 8.66767C30.9068 8.2746 31.2293 7.95208 31.6224 7.95208Z" fill="black"/>
</svg>
