<svg width="16" height="12" viewBox="0 0 16 12" fill="none" xmlns="http://www.w3.org/2000/svg">
<path d="M10 7.34375C9.33333 7.34375 8.60417 7.4375 7.8125 7.625C6.91667 7.85417 6.19792 8.15625 5.65625 8.53125C4.98958 8.96875 4.65625 9.45833 4.65625 10V11.3438H15.3438V10C15.3438 9.45833 15.0104 8.96875 14.3438 8.53125C13.8021 8.15625 13.0833 7.85417 12.1875 7.625C11.3958 7.4375 10.6667 7.34375 10 7.34375ZM10 6C10.7292 6 11.3542 5.73958 11.875 5.21875C12.3958 4.69792 12.6562 4.07292 12.6562 3.34375C12.6562 2.59375 12.3958 1.95833 11.875 1.4375C11.3542 0.916667 10.7292 0.65625 10 0.65625C9.27083 0.65625 8.64583 0.916667 8.125 1.4375C7.60417 1.95833 7.34375 2.59375 7.34375 3.34375C7.34375 4.07292 7.60417 4.69792 8.125 5.21875C8.64583 5.73958 9.27083 6 10 6ZM3.34375 6.84375L4.96875 7.84375L4.53125 5.96875L6 4.71875L4.0625 4.5625L3.34375 2.78125L2.59375 4.5625L0.65625 4.71875L2.125 5.96875L1.65625 7.84375L3.34375 6.84375Z" fill="#AAAAAA"/>
</svg>
