<svg width="12" height="12" viewBox="0 0 12 12" fill="none" xmlns="http://www.w3.org/2000/svg">
<path d="M8 11.25C8.02083 11.4792 7.95833 11.6667 7.8125 11.8125C7.6875 11.9375 7.53125 12 7.34375 12C7.15625 12 7 11.9375 6.875 11.8125L4.1875 9.125C4.04167 8.97917 3.97917 8.80208 4 8.59375V5.15625L0.8125 1.09375C0.6875 0.947917 0.635417 0.78125 0.65625 0.59375C0.697917 0.40625 0.78125 0.260417 0.90625 0.15625C1.05208 0.0520833 1.19792 0 1.34375 0H10.6562C10.8021 0 10.9375 0.0520833 11.0625 0.15625C11.2083 0.260417 11.2917 0.40625 11.3125 0.59375C11.3542 0.78125 11.3125 0.947917 11.1875 1.09375L8 5.15625V11.25ZM2.6875 1.34375L5.34375 4.71875V8.375L6.65625 9.71875V4.6875L9.3125 1.34375H2.6875Z" fill="#AAAAAA"/>
</svg>
