<svg width="68" height="68" viewBox="0 0 68 68" fill="none" xmlns="http://www.w3.org/2000/svg">
<circle cx="34" cy="34" r="34" fill="#FFBD00"/>
<path d="M62.8947 37.4141C61.3152 33.2786 57.0256 30.5 52.2206 30.5C48.5331 30.5 44.9056 31.9982 42.0053 34.7187C40.942 35.7184 40.0069 36.8462 39.2214 38.0763C41.3427 31.7766 43.5006 24.3091 43.5006 20C43.5006 11.4766 35.4058 3.28384 35.0612 2.93934C34.7799 2.65805 34.3984 2.50003 34.0006 2.50003C33.6027 2.50003 33.2212 2.65805 32.9399 2.93934C32.5953 3.28384 24.5006 11.4766 24.5006 20C24.5006 24.3091 26.6584 31.7766 28.7797 38.0763C27.9942 36.8462 27.0591 35.7184 25.9958 34.7187C23.0956 31.9982 19.4678 30.5 15.7806 30.5C10.9756 30.5 6.68593 33.2786 5.10643 37.4141C3.58143 41.4058 4.91806 45.6717 8.77193 49.1181C8.98762 49.311 9.25451 49.4374 9.54043 49.4821C9.82634 49.5267 10.1191 49.4877 10.3833 49.3698C10.6476 49.2518 10.8721 49.06 11.0297 48.8173C11.1874 48.5747 11.2715 48.2916 11.2719 48.0022C11.2756 45.494 12.5137 44.204 13.5518 43.5635C15.1587 42.572 17.3923 42.4828 19.1099 43.3416C19.3681 43.4713 19.6151 43.6222 19.8484 43.7926C19.2505 44.3792 18.8282 45.1211 18.6293 45.9348C18.4304 46.7485 18.4627 47.6015 18.7226 48.3978C18.9825 49.1942 19.4596 49.902 20.1003 50.4417C20.7409 50.9814 21.5196 51.3313 22.3484 51.4522C22.1074 53.2978 21.4691 55.2676 20.4386 57.3293C20.3242 57.558 20.2703 57.8122 20.2818 58.0676C20.2934 58.323 20.37 58.5713 20.5044 58.7888C20.6389 59.0062 20.8267 59.1857 21.0501 59.3102C21.2734 59.4347 21.5249 59.5 21.7806 59.5C23.5382 59.5 26.8883 57.67 29.1069 54.0232C28.7037 55.6885 28.5006 57.0187 28.5006 58C28.5006 62.871 33.1326 65.243 33.3297 65.3416C33.538 65.4457 33.7677 65.5 34.0006 65.5C34.2334 65.5 34.4631 65.4457 34.6714 65.3416C34.8686 65.243 39.5006 62.871 39.5006 58C39.5006 57.0187 39.2974 55.6885 38.8942 54.0232C41.1131 57.67 44.4631 59.5 46.2206 59.5C46.4762 59.5 46.7276 59.4346 46.951 59.3101C47.1743 59.1856 47.3621 59.0061 47.4965 58.7887C47.6309 58.5712 47.7075 58.323 47.719 58.0675C47.7306 57.8121 47.6766 57.558 47.5623 57.3293C46.5318 55.2676 45.8934 53.2978 45.6524 51.4522C46.4813 51.3313 47.26 50.9814 47.9006 50.4417C48.5412 49.902 49.0184 49.1942 49.2783 48.3978C49.5382 47.6015 49.5705 46.7485 49.3716 45.9348C49.1727 45.1211 48.7504 44.3792 48.1524 43.7926C48.3858 43.6222 48.6328 43.4713 48.8909 43.3416C50.6086 42.4828 52.8423 42.572 54.4491 43.5635C55.4872 44.204 56.7253 45.494 56.7289 48.0022C56.7293 48.2916 56.8135 48.5747 56.9711 48.8173C57.1288 49.06 57.3533 49.2518 57.6175 49.3698C57.8818 49.4877 58.1745 49.5267 58.4604 49.4821C58.7464 49.4374 59.0132 49.311 59.2289 49.1181C63.0831 45.6717 64.4191 41.4058 62.8947 37.4141ZM34.0006 6.22634C36.0828 8.63746 40.5006 14.4125 40.5006 20C40.5006 23.8822 38.3139 32.05 34.4849 42.5H33.5162C29.6872 32.05 27.5006 23.8822 27.5006 20C27.5006 14.4125 31.9188 8.63746 34.0006 6.22634ZM20.4514 40.6583C17.7989 39.3321 14.4722 39.4708 11.9764 41.0103C10.5531 41.8746 9.45598 43.1857 8.85618 44.7391C7.46193 42.7045 7.12156 40.5468 7.90918 38.4845C9.02993 35.55 12.2668 33.5 15.7806 33.5C21.4431 33.5 26.0042 37.8936 27.6351 42.5H23.0006C22.9606 42.5 22.9209 42.502 22.8811 42.503C22.1923 41.7431 21.3685 41.1176 20.4514 40.6583V40.6583ZM24.7014 54.7283C25.0186 53.6743 25.24 52.5938 25.3631 51.5H27.0631C26.4753 52.7086 25.6754 53.8021 24.7016 54.7283H24.7014ZM34.0006 62.2313C33.0676 61.5601 31.5006 60.1173 31.5006 58C31.5006 56.7538 32.0054 54.4678 32.9309 51.5H35.0702C35.9952 54.4678 36.5006 56.7538 36.5006 58C36.5006 60.1187 34.9316 61.5625 34.0006 62.2313ZM40.9373 51.5H42.6373C42.7604 52.5938 42.9818 53.6743 43.2991 54.7283C42.3251 53.8021 41.5252 52.7087 40.9373 51.5V51.5ZM45.0006 48.5H23.0006C22.6027 48.5 22.2212 48.3419 21.9399 48.0606C21.6586 47.7793 21.5006 47.3978 21.5006 47C21.5006 46.6021 21.6586 46.2206 21.9399 45.9393C22.2212 45.658 22.6027 45.5 23.0006 45.5H45.0006C45.3984 45.5 45.7799 45.658 46.0612 45.9393C46.3425 46.2206 46.5006 46.6021 46.5006 47C46.5006 47.3978 46.3425 47.7793 46.0612 48.0606C45.7799 48.3419 45.3984 48.5 45.0006 48.5ZM59.1451 44.7391C58.5453 43.1857 57.4481 41.8746 56.0248 41.0103C53.5288 39.4703 50.2022 39.3321 47.5498 40.6583C46.6328 41.1176 45.809 41.7431 45.1202 42.503C45.0803 42.502 45.0407 42.5 45.0007 42.5H40.3661C41.9969 37.8936 46.5587 33.5 52.2206 33.5C55.7343 33.5 58.9712 35.55 60.0921 38.4845C60.8797 40.5468 60.5393 42.7045 59.1451 44.7391Z" fill="black"/>
</svg>
