<svg width="68" height="68" viewBox="0 0 68 68" fill="none" xmlns="http://www.w3.org/2000/svg">
<circle cx="34" cy="34" r="34" fill="#FFBD00"/>
<g clip-path="url(#clip0_7701:5903)">
<path d="M40.1941 53.3397H35.3442C34.6539 53.3397 34.0943 53.8992 34.0943 54.5896C34.0943 55.28 34.6539 55.8395 35.3442 55.8395H40.1941C40.9426 55.8395 41.5515 56.4484 41.5515 57.1969C41.5515 57.9454 40.9427 58.5542 40.1941 58.5542H27.1386C25.1761 58.5542 23.3306 57.689 22.0756 56.1802L18.9535 52.4275C17.2782 50.4137 14.8401 49.2344 12.2314 49.1597V41.7764H16.8333C19.1028 41.7764 21.2517 42.6444 22.8843 44.2204L29.6228 50.7247C30.0992 51.1846 30.1214 51.9546 29.6723 52.4411C29.2146 52.9369 28.4376 52.9692 27.9402 52.5134L22.6498 47.6639C22.1412 47.1975 21.3505 47.2318 20.8841 47.7406C20.4176 48.2495 20.452 49.0401 20.9608 49.5065L26.2512 54.356C26.9647 55.01 27.8676 55.333 28.7682 55.333C29.7737 55.333 30.7763 54.9304 31.5092 54.1365C32.8724 52.6596 32.8051 50.3224 31.3589 48.9264L24.6205 42.422C22.5193 40.3938 19.7538 39.2768 16.8333 39.2768H11.9886C11.5184 38.1638 10.4155 37.3806 9.13324 37.3806H3.24987C2.55962 37.3806 2 37.9401 2 38.6305V47.7701C2 48.4604 2.55962 49.02 3.24987 49.02C3.94012 49.02 4.49975 48.4605 4.49975 47.7701V39.8803H9.13336C9.46336 39.8803 9.73174 40.1488 9.73174 40.4786V50.4965C9.73174 50.8264 9.46336 51.0949 9.13336 51.0949H7.83524C7.14499 51.0949 6.58537 51.6544 6.58537 52.3447C6.58537 53.035 7.14499 53.5946 7.83524 53.5946H9.13324C10.4327 53.5946 11.5471 52.7901 12.0065 51.6532C13.955 51.6644 15.7848 52.5272 17.0318 54.0262L20.154 57.779C21.8855 59.8604 24.4312 61.054 27.1386 61.054H40.1941C42.3208 61.054 44.0512 59.3237 44.0512 57.1969C44.0512 55.07 42.3208 53.3397 40.1941 53.3397Z" fill="black"/>
<path d="M64.7506 18.4917C64.0603 18.4917 63.5007 19.0512 63.5007 19.7416V28.1197H58.8671C58.5371 28.1197 58.2687 27.8512 58.2687 27.5213V17.5035C58.2687 17.1736 58.5371 16.9051 58.8671 16.9051H60.0734C60.7637 16.9051 61.3233 16.3456 61.3233 15.6552C61.3233 14.965 60.7637 14.4054 60.0734 14.4054H58.8671C57.5676 14.4054 56.4532 15.2099 55.9938 16.3467C54.0453 16.3356 52.2154 15.4727 50.9684 13.9737L47.8463 10.2211C46.1149 8.13975 43.5691 6.946 40.8616 6.946H27.8063C25.6796 6.946 23.9492 8.67625 23.9492 10.803C23.9492 12.9297 25.6796 14.66 27.8063 14.66H33.1448C33.8351 14.66 34.3947 14.1005 34.3947 13.4101C34.3947 12.7197 33.8351 12.1602 33.1448 12.1602H27.8063C27.0578 12.1602 26.4488 11.5514 26.4488 10.8029C26.4488 10.0545 27.0577 9.44549 27.8063 9.44549H40.8617C42.8243 9.44549 44.6698 10.3107 45.9248 11.8195L49.0469 15.5721C50.7221 17.5859 53.1603 18.7652 55.7691 18.84V26.2233H51.1671C48.8976 26.2233 46.7487 25.3553 45.1161 23.7793L38.3776 17.275C37.9012 16.8151 37.879 16.0452 38.3281 15.5586C38.7858 15.0627 39.5628 15.0305 40.0602 15.4864L45.3507 20.3358C45.8596 20.8022 46.6499 20.768 47.1166 20.2591C47.5829 19.7502 47.5486 18.9596 47.0397 18.4932L41.7492 13.6439C40.2392 12.2597 37.8807 12.3584 36.4912 13.8634C35.128 15.3404 35.1953 17.6776 36.6415 19.0735L43.3799 25.5778C45.4811 27.6061 48.2466 28.7231 51.1671 28.7231H56.0118C56.4821 29.8361 57.5849 30.6192 58.8672 30.6192H64.7507C65.4409 30.6192 66.0005 30.0597 66.0005 29.3693V19.7413C66.0004 19.0512 65.4408 18.4917 64.7506 18.4917Z" fill="black"/>
<path d="M42.3548 49.4553C42.0706 48.8263 41.3318 48.5457 40.7033 48.8298C40.0703 49.1054 39.7808 49.8419 40.0564 50.4747C40.2612 50.945 40.7207 51.2258 41.2029 51.2258C41.3696 51.2258 41.5388 51.1923 41.7013 51.1215C41.7066 51.1193 41.7231 51.1119 41.7282 51.1096C42.3573 50.8255 42.6389 50.0844 42.3548 49.4553Z" fill="black"/>
<path d="M45.4614 47.351C45.0528 46.796 44.2674 46.6805 43.7118 47.0873C43.1549 47.495 43.0339 48.2772 43.4416 48.834C43.6865 49.1684 44.066 49.3457 44.451 49.3457C44.7073 49.3457 44.9659 49.2672 45.1884 49.1043C45.1904 49.1029 45.2021 49.0942 45.204 49.0928C45.7576 48.6828 45.8699 47.9058 45.4614 47.351Z" fill="black"/>
<path d="M38.8604 50.8584C38.718 50.1853 38.0572 49.7543 37.3834 49.8935C36.7104 50.0271 36.2704 50.679 36.3994 51.354C36.5139 51.9527 37.0378 52.3694 37.6257 52.3694C37.7034 52.3694 37.7825 52.362 37.8617 52.3469C37.8698 52.3452 37.8903 52.3411 37.8985 52.3394C38.5735 52.1962 39.0033 51.5335 38.8604 50.8584Z" fill="black"/>
<path d="M48.0727 44.6325C47.5602 44.1703 46.7701 44.2109 46.3076 44.7235C46.3015 44.7304 46.2871 44.7467 46.2811 44.7535C45.8301 45.2762 45.8884 46.0654 46.411 46.5163C46.6471 46.7201 46.9376 46.8198 47.2267 46.8198C47.5739 46.8198 47.919 46.676 48.1657 46.3955C48.626 45.8829 48.5846 45.0942 48.0727 44.6325ZM47.3747 45.6864L47.2357 45.5607L47.3862 45.6964L47.3747 45.6864Z" fill="black"/>
<path d="M51.2539 37.859C50.5934 37.6587 49.8947 38.0356 49.6943 38.6962C49.4913 39.3559 49.8615 40.0553 50.5213 40.2583C50.6437 40.2961 50.7674 40.3139 50.8892 40.3139C51.4234 40.3139 51.918 39.9687 52.0833 39.4313L52.0885 39.4142C52.2888 38.7536 51.9144 38.0593 51.2539 37.859Z" fill="black"/>
<path d="M52.8544 31.4084C52.8517 31.3925 52.8487 31.3766 52.8453 31.3607C52.7042 30.6852 52.0421 30.2531 51.3669 30.394C50.694 30.5342 50.2614 31.1922 50.3969 31.865C50.5115 32.4614 51.0341 32.8787 51.6226 32.8787C51.6958 32.8787 51.77 32.8724 51.8444 32.859C52.5239 32.7374 52.976 32.0879 52.8544 31.4084Z" fill="black"/>
<path d="M51.7082 34.1202C51.0228 34.0597 50.4141 34.5679 50.3535 35.2554C50.3523 35.2675 50.3506 35.2921 50.3498 35.3042C50.3093 35.9934 50.835 36.5849 51.5241 36.6254C51.5491 36.6269 51.5738 36.6276 51.5986 36.6276C52.2493 36.6276 52.7962 36.1244 52.8441 35.469C52.9011 34.784 52.3938 34.1807 51.7082 34.1202Z" fill="black"/>
<path d="M50.0302 41.4156C49.4302 41.0754 48.667 41.2862 48.3267 41.8868L48.3094 41.918C47.9802 42.5248 48.2024 43.2889 48.809 43.618C48.9999 43.7215 49.2052 43.7707 49.4076 43.7707C49.8487 43.7707 50.2749 43.5367 50.5005 43.1207L49.414 42.5029L50.5014 43.1192C50.8417 42.5185 50.6309 41.7559 50.0302 41.4156Z" fill="black"/>
<path d="M27.362 17.6125C27.0533 16.995 26.3022 16.7446 25.6852 17.0535L25.6741 17.059C25.0566 17.3677 24.812 18.1156 25.1207 18.733C25.3393 19.1704 25.7823 19.4221 26.2416 19.4221C26.4308 19.4221 26.6228 19.3794 26.803 19.2894C27.4205 18.9807 27.6706 18.23 27.362 17.6125Z" fill="black"/>
<path d="M30.9774 16.5704C30.8148 15.8997 30.14 15.4875 29.4682 15.6502C29.4624 15.6516 29.4447 15.6561 29.4389 15.6576C28.7704 15.8299 28.3655 16.512 28.5377 17.1804C28.683 17.7444 29.1889 18.1192 29.745 18.1192C29.848 18.1192 29.9528 18.1064 30.0573 18.0795C30.728 17.9169 31.14 17.2412 30.9774 16.5704Z" fill="black"/>
<path d="M24.0563 19.4149C23.6241 18.8777 22.8371 18.7934 22.2993 19.2246L23.0742 20.2052L22.2956 19.2275C21.7556 19.6575 21.6664 20.4437 22.0963 20.9837C22.3433 21.2937 22.7074 21.4551 23.0751 21.4551C23.3478 21.4551 23.6227 21.3661 23.8528 21.183L23.8693 21.1697C24.4056 20.7366 24.4886 19.952 24.0563 19.4149Z" fill="black"/>
<path d="M17.3936 28.3076C16.7276 28.1261 16.0406 28.5184 15.8589 29.1844C15.8558 29.1958 15.8498 29.2194 15.8469 29.2309C15.6844 29.9016 16.0964 30.5759 16.7669 30.7388C16.8659 30.7628 16.9649 30.7743 17.0624 30.7743C17.6232 30.7743 18.1327 30.3938 18.2747 29.8267C18.4461 29.1657 18.0544 28.4878 17.3936 28.3076Z" fill="black"/>
<path d="M16.5972 31.9799C15.9063 31.9415 15.3171 32.4664 15.2771 33.1554C15.2761 33.1715 15.2755 33.1875 15.275 33.2035C15.2547 33.8931 15.7973 34.4678 16.4871 34.4884C16.4998 34.4888 16.5123 34.489 16.525 34.489C17.195 34.489 17.7486 33.9574 17.7733 33.2844C17.8046 32.602 17.2811 32.0196 16.5972 31.9799Z" fill="black"/>
<path d="M18.9652 24.8919C18.3538 24.5712 17.5984 24.8068 17.2778 25.418L17.2574 25.4583C16.9528 26.0774 17.2083 26.8252 17.8273 27.13C18.0045 27.2174 18.1924 27.2587 18.3778 27.2587C18.8368 27.2587 19.2787 27.0047 19.4977 26.5672C19.8089 25.958 19.5724 25.2105 18.9652 24.8919Z" fill="black"/>
<path d="M21.2227 21.8849C20.6916 21.444 19.9036 21.5171 19.4627 22.0481C19.4567 22.0555 19.4429 22.0725 19.4369 22.0799C19.0084 22.6207 19.1001 23.4055 19.6407 23.8342C19.8702 24.0163 20.1439 24.1046 20.4159 24.1046C20.7826 24.1046 21.1461 23.9441 21.3929 23.6363C21.8259 23.1055 21.7509 22.3235 21.2227 21.8849Z" fill="black"/>
<path d="M18.0097 36.7535C17.8881 36.074 17.2382 35.6218 16.5591 35.7436C15.8796 35.8653 15.4274 36.5147 15.5491 37.1942L15.5513 37.2065C15.6596 37.8106 16.1842 38.2302 16.7768 38.2302C16.8507 38.2302 16.9256 38.2237 17.0008 38.2102C17.6803 38.0886 18.1314 37.433 18.0097 36.7535Z" fill="black"/>
<path d="M38.291 27.2656C36.6642 27.2656 35.1568 27.9365 34.0827 29.0686C33.0084 27.9365 31.5012 27.2656 29.8743 27.2656C26.6739 27.2656 24.0703 29.8692 24.0703 33.0696C24.0703 34.7964 24.8319 36.4217 26.1597 37.5287C26.1677 37.5354 26.1759 37.5421 26.1842 37.5487L33.3068 43.1877C33.5341 43.3677 33.8083 43.4575 34.0826 43.4575C34.3581 43.4575 34.6336 43.3668 34.8613 43.1853L42.2857 37.2716C42.322 37.2427 42.3567 37.2117 42.3895 37.1789C43.4894 36.0821 44.095 34.6227 44.095 33.0696C44.095 29.8692 41.4914 27.2656 38.291 27.2656ZM40.6695 35.3634L34.0804 40.6119L27.7492 35.5996C26.9997 34.9691 26.5701 34.0479 26.5701 33.0698C26.5699 31.2477 28.0523 29.7653 29.8743 29.7653C31.2157 29.7653 32.4143 30.5664 32.9281 31.8062C33.1217 32.2731 33.5773 32.5776 34.0827 32.5776C34.5881 32.5776 35.0437 32.2732 35.2373 31.8062C35.751 30.5664 36.9497 29.7653 38.291 29.7653C40.113 29.7653 41.5954 31.2477 41.5954 33.0697C41.5954 33.9324 41.267 34.7444 40.6695 35.3634Z" fill="black"/>
<path d="M3.2494 53.5904C3.93727 53.5904 4.4949 53.0328 4.4949 52.3449C4.4949 51.657 3.93727 51.0994 3.2494 51.0994C2.56153 51.0994 2.00391 51.657 2.00391 52.3449C2.00391 53.0328 2.56153 53.5904 3.2494 53.5904Z" fill="black"/>
<path d="M64.7494 16.9005C65.4373 16.9005 65.9949 16.3428 65.9949 15.655C65.9949 14.9671 65.4373 14.4095 64.7494 14.4095C64.0615 14.4095 63.5039 14.9671 63.5039 15.655C63.5039 16.3428 64.0615 16.9005 64.7494 16.9005Z" fill="black"/>
</g>
<defs>
<clipPath id="clip0_7701:5903">
<rect width="64" height="64" fill="white" transform="translate(2 2)"/>
</clipPath>
</defs>
</svg>
