<svg width="68" height="68" viewBox="0 0 68 68" fill="none" xmlns="http://www.w3.org/2000/svg">
<circle cx="34" cy="34" r="34" fill="#FFBD00"/>
<g clip-path="url(#clip0_7701:5537)">
<path d="M40.8284 50.4641C39.9667 50.491 39.3191 49.5216 39.6746 48.7365C40.0844 47.7165 41.5724 47.7165 41.9821 48.7365C42.3375 49.5216 41.6901 50.4911 40.8284 50.4641V50.4641Z" fill="black"/>
<path d="M22.9857 58.2699C22.6658 58.2699 22.3458 58.1479 22.1018 57.9038L15.6337 51.4356C15.1455 50.9475 15.1455 50.156 15.6337 49.6678C16.1218 49.1796 16.9133 49.1796 17.4015 49.6678L23.8697 56.1359C24.3578 56.624 24.3578 57.4155 23.8697 57.9038C23.6255 58.1479 23.3055 58.2699 22.9857 58.2699Z" fill="black"/>
<path d="M24.6197 52.7097C24.2997 52.7097 23.98 52.5877 23.7358 52.3435L21.1942 49.8019C20.7061 49.3138 20.7061 48.5223 21.1943 48.0342C21.6825 47.5462 22.474 47.546 22.9621 48.0342L25.5037 50.5758C25.9918 51.0639 25.9918 51.8554 25.5036 52.3435C25.2596 52.5875 24.9396 52.7097 24.6197 52.7097Z" fill="black"/>
<path d="M65.9998 13.6385C65.9998 13.307 65.8681 12.989 65.6336 12.7546L60.7821 7.90422C60.294 7.41622 59.5026 7.41622 59.0143 7.90435L57.2298 9.68885L56.7133 9.17235C56.2252 8.68422 55.4337 8.68422 54.9455 9.17235C54.4572 9.66047 54.4573 10.452 54.9455 10.9402L55.4621 11.4568L54.5097 12.4092L53.9931 11.8926C53.505 11.4045 52.7135 11.4045 52.2252 11.8926C51.7371 12.3807 51.7371 13.1722 52.2252 13.6605L52.7418 14.1771L42.6572 24.2616C37.7626 21.2317 32.8448 21.293 29.6491 24.4888C28.7421 25.395 28.0625 26.2846 27.5716 27.2083C25.774 30.5896 21.7601 33.6301 18.2346 34.2806C15.6102 34.7653 13.2351 35.956 11.3658 37.724C8.95759 40.0027 7.64997 42.9752 7.58459 46.32C7.49672 50.8075 9.67584 55.6631 13.5636 59.6416C17.4872 63.6566 22.3243 65.9742 26.8347 66.0002C26.8607 66.0003 26.8865 66.0004 26.9125 66.0004C30.236 66.0004 33.2247 64.7678 35.5598 62.4329C37.4698 60.5224 38.7482 58.0574 39.2571 55.3045C39.3256 54.9337 39.4226 54.5506 39.5452 54.1657C39.755 53.5079 39.3917 52.8047 38.734 52.5951C38.0762 52.3853 37.373 52.7484 37.1633 53.4063C37.0088 53.8908 36.8862 54.3767 36.7986 54.8502C36.3822 57.1034 35.3425 59.1143 33.7918 60.6653C31.9361 62.5208 29.5583 63.5003 26.9113 63.5003C26.8908 63.5003 26.8698 63.5003 26.8492 63.5002C23.0023 63.4779 18.8116 61.4347 15.3517 57.8942C11.9293 54.3917 10.0095 50.191 10.0842 46.3688C10.1363 43.7092 11.1737 41.3478 13.0841 39.5401C14.602 38.1045 16.54 37.1358 18.6887 36.739C22.9596 35.9508 27.6238 32.4361 29.7793 28.3817C30.1521 27.6803 30.6876 26.9856 31.4168 26.257C34.4288 23.245 38.5382 24.8071 40.828 26.0912L30.5916 36.3278C28.6967 36.2368 26.7717 36.9131 25.328 38.3568C24.012 39.6728 23.2872 41.4225 23.2872 43.2835C23.2872 45.1443 24.012 46.894 25.3278 48.21C26.6436 49.526 28.3932 50.2507 30.2543 50.2507C32.1153 50.2507 33.865 49.526 35.1812 48.21C36.6246 46.7663 37.3008 44.8415 37.21 42.947L47.4363 32.7203C48.7071 35.0272 50.2223 39.1857 47.0576 42.3506C46.5211 42.8875 45.9093 43.3457 45.2395 43.7122C44.9016 43.897 44.5596 44.1033 44.2228 44.326C43.6468 44.7065 43.4885 45.482 43.869 46.058C44.1093 46.4218 44.5072 46.619 44.9131 46.619C45.1497 46.619 45.3888 46.5518 45.601 46.4117C45.88 46.2273 46.1618 46.0572 46.4391 45.9056C47.3182 45.4246 48.1213 44.8231 48.8258 44.118C50.702 42.2418 51.5976 39.8257 51.4158 37.1307C51.2792 35.1053 50.5408 32.9647 49.2691 30.8877L59.361 20.796L60.0942 21.5292C60.3383 21.7733 60.6582 21.8953 60.9781 21.8953C61.298 21.8953 61.618 21.7733 61.862 21.5292C62.3501 21.0411 62.3501 20.2496 61.862 19.7613L61.1287 19.0281L62.0811 18.0757L62.8145 18.8091C63.0586 19.0532 63.3785 19.1752 63.6983 19.1752C64.0182 19.1752 64.3382 19.0532 64.5822 18.8091C65.0703 18.321 65.0703 17.5295 64.5822 17.0412L63.8488 16.3078L65.6338 14.5227C65.8682 14.288 65.9998 13.97 65.9998 13.6385V13.6385ZM33.4132 46.4421C32.5693 47.2858 31.4475 47.7506 30.2542 47.7506C29.061 47.7506 27.9392 47.286 27.0956 46.4421C25.3537 44.7003 25.3537 41.8662 27.0956 40.1246C27.9663 39.2538 29.1102 38.8185 30.2542 38.8185C31.3981 38.8185 32.5423 39.2538 33.4131 40.1245C35.1545 41.8662 35.1545 44.7005 33.4132 46.4421V46.4421ZM36.4755 40.1457C36.1506 39.5002 35.7192 38.8951 35.1811 38.3568C35.1811 38.3568 35.181 38.3567 35.181 38.3566C34.6428 37.8186 34.0377 37.3872 33.3925 37.0625L51.7893 18.6652L54.8728 21.7481L36.4755 40.1457ZM56.6407 19.9805L53.5575 16.8973L54.5098 15.945L57.5931 19.0281L56.6407 19.9805ZM59.3608 17.2601L56.2777 14.177L57.2301 13.2246L60.3132 16.3077L59.3608 17.2601ZM58.9978 11.4566L59.8986 10.5558L62.9821 13.6387L62.0811 14.5398L58.9978 11.4566Z" fill="black"/>
<path d="M20.2609 11.9431C20.2609 11.5402 20.0667 11.1621 19.7394 10.9274C19.412 10.6925 18.9916 10.6299 18.61 10.7591L8.81475 14.0752C8.30713 14.2471 7.9655 14.7234 7.9655 15.2592V24.7084C7.43637 24.47 6.84975 24.3372 6.23275 24.3372C3.89887 24.3372 2 26.236 2 28.57C2 30.9039 3.89875 32.8027 6.23275 32.8027C8.56675 32.8027 10.4655 30.904 10.4655 28.57C10.4655 28.4974 10.4655 16.1557 10.4655 16.1557L17.7607 13.686V21.3921C17.2316 21.1537 16.645 21.021 16.028 21.021C13.694 21.021 11.7952 22.9197 11.7952 25.2537C11.7952 27.5877 13.694 29.4865 16.028 29.4865C18.362 29.4865 20.2607 27.5877 20.2607 25.2537C20.2609 25.1811 20.2609 11.9431 20.2609 11.9431V11.9431ZM6.23275 30.3027C5.27725 30.3027 4.5 29.5255 4.5 28.57C4.5 27.6145 5.27737 26.8372 6.23275 26.8372C7.18812 26.8372 7.9655 27.6146 7.9655 28.57C7.96562 29.5254 7.18825 30.3027 6.23275 30.3027ZM16.0281 26.9865C15.0726 26.9865 14.2954 26.2091 14.2954 25.2537C14.2954 24.2982 15.0727 23.521 16.0281 23.521C16.9836 23.521 17.7609 24.2984 17.7609 25.2537C17.7609 26.2092 16.9835 26.9865 16.0281 26.9865Z" fill="black"/>
<path d="M60.2665 45.9801L56.0451 44.551C55.6633 44.4217 55.2431 44.4845 54.9157 44.7192C54.5883 44.954 54.3942 45.3321 54.3942 45.735V55.184C53.8651 54.9456 53.2785 54.8128 52.6615 54.8128C50.3275 54.8128 48.4287 56.7116 48.4287 59.0456C48.4287 61.3796 50.3275 63.2783 52.6615 63.2783C54.9955 63.2783 56.8942 61.3796 56.8942 59.0456C56.8942 58.973 56.8942 58.7516 56.8942 58.7122V47.4778L59.4648 48.3481C60.1187 48.5697 60.8283 48.2188 61.0496 47.565C61.2711 46.911 60.9203 46.2015 60.2665 45.9801V45.9801ZM52.6615 60.7783C51.706 60.7783 50.9287 60.001 50.9287 59.0456C50.9287 58.0901 51.7061 57.3128 52.6615 57.3128C53.617 57.3128 54.3942 58.0902 54.3942 59.0456C54.3942 60.0011 53.617 60.7783 52.6615 60.7783Z" fill="black"/>
<path d="M36.1691 15.4501C35.923 15.4501 35.677 15.3776 35.4647 15.2327C34.5827 14.6311 30.1307 11.5488 29.0962 9.94169C28.6457 9.24169 28.0586 8.13081 28.1587 6.57019C28.3254 3.98019 30.4456 1.97269 32.9827 2.00031C34.4089 2.01581 35.543 2.77381 36.2939 3.48256C37.063 2.80031 38.2031 2.07156 39.5636 2.07156C39.5774 2.07156 39.591 2.07156 39.6047 2.07169C42.1432 2.09906 44.2185 4.15156 44.3292 6.74431C44.396 8.30319 43.7854 9.40244 43.3202 10.0937C42.2447 11.6912 37.7426 14.6671 36.851 15.2474C36.6436 15.3827 36.4062 15.4501 36.1691 15.4501V15.4501ZM32.933 4.50019C31.7531 4.50019 30.733 5.49581 30.6535 6.73069C30.6116 7.38394 30.7694 7.92231 31.1984 8.58869C31.698 9.36506 34.2144 11.3032 36.1851 12.6903C38.1779 11.3501 40.7266 9.46994 41.2461 8.69806C41.6897 8.03881 41.8594 7.50369 41.8315 6.85131C41.7784 5.60719 40.7672 4.58456 39.5777 4.57181C38.5816 4.56319 37.5049 5.76256 37.2727 6.08494C37.0316 6.41994 36.6427 6.61319 36.2279 6.60419C35.8151 6.59419 35.434 6.38094 35.2095 6.03456C34.9316 5.61519 33.9782 4.51144 32.9557 4.50031C32.9482 4.50019 32.9406 4.50019 32.933 4.50019V4.50019Z" fill="black"/>
</g>
<defs>
<clipPath id="clip0_7701:5537">
<rect width="64" height="64" fill="white" transform="translate(2 2)"/>
</clipPath>
</defs>
</svg>
