<svg width="68" height="70" viewBox="0 0 68 70" fill="none" xmlns="http://www.w3.org/2000/svg">
<circle cx="34" cy="36" r="34" fill="#FFBD00"/>
<g clip-path="url(#clip0_553:345)">
<path d="M22.8635 31.0256C25.6314 31.0256 27.8831 28.7738 27.8831 26.0059C27.8831 23.238 25.6312 20.9861 22.8635 20.9861C20.0955 20.9861 17.8438 23.238 17.8438 26.0059C17.8438 28.7738 20.0955 31.0256 22.8635 31.0256ZM22.8635 22.8611C24.5975 22.8611 26.0081 24.2719 26.0081 26.0059C26.0081 27.7399 24.5975 29.1506 22.8635 29.1506C21.1295 29.1506 19.7187 27.7399 19.7187 26.0059C19.7187 24.2719 21.1295 22.8611 22.8635 22.8611Z" fill="black"/>
<path d="M33.9155 25.7719C36.616 25.7719 38.8132 23.5748 38.8132 20.8742C38.8132 18.1735 36.6161 15.9764 33.9155 15.9764C31.2148 15.9764 29.0176 18.1735 29.0176 20.8742C29.0176 23.5748 31.2148 25.7719 33.9155 25.7719ZM33.9155 17.8514C35.5822 17.8514 36.9382 19.2074 36.9382 20.8742C36.9382 22.5409 35.5822 23.8969 33.9155 23.8969C32.2487 23.8969 30.8926 22.5409 30.8926 20.8742C30.8926 19.2074 32.2487 17.8514 33.9155 17.8514Z" fill="black"/>
<path d="M24.8783 54.8094C27.5788 54.8094 29.7761 52.6123 29.7761 49.9117C29.7761 47.2111 27.579 45.0139 24.8783 45.0139C22.1777 45.0139 19.9805 47.2111 19.9805 49.9117C19.9805 52.6123 22.1777 54.8094 24.8783 54.8094ZM24.8783 46.8891C26.5451 46.8891 27.9011 48.2451 27.9011 49.9118C27.9011 51.5786 26.5451 52.9346 24.8783 52.9346C23.2116 52.9346 21.8555 51.5786 21.8555 49.9118C21.8555 48.2451 23.2116 46.8891 24.8783 46.8891Z" fill="black"/>
<path d="M36.4125 58.5106C39.113 58.5106 41.3103 56.3135 41.3103 53.6128C41.3103 50.9122 39.1132 48.7151 36.4125 48.7151C33.7119 48.7151 31.5146 50.9122 31.5146 53.6128C31.5146 56.3135 33.7118 58.5106 36.4125 58.5106ZM36.4125 50.5901C38.0793 50.5901 39.4353 51.9461 39.4353 53.6128C39.4353 55.2796 38.0793 56.6356 36.4125 56.6356C34.7458 56.6356 33.3897 55.2796 33.3897 53.6128C33.3897 51.9461 34.7458 50.5901 36.4125 50.5901Z" fill="black"/>
<path d="M12.6191 38.3653C12.6191 41.5169 15.1831 44.0809 18.3347 44.0809C21.4863 44.0809 24.0503 41.5169 24.0503 38.3653C24.0503 35.2137 21.4863 32.6498 18.3347 32.6498C15.1831 32.6498 12.6191 35.2137 12.6191 38.3653ZM18.3347 34.5248C20.4523 34.5248 22.1753 36.2476 22.1753 38.3653C22.1753 40.4831 20.4524 42.2059 18.3347 42.2059C16.217 42.2059 14.4941 40.4831 14.4941 38.3653C14.4941 36.2476 16.217 34.5248 18.3347 34.5248Z" fill="black"/>
<path d="M7.76758 37.3823C7.76758 51.5245 19.9508 62.2742 34.1676 63.1402C34.187 63.1413 34.2064 63.142 34.2255 63.142C34.7173 63.142 35.1301 62.7588 35.1604 62.2615C35.1919 61.7447 34.7984 61.3002 34.2816 61.2687C20.4653 60.4271 9.64256 49.935 9.64256 37.3823C9.64256 23.1601 23.184 12.1861 38.6587 13.5878C39.3627 14.3214 40.229 14.9094 41.1354 15.3398C41.0611 15.6824 41.0741 16.0479 41.1641 16.3783L43.0195 23.2028C42.5875 23.7077 42.4374 24.395 42.6098 25.0279L43.0514 26.6526C43.32 27.6423 44.3089 28.2752 45.3196 28.1L46.1954 31.8923C43.0287 33.3349 41.2971 35.2668 41.2971 37.3824C41.2971 39.5055 43.0668 41.4695 46.2803 42.9122C47.423 43.4252 48.4119 44.1283 49.223 45.0037C50.2542 49.5306 50.5713 50.967 51.3272 53.2427C50.6274 56.2949 48.5352 58.6346 45.5539 59.6845C43.2792 60.4855 40.9117 60.9986 38.5173 61.2096C38.0016 61.2551 37.6202 61.71 37.6657 62.2257C37.7111 62.7416 38.1677 63.1222 38.6818 63.0773C41.2323 62.8526 43.754 62.3061 46.1766 61.453C48.9345 60.4819 51.1119 58.5144 52.3399 55.9774C53.5937 59.0534 54.7364 60.9542 55.7988 62.8068C56.3358 63.7437 57.4388 64.2002 58.4811 63.9168C59.5232 63.6335 60.2432 62.6815 60.2322 61.6015C60.2 58.461 60.2827 53.7402 58.0762 46.7064C57.9212 46.2124 57.3954 45.9375 56.9011 46.0925C56.4071 46.2475 56.1324 46.7737 56.2873 47.2676C58.3585 53.8696 58.3227 58.2496 58.3574 61.6207C58.3599 61.8477 58.2085 62.0478 57.9894 62.1075C57.7706 62.1671 57.5384 62.0711 57.4254 61.8741C53.4809 54.9953 52.9839 52.955 50.9954 44.3453C50.9954 44.3453 47.1325 27.6164 47.1325 27.6163L49.8873 26.8673L51.2836 31.3177V31.3178L54.9773 43.0917C55.1323 43.5857 55.658 43.8606 56.1524 43.7056C56.6464 43.5506 56.9213 43.0244 56.7663 42.5305L53.3474 31.6327C58.5127 29.5399 59.9576 22.6027 55.5355 18.7411C53.7234 17.1588 51.6921 15.809 49.4966 14.7182L49.3432 14.1542C49.2496 13.8094 49.0765 13.5003 48.8408 13.2452C49.7872 11.8478 50.7314 9.68659 50.0438 7.15737C49.3837 4.72977 47.7609 3.79316 46.0429 2.80167C45.0009 2.2003 43.9234 1.57844 42.8839 0.543823C41.8738 -0.46104 40.2053 -0.00967086 39.8427 1.37056C39.4702 2.78917 38.8557 3.87103 38.2617 4.91727C37.2714 6.66138 36.0652 8.6911 37.3427 11.6232C21.4287 10.9381 7.76758 22.4808 7.76758 37.3823ZM48.5302 42.0042C48.0629 41.7046 47.5692 41.4356 47.0482 41.2017C44.5848 40.0956 43.1719 38.7035 43.1719 37.3823C43.1719 36.1245 44.4167 34.8324 46.6266 33.7604L48.5302 42.0042ZM54.302 20.1536C57.6209 23.0517 56.5505 28.2209 52.7847 29.8396C51.8163 26.7531 52.0789 27.59 51.6951 26.3664C52.6757 25.991 53.1817 24.9402 52.9181 23.9699L52.4764 22.3452C52.3033 21.7091 51.8229 21.194 51.1988 20.9788L50.1723 17.2035C51.6503 18.0581 53.0334 19.0457 54.302 20.1536ZM50.5127 22.7487L50.5131 22.7486C50.5733 22.7323 50.6476 22.7653 50.667 22.8371L51.1086 24.4617C51.1268 24.5287 51.0871 24.5979 51.0202 24.616C49.7657 24.9572 46.1586 25.9378 45.0149 26.2488C44.9494 26.267 44.8791 26.2285 44.8605 26.1604L44.4189 24.5357C44.3995 24.464 44.4486 24.3972 44.5073 24.3813L50.5127 22.7487ZM49.2983 21.1358L44.7378 22.3757L42.9734 15.8861C42.9278 15.7193 43.0324 15.5454 43.1937 15.5014L47.1494 14.4259C47.303 14.3838 47.4855 14.4677 47.534 14.6462C48.1142 16.7805 47.7072 15.2835 49.2983 21.1358ZM39.8922 5.84339C40.5024 4.7689 41.1922 3.55404 41.6313 1.94218C42.8218 3.10779 44.034 3.80728 45.1058 4.4259C46.6567 5.32102 47.7774 5.96763 48.2346 7.64961C48.7935 9.70484 47.8314 11.4968 47.0344 12.5489C46.9136 12.5598 46.7722 12.5856 46.6572 12.6168L42.7015 13.6923C42.5809 13.725 42.4427 13.7772 42.3424 13.8245C40.6841 13.1439 39.3006 11.9521 38.8263 10.2076C38.3691 8.5256 39.008 7.40049 39.8922 5.84339Z" fill="black"/>
</g>
<defs>
<clipPath id="clip0_553:345">
<rect width="64" height="64" fill="white" transform="translate(2)"/>
</clipPath>
</defs>
</svg>
