<svg width="68" height="68" viewBox="0 0 68 68" fill="none" xmlns="http://www.w3.org/2000/svg">
<circle cx="34" cy="34" r="34" fill="#FFBD00"/>
<path d="M22.2877 24.0705C22.9446 20.4745 24.9437 9.53125 25.9406 3.083C25.9825 2.812 25.9038 2.53625 25.7255 2.328C25.547 2.11988 25.2865 2 25.0122 2H11.0267C10.7647 2 10.5147 2.10938 10.3368 2.30175C10.1591 2.494 10.0697 2.752 10.0902 3.01325C10.1845 4.2105 10.3372 5.49787 10.4991 6.86062C11.1636 12.4578 12.0736 20.1234 10.0045 31.5521C9.72995 33.0683 9.68483 35.8604 9.68095 38.6437C9.25583 41.4147 9.04883 44.98 9.04883 49.5415C9.04883 54.1384 9.65095 58.0549 10.79 60.8677C12.5076 65.1096 15.0853 66 16.9453 66C22.0376 66 24.8418 60.1549 24.8418 49.5414C24.8418 40.5682 24.0552 35.3445 22.2972 32.6949C22.0196 29.733 21.8053 26.8499 22.104 25.0812C22.1153 25.0141 22.1808 24.656 22.2877 24.0705ZM11.789 32.3091C12.9601 32.5034 14.6286 32.7062 16.4965 32.7062C17.7342 32.7062 19.0583 32.6138 20.3803 32.3734C20.4028 32.6187 20.426 32.8659 20.4495 33.1145C20.4495 33.1146 20.4495 33.1146 20.4495 33.1147C20.45 33.12 20.4505 33.1252 20.451 33.1305C20.4612 33.2388 20.4716 33.3471 20.482 33.4559C19.6566 34.7223 18.1518 36.8121 16.1116 38.7371C15.3108 38.0112 14.624 37.263 14.0561 36.573C12.9935 35.2816 12.2082 34.0349 11.7041 33.147C11.7283 32.841 11.7565 32.56 11.789 32.3091ZM17.6165 39.9595C18.2078 39.3925 18.7891 38.7824 19.3576 38.1306C19.8816 37.5298 20.3493 36.9459 20.7622 36.4006C20.9322 38.2762 21.0685 40.1213 21.0685 41.7294C21.0685 41.7575 21.0685 41.7854 21.0685 41.8135C19.7883 41.3481 18.6353 40.6956 17.6165 39.9595ZM21.0617 43.8406C21.0378 46.396 20.9262 48.7277 20.3991 50.43C19.7355 52.573 18.5143 53.4874 16.3158 53.4874C14.1173 53.4874 12.8962 52.573 12.2326 50.43C11.7217 48.78 11.601 46.5387 11.5723 44.0754C13.1176 43.4244 14.6503 42.4831 16.1342 41.2731C17.5503 42.346 19.1917 43.2653 21.0617 43.8406ZM11.5598 38.7137C11.5598 38.7137 11.5598 38.7136 11.5598 38.7135C11.5608 37.9809 11.5647 37.2375 11.575 36.5161C12.3806 37.6351 13.3991 38.8634 14.6377 40.0137C13.6957 40.7579 12.6666 41.4324 11.5631 41.9717C11.5631 41.8909 11.5631 41.8104 11.5631 41.7293C11.5631 41.3335 11.5622 40.9198 11.5615 40.4945C11.5602 39.9169 11.5591 39.3179 11.5598 38.7137ZM22.1945 50.9854C22.1957 50.9811 22.1968 50.9767 22.1981 50.9725C22.2383 50.842 22.2757 50.7081 22.3118 50.5726C22.3198 50.5411 22.3285 50.5094 22.3367 50.4772C22.3715 50.342 22.4043 50.2046 22.4352 50.0648C22.4421 50.0338 22.4485 50.0021 22.4552 49.9709C22.483 49.8409 22.5093 49.7094 22.534 49.5757C22.538 49.5539 22.5423 49.5325 22.5463 49.5106C22.5728 49.3641 22.5971 49.2147 22.6201 49.064C22.6261 49.0252 22.632 48.9863 22.6376 48.9473C22.6595 48.7975 22.6802 48.6462 22.6992 48.4927C22.7031 48.4618 22.7065 48.4301 22.7102 48.3989C22.7266 48.2618 22.7417 48.123 22.7558 47.983C22.7595 47.9473 22.7633 47.9119 22.7668 47.8759C22.782 47.7195 22.7957 47.5614 22.8083 47.4017C22.812 47.3566 22.8153 47.3113 22.8187 47.2658C22.8308 47.1043 22.8422 46.9419 22.8522 46.7774C22.8538 46.7506 22.8551 46.7233 22.8567 46.6964C22.8653 46.548 22.8731 46.3984 22.8802 46.2476C22.8825 46.201 22.8847 46.1545 22.8867 46.1076C22.893 45.9645 22.8988 45.8208 22.9038 45.6758C22.9433 46.8791 22.9631 48.1669 22.9631 49.5412C22.9631 53.9249 22.3768 64.1209 16.9455 64.1209C13.1087 64.1209 11.4076 58.4896 11.0177 52.4084C11.0225 52.4174 11.0277 52.4255 11.0326 52.4345C11.0893 52.541 11.1481 52.6446 11.209 52.7451C11.2211 52.7653 11.2336 52.7849 11.246 52.8047C11.3072 52.9035 11.37 53 11.4351 53.0929C11.4388 53.0983 11.4425 53.104 11.4463 53.1094C11.5142 53.2055 11.585 53.2975 11.6573 53.3874C11.6721 53.4056 11.6867 53.424 11.7016 53.4421C11.7732 53.5289 11.8467 53.6129 11.9225 53.6936C11.9356 53.7076 11.9492 53.7211 11.9625 53.735C12.0361 53.8118 12.1115 53.8861 12.189 53.9574C12.1972 53.965 12.2052 53.973 12.2135 53.9805C12.2957 54.055 12.3806 54.1259 12.4672 54.1944C12.4851 54.2085 12.503 54.2225 12.521 54.2364C12.6077 54.303 12.6962 54.3671 12.7872 54.4279C12.8006 54.4368 12.8143 54.4451 12.8278 54.4539C12.9146 54.5105 13.0031 54.5645 13.0937 54.6157C13.107 54.6232 13.1198 54.6312 13.1332 54.6385C13.2297 54.692 13.3288 54.742 13.4298 54.7895C13.4507 54.7994 13.4718 54.809 13.493 54.8186C13.5953 54.8651 13.6993 54.9095 13.8062 54.95C13.8181 54.9545 13.8303 54.9585 13.8422 54.963C13.9437 55.0008 14.0475 55.0356 14.153 55.0681C14.1712 55.0738 14.1892 55.0798 14.2077 55.0853C14.3188 55.1183 14.4323 55.1479 14.5477 55.175C14.5716 55.1806 14.5956 55.1859 14.6196 55.1912C14.7382 55.2176 14.8583 55.2419 14.9815 55.2622C14.9896 55.2636 14.9978 55.2645 15.006 55.2659C15.1248 55.2851 15.2462 55.301 15.3693 55.3146C15.3927 55.3172 15.4158 55.3201 15.4393 55.3225C15.5652 55.3352 15.6933 55.3451 15.8237 55.3521C15.85 55.3535 15.8765 55.3545 15.9028 55.3558C16.0385 55.3619 16.1757 55.366 16.3162 55.366C16.6015 55.366 16.8768 55.3534 17.1425 55.3281C19.7105 55.084 21.3672 53.6567 22.1945 50.9854ZM20.4395 23.7327C20.3298 24.3326 20.263 24.6995 20.2513 24.7682C20.2513 24.7682 20.2513 24.7682 20.2513 24.7684C20.0016 26.2476 20.0538 28.2315 20.2187 30.4496C17.145 31.0416 13.9477 30.7089 12.1068 30.4081C13.8913 19.518 13.0142 12.1096 12.3648 6.63912C12.2506 5.67662 12.1408 4.75225 12.0541 3.879H23.9137C22.8782 10.3824 21.0596 20.3377 20.4395 23.7327Z" fill="black"/>
<path d="M58.08 41.875C57.5034 41.1558 56.7946 40.3322 56.0444 39.4602C54.2405 37.3638 51.9955 34.7547 50.1394 31.9243C47.9319 28.5583 47.499 24.2003 47.7989 21.4912C47.8751 20.8033 47.653 20.1152 47.1894 19.6032C46.7277 19.0932 46.071 18.811 45.3796 18.813L40.1456 18.8726C39.7585 18.8753 39.4044 19.012 39.1269 19.2388C38.087 18.928 36.5666 17.935 35.4089 14.925C34.7635 13.2467 32.864 9.45897 29.7631 3.66647L29.5159 3.20522C29.2705 2.74835 28.7014 2.57647 28.2437 2.82172C27.7866 3.0671 27.6149 3.6366 27.8602 4.09385L28.1066 4.55347C31.1276 10.1967 33.0461 14.0165 33.6551 15.5996C33.9614 16.3958 34.2964 17.0807 34.6482 17.6698C34.3312 18.5256 33.8139 19.863 33.17 21.314C32.1784 23.5487 31.2129 25.3248 30.3241 26.5605C29.2071 25.0767 27.826 23.2438 26.1506 21.0221C25.8382 20.6077 25.2492 20.5253 24.8349 20.8376C24.4205 21.15 24.338 21.739 24.6504 22.1533C29.3119 28.3351 31.7041 31.5171 32.4074 32.4708C33.4589 33.8967 36.4124 36.1075 41.1846 39.042C41.3585 39.3133 41.5809 39.5538 41.8431 39.7443L52.5986 47.5576C53.2967 48.0743 54.1321 48.3348 54.9689 48.3348C55.7209 48.3348 56.4739 48.1245 57.129 47.7007C58.0744 47.0893 58.7197 46.1013 58.8995 44.99C59.079 43.8832 58.7801 42.7478 58.08 41.875ZM31.525 28.1566C33.3996 25.7607 35.0825 21.8727 36.0249 19.4613C36.8972 20.33 37.7786 20.7846 38.517 21.0171C38.5166 21.0371 38.5165 21.057 38.5161 21.077C38.5127 21.2543 38.51 21.4313 38.5085 21.6076C38.5085 21.609 38.5085 21.6103 38.5085 21.6117C38.507 21.7926 38.5067 21.9727 38.5071 22.1523C38.5072 22.1863 38.5074 22.2203 38.5075 22.2543C38.509 22.6123 38.5144 22.9677 38.5231 23.3203C38.5239 23.3515 38.5247 23.3825 38.5255 23.4136C38.535 23.7688 38.5479 24.1211 38.564 24.4701C38.5652 24.497 38.5665 24.5238 38.5677 24.5508C38.5845 24.9025 38.6045 25.2507 38.6275 25.5952C38.6291 25.619 38.6306 25.6426 38.6322 25.6662C38.6559 26.0133 38.6822 26.3565 38.7115 26.6955C38.7132 26.7153 38.7149 26.7352 38.7166 26.755C38.7355 26.9722 38.7555 27.1876 38.7765 27.4012C37.8375 28.7211 36.2414 30.4578 33.9169 31.3518C33.5625 30.8712 32.7892 29.838 31.525 28.1566ZM35.4037 32.8088C36.9374 32.0798 38.1599 31.0685 39.0976 30.0642C39.1321 30.3058 39.1676 30.544 39.2039 30.7785C39.2051 30.7863 39.2062 30.7943 39.2075 30.8022C39.2551 31.1096 39.3041 31.4106 39.3541 31.7048C39.3552 31.7112 39.3562 31.7176 39.3574 31.724C39.4075 32.0185 39.4586 32.3061 39.5104 32.5866C39.5115 32.5926 39.5126 32.5987 39.5137 32.6048C39.5397 32.7452 39.5657 32.884 39.592 33.0207C39.5922 33.0221 39.5925 33.0235 39.5927 33.0248C39.6186 33.1597 39.6446 33.2926 39.6706 33.4237C39.6717 33.4292 39.6727 33.4348 39.6739 33.4403C39.7 33.5718 39.7262 33.7016 39.7525 33.8292C39.7536 33.8348 39.7549 33.8405 39.756 33.8461C39.7812 33.9691 39.8066 34.0903 39.8319 34.2096C39.8332 34.2162 39.8346 34.2228 39.836 34.2293C39.862 34.3518 39.888 34.4723 39.9139 34.591C39.9155 34.5982 39.917 34.6052 39.9186 34.6125C39.9432 34.725 39.9677 34.8356 39.9922 34.9443C39.994 34.9523 39.9959 34.9604 39.9976 34.9683C40.0229 35.0803 40.0479 35.1903 40.0729 35.2985C40.0754 35.3093 40.0779 35.32 40.0804 35.3307C40.1034 35.4302 40.1262 35.528 40.149 35.624C40.1514 35.6341 40.1539 35.6445 40.1562 35.6547C40.1801 35.7555 40.2039 35.854 40.2274 35.9506C40.2309 35.9652 40.2344 35.9795 40.238 35.994C40.2591 36.0806 40.2801 36.1657 40.3009 36.2491C40.3029 36.257 40.3049 36.2654 40.3067 36.2732C38.201 34.923 36.541 33.7493 35.4037 32.8088ZM57.045 44.6897C56.9485 45.2861 56.6161 45.795 56.109 46.1228C55.3777 46.5956 54.4165 46.5653 53.71 46.0422L42.9476 38.224C42.8516 38.1543 42.7761 38.0645 42.7255 37.9606C42.7249 37.9593 42.7246 37.9581 42.724 37.9568C42.7171 37.9425 42.7129 37.928 42.707 37.9133C42.6987 37.893 42.6894 37.8732 42.683 37.8518C42.4884 37.2022 42.1531 36.0087 41.7979 34.4136C41.7972 34.4108 41.7966 34.4082 41.796 34.4055C41.7797 34.3323 41.7634 34.2582 41.747 34.1833C41.7462 34.1802 41.7456 34.1772 41.745 34.1741C41.729 34.1007 41.713 34.0265 41.6969 33.9516C41.6957 33.9465 41.6947 33.9416 41.6936 33.9365C41.6779 33.8626 41.662 33.7878 41.6461 33.7125C41.6449 33.7062 41.6435 33.7002 41.6422 33.694C41.6269 33.6207 41.6115 33.5465 41.5961 33.4718C41.5942 33.463 41.5925 33.4542 41.5906 33.4452C41.5756 33.3723 41.5607 33.2987 41.5457 33.2246C41.5435 33.2135 41.5412 33.2026 41.5391 33.1916C41.5246 33.1193 41.5101 33.0462 41.4956 32.9727C41.493 32.9595 41.4904 32.9463 41.4877 32.933C41.4735 32.8606 41.4594 32.7875 41.4451 32.714C41.4422 32.6991 41.4394 32.6845 41.4365 32.6696C41.4222 32.5955 41.408 32.5205 41.3939 32.4452C41.3912 32.4312 41.3886 32.4173 41.386 32.4032C41.3717 32.3272 41.3576 32.2506 41.3435 32.1735C41.3409 32.1592 41.3382 32.1452 41.3356 32.131C41.3216 32.0541 41.3076 31.9766 41.2937 31.8987C41.2911 31.8837 41.2884 31.869 41.2857 31.854C41.2721 31.7777 41.2587 31.7008 41.2452 31.6236C41.2421 31.6058 41.2391 31.5882 41.236 31.5705C41.2229 31.4948 41.2099 31.4186 41.197 31.3421C41.1937 31.3226 41.1904 31.3033 41.1871 31.2838C41.1742 31.207 41.1614 31.1295 41.1486 31.0516C41.1455 31.0322 41.1422 31.013 41.1391 30.9936C41.1266 30.9168 41.1141 30.8393 41.1017 30.7617C41.0984 30.7403 41.0949 30.7191 41.0915 30.6977C41.0791 30.6198 41.067 30.5413 41.0549 30.4627C41.0516 30.4416 41.0484 30.4206 41.0451 30.3993C41.0332 30.3215 41.0214 30.243 41.0096 30.1642C41.0061 30.141 41.0026 30.118 40.9992 30.0946C40.9879 30.0175 40.9766 29.9398 40.9654 29.862C40.9617 29.8367 40.9581 29.8115 40.9545 29.7861C40.9435 29.709 40.9326 29.6315 40.9219 29.5537C40.9182 29.5273 40.9145 29.5011 40.9109 29.4746C40.9001 29.3963 40.8895 29.3176 40.879 29.2387C40.8755 29.2127 40.872 29.1867 40.8686 29.1606C40.8581 29.0812 40.8479 29.0015 40.8376 28.9215C40.8342 28.8947 40.8307 28.8681 40.8274 28.8413C40.8174 28.7623 40.8076 28.683 40.7979 28.6033C40.7944 28.5748 40.7909 28.5465 40.7874 28.518C40.7777 28.4386 40.7684 28.3588 40.7591 28.279C40.7557 28.2501 40.7524 28.2213 40.749 28.1923C40.7397 28.1122 40.7307 28.0317 40.7217 27.951C40.7185 27.9215 40.7152 27.8921 40.712 27.8625C40.7032 27.7826 40.6947 27.7025 40.6862 27.6221C40.683 27.5911 40.6797 27.5601 40.6765 27.529C40.6681 27.4483 40.66 27.3673 40.652 27.2861C40.6489 27.2552 40.6459 27.2242 40.6427 27.1932C40.6349 27.1121 40.6271 27.0307 40.6195 26.9491C40.6165 26.9173 40.6136 26.8857 40.6106 26.8538C40.6031 26.7726 40.596 26.6908 40.5889 26.6091C40.586 26.5761 40.5831 26.5432 40.5802 26.5101C40.5734 26.4296 40.5667 26.3487 40.5601 26.2676C40.5574 26.233 40.5545 26.1985 40.5517 26.1638C40.5454 26.0833 40.5392 26.0026 40.5332 25.9216C40.5306 25.8858 40.5279 25.8501 40.5252 25.8142C40.5195 25.7347 40.5139 25.655 40.5084 25.575C40.5057 25.5372 40.5032 25.4995 40.5007 25.4616C40.4955 25.3823 40.4905 25.303 40.4855 25.2233C40.4831 25.1845 40.4807 25.1455 40.4784 25.1065C40.4736 25.0278 40.4692 24.949 40.4649 24.87C40.4626 24.8298 40.4605 24.7896 40.4582 24.7493C40.4541 24.6707 40.4501 24.5917 40.4462 24.5127C40.4442 24.4716 40.4422 24.4305 40.4404 24.3893C40.4367 24.3112 40.4334 24.2327 40.4301 24.1542C40.4284 24.1117 40.4266 24.0692 40.4249 24.0267C40.4219 23.9491 40.419 23.8712 40.4162 23.7932C40.4147 23.7493 40.4132 23.7055 40.4117 23.6615C40.4092 23.5845 40.407 23.5072 40.4049 23.4298C40.4036 23.3845 40.4024 23.3391 40.4012 23.2936C40.3994 23.2177 40.3976 23.1417 40.3961 23.0657C40.3951 23.0183 40.3942 22.971 40.3934 22.9236C40.392 22.8482 40.3909 22.7727 40.3899 22.6971C40.3892 22.6488 40.3886 22.6006 40.3881 22.5522C40.3874 22.478 40.3867 22.4036 40.3864 22.3292C40.3861 22.2785 40.3859 22.2277 40.3857 22.1768C40.3855 22.104 40.3855 22.031 40.3856 21.958C40.3857 21.9056 40.3859 21.8531 40.3861 21.8006C40.3865 21.7292 40.387 21.6578 40.3876 21.5862C40.3881 21.5312 40.3887 21.4762 40.3895 21.4211C40.3904 21.3513 40.3915 21.2815 40.3926 21.2115C40.3936 21.155 40.3946 21.0983 40.3959 21.0417C40.3972 20.973 40.3989 20.9041 40.4006 20.8352C40.4014 20.8065 40.4021 20.7777 40.403 20.749L45.4007 20.6922C45.403 20.6921 45.4051 20.6921 45.4072 20.6921C45.6097 20.6921 45.7377 20.8 45.7965 20.8648C45.8567 20.9313 45.9545 21.0745 45.9312 21.2847C45.5807 24.4486 46.0895 29.1758 48.568 32.9551C50.4912 35.8877 52.7805 38.5484 54.62 40.6861C55.3594 41.5453 56.0577 42.357 56.6141 43.0507C56.9877 43.5162 57.1406 44.0984 57.045 44.6897Z" fill="black"/>
</svg>
