<svg width="68" height="68" viewBox="0 0 68 68" fill="none" xmlns="http://www.w3.org/2000/svg">
<circle cx="34" cy="34" r="34" fill="#FFBD00"/>
<path d="M12.5177 13.8589C12.7141 14.0594 12.9839 14.1714 13.2646 14.1683C13.4068 14.1714 13.5485 14.1464 13.6808 14.0938C13.937 13.9797 14.1422 13.7745 14.2568 13.5177C14.3089 13.3855 14.3344 13.2443 14.3313 13.1016C14.3339 12.8214 14.2224 12.5516 14.0219 12.3552C13.9245 12.2558 13.8084 12.1761 13.6808 12.1204C13.4834 12.0469 13.2703 12.0245 13.062 12.0563C12.9979 12.0776 12.9235 12.099 12.8594 12.1204C12.7953 12.1417 12.7313 12.1844 12.6776 12.2167C12.5646 12.3011 12.4641 12.4021 12.3792 12.5151C12.3474 12.5683 12.3151 12.6323 12.2834 12.6964C12.2511 12.7605 12.2407 12.8349 12.2193 12.899C12.2104 12.9662 12.2068 13.0339 12.2084 13.1016C12.2052 13.2443 12.2308 13.3855 12.2834 13.5177C12.3386 13.6459 12.4183 13.7615 12.5177 13.8589Z" fill="black"/>
<path d="M10.2568 14.6167C9.94327 14.9167 9.84952 15.3807 10.0219 15.7792C10.0735 15.9089 10.1537 16.0255 10.2568 16.1203C10.4547 16.326 10.7282 16.4417 11.0141 16.4406C11.1532 16.438 11.2907 16.4089 11.4193 16.3552C11.549 16.3036 11.6657 16.2234 11.7605 16.1203C11.8599 16.0229 11.9396 15.9068 11.9954 15.7792C12.1511 15.3792 12.0594 14.925 11.7605 14.6167C11.3391 14.2161 10.6782 14.2161 10.2568 14.6167Z" fill="black"/>
<path d="M9.49876 16.8776C9.30189 16.674 9.03053 16.5589 8.7472 16.5589C8.46335 16.5589 8.19199 16.674 7.99512 16.8776C7.88939 16.9745 7.80918 17.0953 7.76022 17.2297C7.70553 17.3578 7.67689 17.4958 7.6748 17.6349C7.67793 17.9198 7.79303 18.1917 7.99512 18.3922C8.19616 18.5859 8.46282 18.6964 8.74147 18.7016C9.02428 18.6995 9.29564 18.5891 9.49876 18.3922C9.69772 18.1906 9.80918 17.9182 9.80814 17.6349C9.81022 17.4964 9.78522 17.3589 9.73366 17.2297C9.68105 17.0974 9.60084 16.9776 9.49876 16.8776Z" fill="black"/>
<path d="M13.2639 18.7016C13.4066 18.7 13.5478 18.6714 13.6801 18.6167C13.8072 18.5646 13.9233 18.4885 14.0212 18.3922C14.2202 18.1906 14.3311 17.9182 14.3306 17.6349C14.3327 17.4964 14.3072 17.3589 14.2561 17.2297C14.203 17.0974 14.1233 16.9776 14.0212 16.8776C13.8238 16.674 13.5525 16.5589 13.2691 16.5589C12.9858 16.5589 12.7145 16.674 12.5171 16.8776C12.415 16.9776 12.3353 17.0974 12.2827 17.2297C12.228 17.3578 12.1988 17.4958 12.1973 17.6349C12.2014 18.2224 12.6764 18.6979 13.2639 18.7016Z" fill="black"/>
<path d="M11.7595 19.1391C11.3361 18.7443 10.6793 18.7443 10.2559 19.1391C10.1501 19.2359 10.0699 19.3568 10.021 19.4912C9.9663 19.6193 9.93713 19.7573 9.93557 19.8964C9.93296 20.3297 10.1929 20.7214 10.5934 20.888C10.9934 21.0542 11.4543 20.9615 11.7595 20.6537C11.9585 20.4521 12.0699 20.1797 12.0689 19.8964C12.071 19.7578 12.0455 19.6198 11.9944 19.4912C11.9418 19.3589 11.8616 19.2385 11.7595 19.1391Z" fill="black"/>
<path d="M15.5356 11.9073C15.6741 11.9094 15.8121 11.8838 15.9408 11.8323C16.0689 11.7771 16.1845 11.6974 16.2824 11.5979C16.385 11.5031 16.4652 11.3864 16.5168 11.2562C16.5705 11.1281 16.5996 10.9906 16.6022 10.851C16.6033 10.5656 16.4876 10.2922 16.2824 10.0937C16.1876 9.99113 16.071 9.91092 15.9408 9.85884C15.5413 9.70103 15.0856 9.7927 14.7783 10.0937C14.5757 10.2932 14.4642 10.5672 14.4689 10.851C14.4689 11.1328 14.5819 11.4031 14.7819 11.6015C14.9824 11.8 15.2538 11.9099 15.5356 11.9073Z" fill="black"/>
<path d="M17.3921 9.57134C17.5207 9.62238 17.6588 9.6479 17.7973 9.64582C18.0806 9.64634 18.353 9.5354 18.5546 9.33644C18.7509 9.1328 18.8619 8.86197 18.864 8.57915C18.8582 8.29999 18.7478 8.03332 18.5546 7.83228C18.2463 7.53332 17.7921 7.44165 17.3921 7.5979C17.2572 7.64634 17.1369 7.72707 17.04 7.83228C16.9405 7.93019 16.8609 8.04582 16.8051 8.17394C16.7541 8.30259 16.7286 8.44061 16.7306 8.57915C16.7254 8.86301 16.8374 9.13697 17.04 9.33644C17.1395 9.43853 17.2593 9.51821 17.3921 9.57134Z" fill="black"/>
<path d="M9.49876 7.82183C9.18991 7.5234 8.73418 7.4359 8.33626 7.59788C8.06855 7.69475 7.8571 7.90569 7.76022 8.17392C7.70553 8.30204 7.67689 8.43954 7.6748 8.57913C7.67689 8.86194 7.78783 9.13277 7.98418 9.33642C8.09043 9.43017 8.20866 9.50933 8.33626 9.57131C8.46543 9.62235 8.60293 9.64788 8.74147 9.64579C8.81335 9.64944 8.88522 9.64215 8.95501 9.62444C9.02012 9.61142 9.0847 9.59371 9.1472 9.57131C9.21335 9.53954 9.27741 9.50413 9.33887 9.46454C9.39512 9.42496 9.44824 9.38225 9.49876 9.33642C9.54512 9.2859 9.58783 9.23225 9.62689 9.17652C9.66647 9.11454 9.70241 9.05048 9.73366 8.98433C9.75658 8.92183 9.77428 8.85777 9.78678 8.79215C9.80449 8.72288 9.81178 8.651 9.80814 8.57913C9.81022 8.44058 9.78522 8.30256 9.73366 8.17392C9.67168 8.04631 9.59303 7.92808 9.49876 7.82183Z" fill="black"/>
<path d="M11.7595 5.5604L11.5996 5.43228C11.4824 5.35624 11.3522 5.30207 11.2158 5.27238C11.0079 5.22915 10.7918 5.25155 10.597 5.33644C10.4694 5.38801 10.3538 5.46405 10.2559 5.5604C10.0559 5.76249 9.94128 6.03384 9.93555 6.31769C9.93763 6.38905 9.9444 6.4604 9.9569 6.53124L10.021 6.7229C10.0486 6.78905 10.0809 6.85311 10.1168 6.91509C10.16 6.97082 10.2064 7.02447 10.2559 7.07499C10.3538 7.17134 10.4694 7.24738 10.597 7.29895C10.7236 7.35884 10.8621 7.38801 11.0022 7.38436C11.0736 7.3828 11.1449 7.37551 11.2158 7.36301C11.3522 7.33332 11.4824 7.27915 11.5996 7.20311C11.6553 7.16353 11.709 7.12082 11.7595 7.07499C11.8085 7.02707 11.8517 6.97342 11.8876 6.91509C11.9272 6.85363 11.9626 6.78905 11.9944 6.7229C12.0168 6.6604 12.035 6.59634 12.0475 6.53124C12.0652 6.46144 12.0725 6.38957 12.0689 6.31769C12.071 6.17915 12.0454 6.04113 11.9944 5.91249C11.9361 5.7828 11.8569 5.66405 11.7595 5.5604Z" fill="black"/>
<path d="M7.23704 10.0938C7.186 10.0448 7.13288 9.99848 7.07663 9.95525C7.01517 9.91879 6.95111 9.88702 6.88496 9.85889L6.69277 9.79535C6.48496 9.7516 6.26882 9.774 6.07402 9.85889C5.94225 9.91306 5.82246 9.99275 5.72246 10.0938C5.52871 10.2948 5.41829 10.5615 5.41309 10.8407C5.41465 10.912 5.42194 10.9834 5.43444 11.0537C5.46413 11.1907 5.51829 11.3204 5.59434 11.4381L5.72246 11.598C5.82559 11.6954 5.94434 11.7745 6.07402 11.8323C6.20319 11.8839 6.34069 11.9094 6.47975 11.9073C6.55111 11.9105 6.62298 11.9037 6.69277 11.886C6.7584 11.873 6.82246 11.8552 6.88496 11.8323C6.95111 11.8011 7.01517 11.7657 7.07663 11.7256C7.13548 11.6896 7.18913 11.6469 7.23704 11.598C7.28288 11.5469 7.32559 11.4938 7.36465 11.4381C7.44121 11.3204 7.49538 11.1907 7.52507 11.0537C7.53704 10.9834 7.54434 10.912 7.54642 10.8407C7.55007 10.7006 7.5209 10.5615 7.461 10.4349C7.40892 10.3079 7.33288 10.1917 7.23704 10.0938Z" fill="black"/>
<path d="M11.7595 10.0937C11.709 10.0448 11.6553 9.99841 11.5996 9.95518C11.5413 9.91872 11.4809 9.88695 11.4184 9.85882C11.3543 9.83799 11.2798 9.81663 11.2158 9.79528C11.0079 9.75205 10.7918 9.77445 10.597 9.85882C10.3402 9.97341 10.135 10.1786 10.021 10.4349C9.96628 10.5635 9.93711 10.701 9.93555 10.8406C9.93763 10.9119 9.9444 10.9833 9.9569 11.0536C9.97826 11.1177 9.99961 11.1922 10.021 11.2562C10.0486 11.3192 10.0809 11.3797 10.1168 11.438C10.16 11.4937 10.2064 11.5468 10.2559 11.5979C10.3533 11.6974 10.4689 11.7771 10.597 11.8323C10.7257 11.8838 10.8637 11.9093 11.0022 11.9073C11.0741 11.9104 11.146 11.9036 11.2158 11.8859C11.2845 11.8729 11.3522 11.8552 11.4184 11.8323C11.4809 11.801 11.5418 11.7651 11.5996 11.7255C11.7158 11.6521 11.8142 11.5541 11.8876 11.438C11.9272 11.3797 11.9626 11.3192 11.9944 11.2562C12.0168 11.1901 12.035 11.1224 12.0475 11.0536C12.0652 10.9838 12.0725 10.9119 12.0689 10.8406C12.071 10.7015 12.0454 10.564 11.9944 10.4349C11.9387 10.3073 11.859 10.1911 11.7595 10.0937Z" fill="black"/>
<path d="M12.2834 8.99532C12.3151 9.05887 12.3474 9.11251 12.3792 9.17657C12.4224 9.2323 12.4688 9.28595 12.5177 9.33647C12.5636 9.38803 12.6177 9.43126 12.6776 9.46459C12.7344 9.50626 12.7953 9.5422 12.8594 9.57137C12.9255 9.59376 12.9933 9.61147 13.062 9.62449C13.1282 9.6422 13.1964 9.64949 13.2646 9.64584C13.5485 9.64845 13.8214 9.53699 14.0219 9.33647C14.2245 9.13699 14.336 8.86303 14.3313 8.57918C14.3349 8.51095 14.3276 8.44272 14.3099 8.37657C14.2985 8.3073 14.2808 8.2396 14.2568 8.17397C14.1985 8.04428 14.1193 7.92501 14.0219 7.82189C13.924 7.72553 13.8078 7.64949 13.6808 7.59793C13.486 7.51355 13.2698 7.49116 13.062 7.53387C12.9917 7.54533 12.9235 7.56668 12.8594 7.59793C12.7938 7.61876 12.7323 7.65158 12.6776 7.69376C12.6245 7.73647 12.5604 7.77918 12.5177 7.82189C12.3188 8.02345 12.2078 8.29585 12.2084 8.57918C12.2068 8.65053 12.2104 8.72189 12.2193 8.7922C12.2407 8.85626 12.262 8.93126 12.2834 8.99532Z" fill="black"/>
<path d="M14.7782 7.07495C14.8241 7.12651 14.8782 7.16974 14.9381 7.20308C14.9965 7.24266 15.0569 7.27808 15.1194 7.30985C15.1855 7.33224 15.2532 7.35047 15.3225 7.36297C15.3918 7.38068 15.4637 7.38797 15.5355 7.38433C15.8163 7.38693 16.0861 7.27547 16.2824 7.07495C16.3876 6.97808 16.4683 6.85776 16.5168 6.72287C16.5715 6.59474 16.6006 6.45724 16.6022 6.31766C16.5991 6.03328 16.484 5.76089 16.2824 5.56037C16.184 5.46401 16.0683 5.38797 15.9407 5.33641C15.7465 5.25099 15.5303 5.2286 15.3225 5.27235C15.1855 5.30203 15.0553 5.3562 14.9381 5.43224C14.885 5.47495 14.821 5.51766 14.7782 5.56037C14.5793 5.76193 14.4683 6.03433 14.4689 6.31766C14.4668 6.4562 14.4923 6.59422 14.5433 6.72287C14.5965 6.85568 14.6762 6.97547 14.7782 7.07495Z" fill="black"/>
<path d="M9.73366 12.6963C9.70449 12.6322 9.66855 12.5718 9.62689 12.5151C9.59355 12.4546 9.55033 12.4005 9.49876 12.3552C9.44824 12.3057 9.39512 12.2593 9.33887 12.2166C9.2748 12.1843 9.22168 12.1526 9.15762 12.1203C9.09355 12.0885 9.01908 12.0776 8.95501 12.0562C8.60241 11.9953 8.24199 12.1062 7.98418 12.3552C7.94147 12.3979 7.89876 12.4619 7.85658 12.5151C7.81387 12.5692 7.78158 12.6307 7.76022 12.6963C7.72949 12.7604 7.70814 12.8286 7.69616 12.8989C7.68418 12.9661 7.67689 13.0338 7.6748 13.1015C7.67533 13.2447 7.70449 13.3859 7.76022 13.5177C7.81178 13.6453 7.88835 13.7609 7.98418 13.8588C8.08783 13.9562 8.20658 14.0359 8.33626 14.0937C8.40189 14.1177 8.47012 14.1354 8.53887 14.1468C8.60501 14.1645 8.67324 14.1718 8.74147 14.1682C9.02585 14.1734 9.2998 14.0614 9.49876 13.8588C9.6998 13.6583 9.81126 13.3854 9.80814 13.1015C9.81178 13.0333 9.80449 12.9651 9.78678 12.8989C9.77428 12.8302 9.75658 12.7625 9.73366 12.6963Z" fill="black"/>
<path d="M7.47142 14.9578C7.44017 14.8953 7.40423 14.8343 7.36465 14.7765C7.33184 14.7161 7.28861 14.6619 7.23704 14.6166C7.13704 14.5146 7.01725 14.4343 6.88496 14.3817C6.48496 14.2234 6.02923 14.3156 5.72246 14.6166C5.67975 14.6588 5.63704 14.7229 5.59434 14.7765C5.51829 14.8937 5.46413 15.0239 5.43444 15.1604C5.42194 15.2307 5.41465 15.302 5.41309 15.3739C5.41829 15.6526 5.52871 15.9192 5.72246 16.1203C5.92298 16.3224 6.19486 16.4375 6.47975 16.4406C6.61882 16.4385 6.75684 16.4099 6.88496 16.3552C7.01934 16.3062 7.14017 16.226 7.23704 16.1203C7.43704 15.9239 7.54902 15.6541 7.54642 15.3739C7.54954 15.302 7.54277 15.2302 7.52506 15.1604C7.51204 15.0916 7.49434 15.0239 7.47142 14.9578V14.9578Z" fill="black"/>
<path d="M15.5363 16.4407C15.6759 16.4386 15.8134 16.4099 15.9415 16.3552C16.1983 16.2407 16.4035 16.0354 16.5176 15.7792C16.5723 15.6511 16.6014 15.513 16.603 15.374C16.604 15.088 16.4884 14.8146 16.2832 14.6167C16.0311 14.3667 15.6712 14.2589 15.3233 14.3287C15.254 14.3412 15.1863 14.3589 15.1202 14.3818C15.0566 14.4136 15.003 14.4459 14.9389 14.4776C14.8259 14.5625 14.7254 14.663 14.6405 14.7766C14.6082 14.8407 14.5764 14.8938 14.5441 14.9578C14.5217 15.024 14.504 15.0917 14.491 15.1604C14.4733 15.2302 14.466 15.3021 14.4697 15.374C14.4671 15.6542 14.5785 15.924 14.779 16.1203C14.9775 16.3261 15.2509 16.4417 15.5363 16.4407Z" fill="black"/>
<path d="M17.0401 13.8589C17.1396 13.9609 17.2594 14.0411 17.3922 14.0937C17.5208 14.1453 17.6589 14.1703 17.7974 14.1682C18.0807 14.1693 18.3531 14.0583 18.5547 13.8589C18.651 13.7609 18.7271 13.6453 18.7786 13.5177C18.8333 13.3859 18.8625 13.2448 18.8641 13.1016C18.862 12.8224 18.751 12.5542 18.5547 12.3552C18.2464 12.0557 17.7922 11.9641 17.3922 12.1203C17.2594 12.1729 17.1396 12.2531 17.0401 12.3552C16.8396 12.5516 16.7281 12.8214 16.7307 13.1016C16.7276 13.2443 16.7531 13.3854 16.8052 13.5177C16.8609 13.6458 16.9406 13.7615 17.0401 13.8589Z" fill="black"/>
<path d="M19.6529 11.8323C19.7821 11.8839 19.9196 11.9094 20.0587 11.9073C20.4873 11.9052 20.8732 11.6469 21.0383 11.2516C21.2035 10.8557 21.116 10.4 20.816 10.0937C20.5076 9.79479 20.0535 9.70312 19.6529 9.85885C19.5186 9.90781 19.3977 9.98854 19.3014 10.0937C18.8878 10.5099 18.8878 11.1818 19.3014 11.5979C19.4008 11.7 19.5206 11.7797 19.6529 11.8323Z" fill="black"/>
<path d="M65.321 63.7302L60.434 61.311C58.6111 60.4172 57.4585 58.561 57.4663 56.5313V55.6865C57.4637 53.0052 56.0278 50.5302 53.7012 49.198L47.9356 45.9063C48.3788 44.7323 48.0955 43.4078 47.2101 42.5183L46.4325 41.7407C47.4236 40.5209 47.3783 38.761 46.3262 37.5938L28.3163 17.6703L29.8622 16.1245C30.0622 15.9245 30.1747 15.6532 30.1747 15.3698C30.1747 15.087 30.0622 14.8157 29.8622 14.6157L26.8455 11.599C26.6455 11.399 26.3741 11.2865 26.0913 11.2865C25.8851 11.2922 25.6846 11.3594 25.5163 11.4792C24.3236 5.73909 19.0767 1.76045 13.2278 2.16097C7.37883 2.56097 2.72258 7.2167 2.32258 13.0662C1.92258 18.9151 5.90123 24.162 11.6413 25.3547C11.5215 25.523 11.4544 25.723 11.4481 25.9297C11.4481 26.2125 11.5606 26.4839 11.7606 26.6839L14.7773 29.7C14.9773 29.9006 15.2486 30.0131 15.532 30.0131C15.8153 30.0131 16.0866 29.9006 16.2866 29.7L17.8309 28.1547L37.7596 46.1672C38.9226 47.2292 40.6898 47.275 41.9059 46.274L42.6846 47.0526C43.6981 48.0735 45.2726 48.2828 46.5179 47.5625L52.6439 51.0605C54.3033 52.0099 55.3288 53.774 55.333 55.6865V56.5313C55.3226 59.3745 56.9387 61.9735 59.4929 63.2224L64.3804 65.6417C64.5273 65.7131 64.6887 65.7495 64.8517 65.748C65.3512 65.7526 65.7866 65.411 65.9002 64.925C66.0142 64.4391 65.7757 63.9391 65.3267 63.7214L65.321 63.7302ZM7.23508 7.07295C9.91164 4.39586 13.9122 3.54222 17.4486 4.89326C20.9851 6.24378 23.3976 9.54691 23.608 13.3271L23.0747 13.8604C23.4335 13.5006 23.4887 12.9381 23.2064 12.5151C22.9247 12.0927 22.384 11.9276 21.9142 12.1203C21.7846 12.1787 21.6658 12.2578 21.5622 12.3552C21.3663 12.5542 21.2554 12.8224 21.2528 13.1016C21.2544 13.1735 21.2616 13.2448 21.2741 13.3151C21.2861 13.3854 21.3075 13.4537 21.3382 13.5177C21.3596 13.5834 21.3919 13.6448 21.4346 13.699C21.4715 13.7563 21.5148 13.8099 21.5622 13.8589C21.7642 14.0589 22.0356 14.1735 22.3195 14.1792C22.6033 14.175 22.8736 14.0599 23.0736 13.8589L20.8169 16.1162C21.0127 15.9167 21.1231 15.649 21.1252 15.3693C21.1226 15.2266 21.0934 15.086 21.0398 14.9537C20.9882 14.8261 20.9116 14.7104 20.8158 14.612C20.5075 14.3131 20.0533 14.2214 19.6528 14.3776C19.5205 14.4302 19.4007 14.5104 19.3012 14.612C19.2049 14.7104 19.1288 14.8261 19.0767 14.9537C19.0231 15.086 18.9945 15.2266 18.9919 15.3693C18.9939 15.649 19.1049 15.9167 19.3012 16.1162C19.3976 16.2214 19.5184 16.3021 19.6528 16.3511C19.7814 16.4058 19.9189 16.4344 20.0585 16.436C20.3424 16.4323 20.6132 16.3177 20.8137 16.1162L18.5736 18.3563C18.7533 18.1578 18.8559 17.9011 18.8616 17.6328C18.8601 17.4938 18.8309 17.3558 18.7762 17.2276C18.7273 17.0959 18.6507 16.9761 18.5523 16.8756C18.446 16.7818 18.3278 16.7026 18.2002 16.6412C17.9403 16.5344 17.6491 16.5344 17.3898 16.6412C17.1236 16.7506 16.9122 16.9615 16.8028 17.2276C16.7033 17.4886 16.7033 17.7771 16.8028 18.0386C16.8648 18.1657 16.9434 18.2844 17.0377 18.3901C17.1377 18.4891 17.2575 18.5651 17.3898 18.6141C17.5179 18.6688 17.6554 18.6979 17.795 18.6995C18.0627 18.6938 18.3195 18.5917 18.5179 18.4115L16.2783 20.6516C16.4794 20.4516 16.5945 20.1802 16.5981 19.8964C16.5965 19.7573 16.5674 19.6193 16.5127 19.4912C16.4637 19.3568 16.3835 19.236 16.2783 19.1391C15.859 18.7323 15.1929 18.7323 14.7741 19.1391C14.6721 19.2386 14.5924 19.3589 14.5392 19.4912C14.4882 19.6198 14.4627 19.7578 14.4648 19.8964C14.4637 20.1797 14.5752 20.4521 14.7741 20.6537C14.8721 20.75 14.9882 20.8261 15.1153 20.8776C15.2476 20.9318 15.3887 20.9605 15.5314 20.9631C15.8111 20.9615 16.0788 20.8511 16.2783 20.6547L14.021 22.912C14.2221 22.712 14.3366 22.4412 14.3408 22.1578C14.3356 21.8735 14.221 21.6026 14.021 21.4006C13.9721 21.3526 13.9184 21.3099 13.8611 21.2724C13.8064 21.2302 13.745 21.198 13.6799 21.1766C13.6153 21.1453 13.5471 21.124 13.4767 21.1125C13.1294 21.0474 12.7715 21.1547 12.5169 21.4006C12.4195 21.5037 12.3403 21.623 12.2825 21.7526C12.2278 21.8808 12.1986 22.0183 12.1971 22.1578C12.195 22.5901 12.4538 22.9808 12.8528 23.1474C13.2523 23.3136 13.7122 23.223 14.0179 22.9172L13.4846 23.4506C9.70331 23.2396 6.39967 20.8261 5.04967 17.2881C3.69967 13.75 4.55539 9.74899 7.23508 7.07295ZM15.5325 27.4381L14.0231 25.9297L26.0913 13.8615L27.5997 15.3703L26.0913 16.8776L15.5325 27.4381ZM39.1903 44.5844L19.3413 26.6443L26.808 19.1776L44.7465 39.0282C45.1273 39.45 45.1111 40.0964 44.709 40.498L40.6559 44.5516C40.2533 44.9495 39.6101 44.9641 39.1903 44.5844V44.5844ZM44.1929 45.5443L43.4387 44.7901L44.9481 43.2808L45.7012 44.0349C46.1179 44.4516 46.1179 45.1271 45.7017 45.5438C45.2851 45.961 44.6096 45.961 44.1929 45.5443V45.5443Z" fill="black"/>
<path d="M65.5566 6.3062C65.279 6.10568 64.9217 6.05099 64.5967 6.15881L51.7967 10.4255C51.3607 10.5708 51.067 10.9786 51.067 11.438V20.564C50.4212 20.1802 49.6847 19.9755 48.9337 19.9713C46.5774 19.9713 44.667 21.8812 44.667 24.238C44.667 26.5942 46.5774 28.5046 48.9337 28.5046C51.2899 28.5046 53.2003 26.5942 53.2003 24.238V12.2067L63.867 8.65047V16.2973C63.2212 15.9135 62.4847 15.7088 61.7337 15.7046C59.3774 15.7046 57.467 17.6145 57.467 19.9713C57.467 22.3276 59.3774 24.238 61.7337 24.238C64.0899 24.238 66.0003 22.3276 66.0003 19.9713V7.17131C66.0003 6.82808 65.8347 6.5062 65.5566 6.3062ZM48.9337 26.3713C47.7555 26.3713 46.8003 25.4161 46.8003 24.238C46.8003 23.0593 47.7555 22.1046 48.9337 22.1046C50.1118 22.1046 51.067 23.0593 51.067 24.238C51.067 25.4161 50.1118 26.3713 48.9337 26.3713ZM61.7337 22.1046C60.5555 22.1046 59.6003 21.1494 59.6003 19.9713C59.6003 18.7927 60.5555 17.838 61.7337 17.838C62.9118 17.838 63.867 18.7927 63.867 19.9713C63.867 21.1494 62.9118 22.1046 61.7337 22.1046Z" fill="black"/>
<path d="M24.1068 41.3459L9.17344 45.6125C8.71563 45.7438 8.4 46.162 8.4 46.638V57.8974C7.75417 57.5136 7.01771 57.3089 6.26667 57.3047C3.91042 57.3047 2 59.2146 2 61.5714C2 63.9276 3.91042 65.838 6.26667 65.838C8.62292 65.838 10.5333 63.9276 10.5333 61.5714V51.711L23.3333 48.0776V53.6307C22.6875 53.2469 21.951 53.0422 21.2 53.038C18.8438 53.038 16.9333 54.9479 16.9333 57.3047C16.9333 59.661 18.8438 61.5714 21.2 61.5714C23.5563 61.5714 25.4667 59.661 25.4667 57.3047V42.3714C25.4667 42.0365 25.3094 41.7214 25.0422 41.5198C24.775 41.3183 24.4286 41.2542 24.1068 41.3459ZM6.26667 63.7047C5.08854 63.7047 4.13333 62.7495 4.13333 61.5714C4.13333 60.3927 5.08854 59.438 6.26667 59.438C7.44479 59.438 8.4 60.3927 8.4 61.5714C8.4 62.7495 7.44479 63.7047 6.26667 63.7047ZM10.5333 49.4932V47.4422L23.3333 43.7854V45.8615L10.5333 49.4932ZM21.2 59.438C20.0219 59.438 19.0667 58.4828 19.0667 57.3047C19.0667 56.1261 20.0219 55.1714 21.2 55.1714C22.3781 55.1714 23.3333 56.1261 23.3333 57.3047C23.3333 58.4828 22.3781 59.438 21.2 59.438Z" fill="black"/>
</svg>
