<svg width="68" height="68" viewBox="0 0 68 68" fill="none" xmlns="http://www.w3.org/2000/svg">
<circle cx="34" cy="34" r="34" fill="#FFBD00"/>
<path d="M7 44.375C4.243 44.375 2 46.618 2 49.375C2 52.132 4.243 54.375 7 54.375V59.75C7 60.4404 7.55963 61 8.25 61H29C29.6904 61 30.25 60.4404 30.25 59.75V52.895C30.25 52.4886 30.0524 52.1076 29.7204 51.8734C29.3883 51.6392 28.963 51.5811 28.5802 51.7176C28.2832 51.8235 28.0116 51.875 27.75 51.875C26.3715 51.875 25.25 50.7535 25.25 49.375C25.25 47.9965 26.3715 46.875 27.75 46.875C28.0116 46.875 28.2832 46.9265 28.5802 47.0324C28.9631 47.1691 29.3884 47.1108 29.7204 46.8766C30.0525 46.6424 30.25 46.2614 30.25 45.855V39C30.25 38.3096 29.6904 37.75 29 37.75H23.625C23.625 34.993 21.382 32.75 18.625 32.75C15.868 32.75 13.625 34.993 13.625 37.75H8.25C7.55963 37.75 7 38.3096 7 39V44.375ZM7.83025 47.0324C8.21312 47.1691 8.63838 47.1108 8.97038 46.8766C9.3025 46.6424 9.5 46.2614 9.5 45.855V40.25H15.105C15.5114 40.25 15.8924 40.0524 16.1266 39.7204C16.3608 39.3883 16.4189 38.963 16.2824 38.5802C16.1765 38.2832 16.125 38.0116 16.125 37.75C16.125 36.3715 17.2465 35.25 18.625 35.25C20.0035 35.25 21.125 36.3715 21.125 37.75C21.125 38.0116 21.0735 38.2832 20.9676 38.5802C20.8311 38.963 20.8892 39.3883 21.1234 39.7204C21.3576 40.0525 21.7386 40.25 22.145 40.25H27.75V44.375C24.993 44.375 22.75 46.618 22.75 49.375C22.75 52.132 24.993 54.375 27.75 54.375V58.5H9.5V52.895C9.5 52.4886 9.30238 52.1076 8.97038 51.8734C8.63825 51.6392 8.213 51.5811 7.83025 51.7176C7.53325 51.8235 7.26162 51.875 7 51.875C5.6215 51.875 4.5 50.7535 4.5 49.375C4.5 47.9965 5.6215 46.875 7 46.875C7.26162 46.875 7.53325 46.9265 7.83025 47.0324V47.0324Z" fill="black"/>
<path d="M61 13.625V8.25C61 7.55963 60.4404 7 59.75 7H39C38.3096 7 37.75 7.55963 37.75 8.25V15.105C37.75 15.5114 37.9476 15.8924 38.2796 16.1266C38.6119 16.3608 39.037 16.419 39.4198 16.2824C39.7168 16.1765 39.9882 16.125 40.25 16.125C41.6285 16.125 42.75 17.2465 42.75 18.625C42.75 20.0035 41.6285 21.125 40.25 21.125C39.9884 21.125 39.7168 21.0735 39.4198 20.9676C39.037 20.8311 38.6117 20.8892 38.2796 21.1234C37.9475 21.3576 37.75 21.7386 37.75 22.145V29C37.75 29.6904 38.3096 30.25 39 30.25H44.375C44.375 33.007 46.618 35.25 49.375 35.25C52.132 35.25 54.375 33.007 54.375 30.25H59.75C60.4404 30.25 61 29.6904 61 29V23.625C63.757 23.625 66 21.382 66 18.625C66 15.868 63.757 13.625 61 13.625ZM61 21.125C60.7384 21.125 60.4668 21.0735 60.1698 20.9676C59.787 20.8311 59.3617 20.8892 59.0296 21.1234C58.6975 21.3576 58.5 21.7386 58.5 22.145V27.75H52.895C52.4886 27.75 52.1076 27.9476 51.8734 28.2796C51.6392 28.6117 51.5811 29.037 51.7176 29.4198C51.8235 29.7168 51.875 29.9882 51.875 30.25C51.875 31.6285 50.7535 32.75 49.375 32.75C47.9965 32.75 46.875 31.6285 46.875 30.25C46.875 29.9884 46.9265 29.7168 47.0324 29.4198C47.1689 29.037 47.1108 28.6117 46.8766 28.2796C46.6424 27.9475 46.2614 27.75 45.855 27.75H40.25V23.625C43.007 23.625 45.25 21.382 45.25 18.625C45.25 15.868 43.007 13.625 40.25 13.625V9.5H58.5V15.105C58.5 15.5114 58.6976 15.8924 59.0296 16.1266C59.3619 16.3608 59.7869 16.419 60.1698 16.2824C60.4668 16.1765 60.7382 16.125 61 16.125C62.3785 16.125 63.5 17.2465 63.5 18.625C63.5 20.0035 62.3785 21.125 61 21.125V21.125Z" fill="black"/>
<path d="M29 7H23.625C23.625 4.243 21.382 2 18.625 2C15.868 2 13.625 4.243 13.625 7H8.25C7.55963 7 7 7.55963 7 8.25V29C7 29.6904 7.55963 30.25 8.25 30.25H15.105C15.5114 30.25 15.8924 30.0524 16.1266 29.7204C16.3608 29.3883 16.4189 28.963 16.2824 28.5802C16.1765 28.2832 16.125 28.0116 16.125 27.75C16.125 26.3715 17.2465 25.25 18.625 25.25C20.0035 25.25 21.125 26.3715 21.125 27.75C21.125 28.0116 21.0735 28.2832 20.9676 28.5802C20.8311 28.963 20.8892 29.3883 21.1234 29.7204C21.3576 30.0525 21.7386 30.25 22.145 30.25H29C29.6904 30.25 30.25 29.6904 30.25 29V23.625C33.007 23.625 35.25 21.382 35.25 18.625C35.25 15.868 33.007 13.625 30.25 13.625V8.25C30.25 7.55963 29.6904 7 29 7ZM32.75 18.625C32.75 20.0035 31.6285 21.125 30.25 21.125C29.9884 21.125 29.7168 21.0735 29.4198 20.9676C29.0369 20.8311 28.6117 20.8892 28.2796 21.1234C27.9475 21.3576 27.75 21.7386 27.75 22.145V27.75H23.625C23.625 24.993 21.382 22.75 18.625 22.75C15.868 22.75 13.625 24.993 13.625 27.75H9.5V9.5H15.105C15.5114 9.5 15.8924 9.30238 16.1266 8.97038C16.3608 8.63825 16.4189 8.213 16.2824 7.83025C16.1765 7.53325 16.125 7.26162 16.125 7C16.125 5.6215 17.2465 4.5 18.625 4.5C20.0035 4.5 21.125 5.6215 21.125 7C21.125 7.26162 21.0735 7.53325 20.9676 7.83025C20.8311 8.213 20.8892 8.63825 21.1234 8.97038C21.3576 9.3025 21.7386 9.5 22.145 9.5H27.75V15.105C27.75 15.5114 27.9476 15.8924 28.2796 16.1266C28.6117 16.3608 29.0369 16.419 29.4198 16.2824C29.7168 16.1765 29.9882 16.125 30.25 16.125C31.6285 16.125 32.75 17.2465 32.75 18.625V18.625Z" fill="black"/>
<path d="M59.75 50.625C60.4404 50.625 61 50.0654 61 49.375C61 48.6846 60.4404 48.125 59.75 48.125C59.0596 48.125 58.5 48.6846 58.5 49.375C58.5 50.0654 59.0596 50.625 59.75 50.625Z" fill="black"/>
<path d="M46.8766 38.2796C46.6424 37.9475 46.2614 37.75 45.855 37.75H39C38.3096 37.75 37.75 38.3096 37.75 39V44.375C34.993 44.375 32.75 46.618 32.75 49.375C32.75 52.132 34.993 54.375 37.75 54.375V59.75C37.75 60.4404 38.3096 61 39 61H44.375C44.375 63.757 46.618 66 49.375 66C52.132 66 54.375 63.757 54.375 61H59.75C60.4404 61 61 60.4404 61 59.75V55C61 54.3096 60.4404 53.75 59.75 53.75C59.0596 53.75 58.5 54.3096 58.5 55V58.5H52.895C52.4886 58.5 52.1076 58.6976 51.8734 59.0296C51.6392 59.3617 51.5811 59.787 51.7176 60.1698C51.8235 60.4668 51.875 60.7382 51.875 61C51.875 62.3785 50.7535 63.5 49.375 63.5C47.9965 63.5 46.875 62.3785 46.875 61C46.875 60.7384 46.9265 60.4668 47.0324 60.1698C47.1689 59.787 47.1108 59.3617 46.8766 59.0296C46.6424 58.6975 46.2614 58.5 45.855 58.5H40.25V52.895C40.25 52.4886 40.0524 52.1076 39.7204 51.8734C39.3881 51.6392 38.9631 51.5811 38.5802 51.7176C38.2832 51.8235 38.0116 51.875 37.75 51.875C36.3715 51.875 35.25 50.7535 35.25 49.375C35.25 47.9965 36.3715 46.875 37.75 46.875C38.0116 46.875 38.2832 46.9265 38.5802 47.0324C38.9631 47.1691 39.3884 47.1108 39.7204 46.8766C40.0525 46.6424 40.25 46.2614 40.25 45.855V40.25H44.375C44.375 43.007 46.618 45.25 49.375 45.25C52.132 45.25 54.375 43.007 54.375 40.25H58.5V43.75C58.5 44.4404 59.0596 45 59.75 45C60.4404 45 61 44.4404 61 43.75V39C61 38.3096 60.4404 37.75 59.75 37.75H52.895C52.4886 37.75 52.1076 37.9476 51.8734 38.2796C51.6392 38.6117 51.5811 39.037 51.7176 39.4198C51.8235 39.7168 51.875 39.9882 51.875 40.25C51.875 41.6285 50.7535 42.75 49.375 42.75C47.9965 42.75 46.875 41.6285 46.875 40.25C46.875 39.9884 46.9265 39.7168 47.0324 39.4198C47.1689 39.037 47.1108 38.6119 46.8766 38.2796V38.2796Z" fill="black"/>
</svg>
