<svg width="68" height="68" viewBox="0 0 68 68" fill="none" xmlns="http://www.w3.org/2000/svg">
<circle cx="34" cy="34" r="34" fill="#FFBD00"/>
<path d="M56.3752 29.7738C55.9285 28.5203 54.7407 27.6842 53.4099 27.6866C52.0805 27.6906 50.8974 28.5309 50.4557 29.7849H43.9673V25.5882H48.164C48.7433 25.5883 49.2131 25.1188 49.2132 24.5395C49.2132 24.5394 49.2132 24.5392 49.2132 24.539V20.149C50.8522 19.5696 51.7112 17.7713 51.1318 16.1322C50.5524 14.4933 48.7541 13.6342 47.115 14.2136C45.4759 14.7931 44.617 16.5914 45.1964 18.2304C45.5133 19.1268 46.2185 19.832 47.1149 20.149V23.49H43.9673V21.3916C43.9675 20.8123 43.4979 20.3426 42.9187 20.3424C42.9185 20.3424 42.9183 20.3424 42.9181 20.3424H40.8198V14.903C42.4587 14.3235 43.3177 12.5253 42.7383 10.8862C42.1589 9.24722 40.3606 8.38821 38.7216 8.96761C37.0826 9.54702 36.2236 11.3453 36.803 12.9844C37.1198 13.8808 37.825 14.586 38.7214 14.903V20.3423H34.5247V3.59227C34.5248 3.01299 34.0553 2.54322 33.476 2.54309C33.4759 2.54309 33.4757 2.54309 33.4755 2.54309C20.5324 2.54309 10.3936 11.914 10.3936 23.8761C10.3936 29.5584 12.6492 37.082 16.2809 43.5093C16.9331 44.663 17.784 45.8761 18.6846 47.1609C20.589 49.8755 22.7083 52.9283 22.9387 55.5856C22.1322 56.1557 21.6602 57.0883 21.6784 58.0758C21.6814 58.7852 21.9264 59.4724 22.3728 60.0237C21.7518 60.6365 21.4046 61.474 21.4099 62.3464C21.4118 64.0839 22.8199 65.4921 24.5575 65.4939H42.3936C44.1429 65.483 45.5524 64.0561 45.5415 62.3068C45.5414 62.2953 45.5412 62.2839 45.5411 62.2725C45.5404 61.4192 45.1917 60.603 44.5755 60.0126C45.0277 59.44 45.2733 58.7315 45.2726 58.002C45.2695 56.3402 43.9198 54.9957 42.2581 54.9988C42.2138 54.999 42.1694 55 42.1251 55.002H34.5247V35.0307H36.6231V38.1782C36.6229 38.7575 37.0924 39.2273 37.6717 39.2274C37.6718 39.2274 37.6721 39.2274 37.6722 39.2274H40.8198V40.4699C39.1808 41.0493 38.3219 42.8477 38.9015 44.4866C39.481 46.1254 41.2793 46.9844 42.9181 46.4049C44.5571 45.8255 45.416 44.027 44.8364 42.3882C44.5196 41.4918 43.8144 40.7868 42.9181 40.4699V38.1782C42.9183 37.599 42.4488 37.1292 41.8695 37.1291C41.8694 37.1291 41.8691 37.1291 41.869 37.1291H38.7214V35.0307H42.9181C43.4974 35.0308 43.9672 34.5613 43.9673 33.982C43.9673 33.9819 43.9673 33.9816 43.9673 33.9815V31.8832H50.4558C51.0384 33.5178 52.8356 34.3706 54.4703 33.7881C56.1048 33.2056 56.9576 31.4084 56.3752 29.7738ZM48.164 16.1455C48.7435 16.1455 49.2132 16.6152 49.2132 17.1946C49.2132 17.774 48.7435 18.2438 48.164 18.2438C47.5846 18.2438 47.1149 17.774 47.1149 17.1946C47.1154 16.6155 47.5849 16.1461 48.164 16.1455ZM20.4027 45.9559C19.5318 44.7141 18.7096 43.542 18.1077 42.4765C14.6964 36.4386 12.4919 29.1373 12.4919 23.8761C12.4919 13.413 21.1656 5.1486 32.4263 4.66401V11.9936C32.1478 12.0144 31.8636 12.0397 31.5596 12.077C31.1142 12.1312 30.7526 12.4627 30.66 12.9018L30.3403 14.4223C30.077 14.4849 29.8144 14.5555 29.5524 14.6344L28.5067 13.4683C28.2072 13.1333 27.7275 13.0265 27.3141 13.203C26.1398 13.7094 25.0315 14.3566 24.0134 15.1302C23.6549 15.4004 23.5082 15.8687 23.6481 16.2952L24.1297 17.7625C23.9314 17.949 23.7383 18.1426 23.5513 18.3403L22.0856 17.8588C21.6593 17.7207 21.1921 17.8669 20.9206 18.2235C20.1459 19.2418 19.4982 20.3507 18.9918 21.5258C18.8156 21.9392 18.9223 22.4188 19.2572 22.7184L20.4237 23.7635C20.3453 24.0228 20.2751 24.2826 20.2132 24.5432L18.5816 24.869C18.0911 24.9668 17.7379 25.3975 17.7379 25.8977V29.4754C17.7379 29.9756 18.0911 30.4063 18.5818 30.5041L20.2134 30.8299C20.2754 31.0901 20.3456 31.35 20.4238 31.6096L19.2569 32.6547C18.9225 32.9546 18.8158 33.434 18.9916 33.8474C19.4981 35.0223 20.1457 36.1313 20.9204 37.1496C21.1916 37.5066 21.659 37.6529 22.0854 37.5144L23.5511 37.0328C23.7386 37.2306 23.9311 37.4241 24.1294 37.6106L23.6478 39.0758C23.508 39.5022 23.6545 39.9702 24.0126 40.2408C25.0307 41.0156 26.1395 41.6635 27.3143 42.1701C27.7277 42.3456 28.2069 42.239 28.507 41.9048L29.5526 40.7388C29.8144 40.8177 30.0771 40.8884 30.3406 40.9508L30.6598 42.4703C30.752 42.9098 31.1137 43.2418 31.5593 43.2961C31.8637 43.3334 32.148 43.3587 32.4266 43.3796V55.0021H24.9918C24.5629 51.91 22.3727 48.7647 20.4027 45.9559ZM24.0329 27.6864C24.0396 32.4922 27.6509 36.5283 32.4263 37.0672V40.6752L32.2527 39.8493C32.1651 39.4311 31.8326 39.1077 31.412 39.0317C30.7901 38.9186 30.1787 38.7537 29.5842 38.5389C29.4703 38.4984 29.3501 38.4776 29.2292 38.4774C28.931 38.4774 28.6468 38.6045 28.448 38.8268L27.4614 39.9272C26.9146 39.654 26.387 39.3441 25.8819 39L26.3374 37.6138C26.4708 37.2075 26.3445 36.7611 26.0182 36.4847C25.5344 36.0752 25.0852 35.6262 24.6755 35.1426C24.3984 34.8185 23.9534 34.6931 23.5479 34.8249L22.1622 35.2809C21.8178 34.7757 21.5079 34.2479 21.2345 33.701L22.3358 32.7144C22.6535 32.4291 22.7671 31.9801 22.6232 31.5781C22.4086 30.9835 22.2438 30.3721 22.1303 29.7503C22.0538 29.3263 21.7256 28.9923 21.3029 28.9081L19.8362 28.6148V26.7583L21.3029 26.4653C21.7255 26.3813 22.0538 26.0471 22.1303 25.6231C22.2438 25.0009 22.4086 24.3891 22.6231 23.7941C22.7672 23.392 22.6534 22.9428 22.3352 22.6578L21.2347 21.6721C21.5084 21.1255 21.8182 20.5976 22.1619 20.0922L23.5482 20.5482C23.9537 20.6799 24.3985 20.5546 24.6758 20.2306C25.0865 19.7465 25.536 19.2967 26.0195 18.8853C26.3445 18.6095 26.4701 18.1642 26.3372 17.7592L25.8822 16.373C26.3873 16.029 26.9147 15.7192 27.4611 15.4458L28.4477 16.5462C28.7331 16.8636 29.1819 16.9773 29.584 16.8341C30.1785 16.6192 30.7899 16.4543 31.4118 16.3413C31.8322 16.2657 32.1647 15.9427 32.2524 15.5246L32.4263 14.6988V18.3057C27.6509 18.8447 24.0396 22.8807 24.0329 27.6864ZM32.4263 20.426V34.9469C28.4165 34.3729 25.6312 30.6568 26.2052 26.647C26.667 23.4218 29.201 20.8877 32.4263 20.426ZM43.4427 62.3464C43.4422 62.9255 42.9727 63.395 42.3936 63.3955H24.5575C23.9675 63.3856 23.4972 62.8992 23.5071 62.3091C23.5074 62.2969 23.5078 62.2847 23.5083 62.2725C23.5088 61.6934 23.9783 61.2239 24.5575 61.2234H42.3936C42.9836 61.2333 43.4539 61.7197 43.4439 62.3098C43.4438 62.322 43.4434 62.3342 43.4427 62.3464ZM42.1251 57.1005C42.6536 57.0517 43.1217 57.4408 43.1703 57.9693C43.1736 58.0047 43.1749 58.0403 43.1743 58.0758C43.1737 58.655 42.7042 59.1245 42.1251 59.125H24.8259C24.2359 59.115 23.7656 58.6287 23.7756 58.0386C23.7758 58.0264 23.7762 58.0142 23.7768 58.002C23.7992 57.479 24.2414 57.0732 24.7644 57.0957C24.785 57.0967 24.8055 57.0982 24.8259 57.1003H42.1251V57.1005ZM41.869 42.375C42.4484 42.375 42.9181 42.8447 42.9181 43.4241C42.9181 44.0035 42.4484 44.4733 41.869 44.4733C41.2896 44.4733 40.8198 44.0035 40.8198 43.4241C40.8203 42.845 41.2898 42.3756 41.869 42.375ZM39.7706 10.8995C40.35 10.8995 40.8198 11.3693 40.8198 11.9487C40.8198 12.5281 40.35 12.9979 39.7706 12.9979C39.1912 12.9979 38.7214 12.5281 38.7214 11.9487C38.7219 11.3696 39.1915 10.9002 39.7706 10.8995ZM41.869 32.9323H34.5247V22.4405H41.869V32.9323ZM53.4099 31.8832C52.8305 31.8832 52.3608 31.4134 52.3608 30.834C52.3608 30.2546 52.8305 29.7848 53.4099 29.7848C53.9894 29.7848 54.4591 30.2546 54.4591 30.834C54.4586 31.4133 53.9891 31.8826 53.4099 31.8832Z" fill="black"/>
<path d="M43.5942 50.502C43.2242 51.1636 42.8969 51.848 42.6143 52.5512L44.5651 53.3238C44.815 52.7035 45.1044 52.0998 45.4313 51.5165L43.5942 50.502Z" fill="black"/>
<path d="M45.9535 46.8063C45.5412 47.3986 45.1298 48.001 44.7363 48.6096L46.4976 49.749C46.8788 49.161 47.2768 48.5789 47.6759 48.0052L45.9535 46.8063Z" fill="black"/>
<path d="M48.3405 43.3156C47.9866 43.877 47.5921 44.458 47.1787 45.0543L48.9021 46.251C49.335 45.6281 49.7468 45.0205 50.1163 44.4324L48.3405 43.3156Z" fill="black"/>
<path d="M50.3093 39.6588C50.0086 40.2879 49.6942 40.9098 49.3662 41.5246L51.2166 42.5144C51.5598 41.8721 51.8886 41.2214 52.2028 40.5625L50.3093 39.6588Z" fill="black"/>
<path d="M51.9482 35.8083C51.7044 36.4569 51.4445 37.1064 51.1699 37.7509L53.1013 38.5727C53.3872 37.8995 53.6575 37.224 53.9123 36.5461L51.9482 35.8083Z" fill="black"/>
<path d="M56.5567 23.6671L54.4583 23.6834L54.4594 23.8761C54.4594 24.4612 54.4322 25.0831 54.3779 25.7224L56.4691 25.8987C56.528 25.201 56.5577 24.5206 56.5577 23.8761L56.5567 23.6671Z" fill="black"/>
<path d="M56.0225 19.2008L53.9795 19.6783C54.1328 20.3342 54.2494 20.9982 54.3289 21.667L56.4129 21.419C56.3239 20.673 56.1935 19.9324 56.0225 19.2008Z" fill="black"/>
<path d="M54.5132 14.9611L52.627 15.8791C52.9219 16.4851 53.1833 17.107 53.4098 17.7418L55.3862 17.039C55.1341 16.3306 54.8427 15.6369 54.5132 14.9611Z" fill="black"/>
<path d="M52.1141 11.1618L50.4707 12.4671C50.8906 12.9959 51.2822 13.5465 51.6438 14.1167L53.4173 12.9958C53.0158 12.3618 52.5807 11.7496 52.1141 11.1618Z" fill="black"/>
<path d="M48.9689 7.96005L47.6318 9.57684C48.1534 10.0083 48.6526 10.4663 49.1272 10.9488L50.623 9.47743C50.0978 8.94379 49.5457 8.43743 48.9689 7.96005Z" fill="black"/>
<path d="M45.2577 5.45901L44.2598 7.30531C44.8591 7.62911 45.4457 7.98361 46.0031 8.35856L47.1743 6.61679C46.5609 6.20498 45.9164 5.81561 45.2577 5.45901Z" fill="black"/>
<path d="M41.145 3.71826L40.5098 5.71826C41.1634 5.92521 41.8064 6.16298 42.4216 6.42423L43.2424 4.49387C42.5667 4.20587 41.8607 3.94567 41.145 3.71826Z" fill="black"/>
<path d="M36.7909 2.7551L36.5225 4.83706C37.1992 4.92415 37.8764 5.04205 38.5353 5.18854L38.9892 3.13936C38.2695 2.98054 37.5297 2.85136 36.7909 2.7551Z" fill="black"/>
<path d="M6.19699 59.1618H4.09863V61.2602H6.19699V59.1618Z" fill="black"/>
<path d="M6.19699 63.3586H4.09863V65.4569H6.19699V63.3586Z" fill="black"/>
<path d="M8.29465 61.2602H6.19629V63.3586H8.29465V61.2602Z" fill="black"/>
<path d="M4.09836 61.2602H2V63.3586H4.09836V61.2602Z" fill="black"/>
<path d="M63.9021 2.5061H61.8037V4.60447H63.9021V2.5061Z" fill="black"/>
<path d="M63.9021 6.70282H61.8037V8.80118H63.9021V6.70282Z" fill="black"/>
<path d="M65.9997 4.60446H63.9014V6.70282H65.9997V4.60446Z" fill="black"/>
<path d="M61.8034 4.60446H59.7051V6.70282H61.8034V4.60446Z" fill="black"/>
</svg>
