<svg width="68" height="68" viewBox="0 0 68 68" fill="none" xmlns="http://www.w3.org/2000/svg">
<circle cx="34" cy="34" r="34" fill="#FFBD00"/>
<path d="M63.0815 10.9616C62.2147 8.23552 61.0399 6.28362 60.99 6.20158C60.7974 5.88408 60.4008 5.71892 60.0416 5.80132C59.9485 5.82256 57.73 6.34038 55.171 7.61846C51.7161 9.34331 49.3028 11.646 48.191 14.2765C47.2656 16.4672 47.1326 19.1453 47.7892 22.1039C46.3907 20.542 44.8174 19.1757 43.1025 18.0254C42.5788 16.9909 41.1941 14.4439 39.0295 11.7819C38.3165 10.9056 36.945 12.0053 37.6653 12.8904C39.1239 14.6845 40.2218 16.4489 40.9085 17.6611L32.902 16.1003L25.2951 5.72441C26.0337 5.73467 26.7749 5.80608 27.5125 5.95073C29.8508 6.40849 32.1604 7.59941 34.3786 9.48979C35.2476 10.2306 36.3763 8.88225 35.5186 8.15166C33.0683 6.06352 30.4883 4.74223 27.8501 4.22551C23.8229 3.43742 19.1259 4.47197 14.2655 7.21855C10.643 9.26567 8.22049 11.5142 8.11942 11.6087C7.79532 11.9115 7.74368 12.4616 8.01505 12.8154C8.37027 13.5441 9.71646 16.1731 11.9573 19.0036C13.2782 20.6724 14.6713 22.1006 16.1123 23.2743C15.7029 23.6175 15.3045 23.9764 14.9189 24.3539C12.8593 26.3685 11.2824 28.7448 10.2471 31.3427C9.33194 33.6381 8.83975 36.1075 8.81229 38.6526C8.76688 42.8146 9.97281 46.8287 12.3004 50.2615C14.5743 53.6146 17.753 56.189 21.4927 57.7062C22.5393 58.1299 23.2011 56.5021 22.1537 56.0773C20.7987 55.5277 19.5258 54.8234 18.3517 53.9859C18.5019 53.1531 18.8501 50.1561 16.8594 47.0535C16.5807 46.6196 17.4139 44.9152 17.9112 43.8972C18.4246 42.848 18.9545 41.7632 19.2021 40.7419C19.465 39.6568 19.1691 38.746 18.347 38.107C17.7434 37.6379 16.9535 37.3951 16.2574 37.1808C15.8051 37.0417 15.2924 36.8842 15.1093 36.7315C14.7321 36.4155 14.1161 35.2476 13.621 34.3098C13.0717 33.2693 12.5487 32.2791 12.0148 31.6694C13.2163 28.8159 15.1463 26.2908 17.5633 24.3591C19.7712 25.8631 22.2911 26.9009 24.9695 27.1111C21.8633 29.5179 20.8584 32.5915 22.2947 35.5439C23.972 38.9914 27.4242 38.4406 30.47 37.9554C30.997 37.8712 31.5423 37.7844 32.0645 37.7192C32.2604 37.6946 32.3194 37.7481 32.3589 37.7829C33.0258 38.3762 33.006 41.2095 32.9917 43.2786C32.9723 46.1406 32.954 48.8439 34.0201 50.2319C34.5639 50.9394 35.3296 51.3012 36.2272 51.3012C36.7652 51.3012 37.3497 51.1716 37.9627 50.9086C40.6137 49.7734 43.3694 46.3566 42.949 43.6533C42.5817 41.2897 42.3385 39.7282 42.9117 38.4695C43.4416 37.3046 44.7226 36.2261 47.2454 34.8499C47.5475 36.2104 47.6999 37.6258 47.6841 39.0778C47.6303 44.0341 45.6491 48.6729 42.106 52.1391C38.1462 56.0129 32.5809 57.926 27.0756 57.3192C25.9539 57.1976 25.7602 58.9429 26.8833 59.0667C32.9093 59.7303 39.002 57.6356 43.335 53.3959C47.2143 49.6009 49.383 44.523 49.4419 39.0965C49.5203 31.9015 45.8285 25.5273 40.2087 21.8553C41.3699 21.0273 42.2349 20.3113 42.7146 19.8957C44.7636 21.3657 46.5811 23.1766 48.0932 25.2863C51.7231 30.3521 53.1627 36.5275 52.1475 42.6762C50.051 55.3687 38.0198 63.9904 25.3251 61.8931C19.1761 60.8776 13.7909 57.529 10.161 52.4632C6.53079 47.3978 5.09122 41.2216 6.10672 35.0733C6.28909 33.967 4.55582 33.6766 4.37271 34.7869C3.2803 41.3989 4.82901 48.0401 8.73172 53.4875C12.6352 58.9341 18.4268 62.5355 25.0387 63.6279C26.4216 63.856 27.8058 63.9688 29.1806 63.9688C34.3771 63.9688 39.4323 62.3553 43.74 59.2685C49.1882 55.3651 52.7899 49.5745 53.8815 42.9626C54.6817 38.1176 54.0624 33.2569 52.1391 28.8616C53.0268 28.5998 54.5374 28.0915 56.192 27.2653C59.6461 25.5405 62.0598 23.2377 63.1712 20.6072C64.2838 17.976 64.2526 14.6406 63.0815 10.9616V10.9616ZM12.0661 35.1301C12.7201 36.3701 13.3387 37.5419 13.9814 38.0795C14.4366 38.46 15.0701 38.6548 15.7406 38.861C17.4585 39.3891 17.6581 39.6484 17.4933 40.3277C17.2912 41.163 16.8034 42.1606 16.3321 43.1248C15.4242 44.9822 14.5669 46.7357 15.3796 48.0027C16.532 49.7986 16.7294 51.5667 16.7096 52.6664C11.4743 47.9456 9.34256 40.4892 11.2926 33.7121C11.5512 34.1552 11.8229 34.6701 12.0661 35.1301V35.1301ZM54.5923 17.857L52.0944 11.8035C53.3099 10.6668 54.7201 9.81133 55.9213 9.20891C56.9445 8.69548 57.9179 8.31169 58.6987 8.0396L54.5923 17.857ZM60.3192 8.72112C60.6682 9.47112 61.0728 10.4383 61.4185 11.5314C61.7975 12.7311 62.1454 14.2179 62.2147 15.7688L56.3608 18.184L60.3192 8.72112ZM49.81 14.961C50.0693 14.3479 50.4043 13.7796 50.7914 13.2548L53.6351 20.1451L51.0833 26.2469C50.7248 25.4863 50.3025 24.4872 49.9444 23.3523C49.2255 21.08 48.6191 17.779 49.81 14.961ZM55.4412 25.6749C54.4565 26.1692 53.5168 26.5435 52.7514 26.8134L55.3995 20.4827L62.14 17.7013C62.0422 18.4565 61.8558 19.205 61.5522 19.9228C60.3616 22.7408 57.5718 24.6066 55.4412 25.6749ZM23.7467 25.1746C23.4362 25.1138 23.1297 25.0395 22.8276 24.9549L32.5556 17.824L40.5657 19.3852C37.6478 21.6843 30.5466 26.5069 23.7467 25.1746V25.1746ZM14.8562 19.6752C12.7758 17.4329 11.2509 15.0353 10.3753 13.5002L20.5688 15.4876L14.8562 19.6752ZM16.6565 7.94805L20.9214 13.7653L10.662 11.7654C11.9536 10.7455 14.0857 9.2144 16.6565 7.94805ZM23.4644 14.2612L18.2939 7.2083C19.8418 6.57219 21.5033 6.07158 23.2066 5.84892L30.3594 15.6048L23.4644 14.2612ZM22.9173 15.9454L30.2074 17.3663L20.8511 24.2243C19.0867 23.4095 17.4988 22.238 16.1094 20.9357L22.9173 15.9454ZM46.7679 33.1097C43.599 34.7979 42.0474 36.124 41.3113 37.7415C40.5207 39.4785 40.8103 41.3428 41.2114 43.9232C41.4483 45.4448 39.6399 48.2781 37.2706 49.2929C36.3938 49.6683 35.7695 49.624 35.4139 49.1607C34.7155 48.2518 34.7345 45.5008 34.7496 43.2907C34.7704 40.2328 34.7887 37.5921 33.5271 36.4697C33.0734 36.0661 32.493 35.8954 31.8481 35.9745C31.2955 36.0434 30.7348 36.1327 30.1932 36.2192C26.9621 36.7341 24.9289 36.9402 23.8757 34.7748C22.1691 31.2676 25.6236 28.6697 27.188 27.7158C27.5066 27.5217 27.8022 27.2928 28.0768 27.0379C31.858 26.586 35.4307 24.9637 38.6145 22.9316C42.4319 25.2123 45.3624 28.8217 46.7679 33.1097V33.1097Z" fill="black"/>
</svg>
