<svg width="68" height="68" viewBox="0 0 68 68" fill="none" xmlns="http://www.w3.org/2000/svg">
<circle cx="34" cy="34" r="34" fill="#FFBD00"/>
<path d="M60.8935 32.9787H50.4041C50.3209 27.8808 49.6168 22.9544 48.3928 18.5864H55.2718C55.836 18.5864 56.2931 18.1292 56.2931 17.5651C56.2931 17.0009 55.836 16.5438 55.2718 16.5438H47.7672C46.6754 13.2532 45.2731 10.3452 43.6068 8.01192C43.2789 7.55289 42.6409 7.44641 42.1822 7.7743C41.7232 8.10207 41.6168 8.74002 41.9446 9.19892C43.3904 11.2235 44.6255 13.7196 45.6164 16.5438H35.0211V7.10639C35.0211 6.54224 34.564 6.08511 33.9999 6.08511C33.4357 6.08511 32.9786 6.54224 32.9786 7.10639V16.5438H22.3832C23.3741 13.7196 24.6091 11.2235 26.055 9.19892C26.3828 8.74002 26.2764 8.10207 25.8174 7.7743C25.3582 7.44654 24.7205 7.55303 24.3928 8.01192C22.7265 10.3452 21.3242 13.2534 20.2324 16.5438H12.7278C12.1636 16.5438 11.7065 17.0009 11.7065 17.5651C11.7065 18.1292 12.1636 18.5864 12.7278 18.5864H19.6068C18.3829 22.9544 17.6788 27.8808 17.5954 32.9787H7.10624C6.54208 32.9787 6.08496 33.4359 6.08496 34C6.08496 34.5642 6.54208 35.0213 7.10624 35.0213H17.5956C17.6788 40.1192 18.3829 45.0456 19.6069 49.4137H12.7278C12.1636 49.4137 11.7065 49.8708 11.7065 50.4349C11.7065 50.9991 12.1636 51.4562 12.7278 51.4562H20.2324C21.3243 54.7473 22.727 57.6559 24.3937 59.9895C24.5931 60.2685 24.9071 60.4173 25.2257 60.4173C25.4311 60.4173 25.6385 60.3555 25.8185 60.2271C26.2774 59.8992 26.3837 59.2613 26.056 58.8023C24.6097 56.7776 23.3744 54.2809 22.3832 51.4563H32.9786V60.8936C32.9786 61.4578 33.4357 61.9149 33.9999 61.9149C34.564 61.9149 35.0211 61.4578 35.0211 60.8936V51.4562H45.6165C44.6255 54.2809 43.39 56.7775 41.9438 58.8022C41.616 59.2612 41.7223 59.899 42.1812 60.2269C42.3611 60.3553 42.5685 60.4172 42.774 60.4172C43.0928 60.4172 43.4066 60.2683 43.606 59.9893C45.2727 57.6558 46.6753 54.7472 47.7673 51.4561H55.272C55.8361 51.4561 56.2932 50.9989 56.2932 50.4348C56.2932 49.8706 55.8361 49.4135 55.272 49.4135H48.3928C49.6168 45.0455 50.3209 40.1191 50.4041 35.0211H60.8935C61.4576 35.0211 61.9147 34.564 61.9147 33.9999C61.9147 33.4357 61.4576 32.9787 60.8935 32.9787V32.9787ZM46.2742 18.5864C47.5424 22.9006 48.2753 27.8402 48.3612 32.9787H35.0211V18.5864H46.2742ZM21.7255 18.5864H32.9786V32.9787H19.6385C19.7246 27.8401 20.4573 22.9006 21.7255 18.5864ZM21.7255 49.4137C20.4573 45.0994 19.7244 40.1598 19.6385 35.0213H32.9786V49.4137H21.7255V49.4137ZM46.2742 49.4137H35.0211V35.0213H48.3612C48.2751 40.1599 47.5424 45.0995 46.2742 49.4137Z" fill="black"/>
<path d="M56.6274 11.3726C50.5834 5.32854 42.5475 2 34 2C25.4525 2 17.4166 5.32854 11.3726 11.3726C5.32854 17.4166 2 25.4525 2 34.0001C2 40.3009 3.82346 46.3779 7.2785 51.6091L3.36797 63.3399C3.24569 63.7069 3.34114 64.1116 3.61471 64.3852C3.88827 64.6586 4.2927 64.7539 4.65995 64.6319L16.391 60.7216C21.6224 64.1765 27.6993 66 34 66C42.5475 66 50.5834 62.6715 56.6274 56.6274C62.6715 50.5834 66 42.5475 66 34.0001C66 25.4525 62.6715 17.4166 56.6274 11.3726ZM34 63.9574C27.9417 63.9574 22.1049 62.157 17.1202 58.751C16.9484 58.6336 16.7472 58.5729 16.5441 58.5729C16.4355 58.5729 16.3265 58.5902 16.2211 58.6253L5.95166 62.0482L9.37498 51.7791C9.47588 51.4761 9.42931 51.1434 9.24929 50.8798C5.843 45.8954 4.04255 40.0585 4.04255 34.0001C4.04255 17.4815 17.4813 4.04255 34 4.04255C50.5187 4.04255 63.9574 17.4815 63.9574 34.0001C63.9574 50.5187 50.5187 63.9574 34 63.9574Z" fill="black"/>
</svg>
