<svg width="68" height="68" viewBox="0 0 68 68" fill="none" xmlns="http://www.w3.org/2000/svg">
<circle cx="34" cy="34" r="34" fill="#FFBD00"/>
<g clip-path="url(#clip0_553:591)">
<path d="M34 2C16.3552 2 2 16.3552 2 34C2 51.6448 16.3552 66 34 66C51.6448 66 66 51.6448 66 34C66 16.3552 51.6448 2 34 2ZM34 63.8666C17.5317 63.8666 4.13337 50.4683 4.13337 34C4.13337 17.5317 17.5317 4.13337 34 4.13337C50.4683 4.13337 63.8666 17.5317 63.8666 34C63.8666 50.4683 50.4683 63.8666 34 63.8666Z" fill="black"/>
<path d="M63.6599 43.6194C58.7576 40.5528 55.3336 31.3335 55.3336 21.2001C55.3336 17.9394 55.6696 14.7777 56.3331 11.8039C56.4611 11.229 56.0984 10.6582 55.5234 10.5302C54.9463 10.4044 54.3778 10.7649 54.2498 11.3399C53.5533 14.4662 53.2002 17.7836 53.2002 21.2001C53.2002 32.2018 56.9496 41.9383 62.5293 45.4274C62.7053 45.5373 62.9006 45.5895 63.0936 45.5895C63.4488 45.5895 63.7964 45.4124 63.9992 45.0893C64.3105 44.59 64.1591 43.9308 63.6599 43.6194Z" fill="black"/>
<path d="M26.0555 3.22469C25.8369 3.13832 25.5969 3.12332 25.3696 3.18732C11.6106 7.03382 2 19.7047 2 34.0002C2 51.6449 16.3552 66.0002 34 66.0002C39.2629 66.0002 44.4854 64.6914 49.1029 62.2146C49.3834 62.0642 49.5817 61.7953 49.6447 61.4839L49.9871 59.7677L50.0095 59.6279C50.529 56.3639 51.0666 52.9901 51.0666 49.4668C51.0666 27.8284 41.0155 9.24494 26.0555 3.22469ZM47.903 59.2919L47.6524 60.5677C43.454 62.7277 38.7446 63.8669 34.0001 63.8669C17.5318 63.8668 4.13337 50.4684 4.13337 34.0002C4.13337 20.7788 12.9397 9.04657 25.5947 5.34094C39.5691 11.1842 48.9334 28.8546 48.9334 49.4668C48.9334 52.8216 48.4096 56.1112 47.903 59.2919Z" fill="black"/>
<path d="M26.8764 57.5245C24.87 56.8397 22.855 55.8317 20.7142 54.4397C20.2194 54.1186 19.559 54.2583 19.238 54.7522C18.917 55.2461 19.0566 55.9063 19.5505 56.2275C21.8417 57.7166 24.0124 58.8013 26.1884 59.5427C26.3025 59.5811 26.4188 59.6003 26.5329 59.6003C26.9766 59.6003 27.3915 59.3208 27.542 58.8792C27.7319 58.3213 27.4342 57.7143 26.8764 57.5245Z" fill="black"/>
<path d="M15.6322 50.3992C15.3826 50.0888 15.1096 49.7624 14.8269 49.4264C13.997 48.4377 13.0551 47.3177 12.5527 46.3192C12.2871 45.7933 11.6461 45.5799 11.1202 45.8467C10.5944 46.1123 10.3821 46.7533 10.6477 47.2792C11.2621 48.4994 12.2882 49.7208 13.1939 50.7992C13.4659 51.1224 13.7294 51.4359 13.9682 51.7336C14.1795 51.9971 14.4887 52.1336 14.8014 52.1336C15.035 52.1336 15.2707 52.0568 15.468 51.8989C15.9277 51.5298 16.0014 50.8588 15.6322 50.3992Z" fill="black"/>
<path d="M63.8663 24.8418C32.6397 24.5933 14.2226 35.0594 4.26632 43.9201C3.82682 44.3116 3.78745 44.9858 4.17882 45.4263C4.38895 45.663 4.68232 45.7836 4.97557 45.7836C5.22732 45.7836 5.4812 45.694 5.68382 45.5138C15.3596 36.9025 33.3191 26.7223 63.8459 26.9751C63.8502 26.9751 63.8534 26.9751 63.8566 26.9751C64.4411 26.9751 64.9179 26.5036 64.9232 25.918C64.9288 25.3293 64.4552 24.8471 63.8663 24.8418Z" fill="black"/>
<path d="M11.7079 12.6668C11.3826 12.6668 11.0594 12.6529 10.7362 12.6369C10.1442 12.6263 9.64818 13.0636 9.62043 13.6524C9.59168 14.2402 10.0461 14.7404 10.6348 14.7682C10.9911 14.7853 11.3484 14.8002 11.7079 14.8002C25.8242 14.8002 37.3079 28.4376 37.3079 45.2002C37.3079 52.6647 35.4957 59.2717 32.0674 64.3063C31.7357 64.7938 31.8616 65.4572 32.3491 65.7889C32.5326 65.9137 32.7416 65.9734 32.9486 65.9734C33.2899 65.9734 33.6248 65.8102 33.8318 65.5073C37.5012 60.1164 39.4414 53.0946 39.4414 45.2001C39.4413 27.2609 26.9997 12.6668 11.7079 12.6668Z" fill="black"/>
</g>
<defs>
<clipPath id="clip0_553:591">
<rect width="64" height="64" fill="white" transform="translate(2 2)"/>
</clipPath>
</defs>
</svg>
