<svg width="68" height="68" viewBox="0 0 68 68" fill="none" xmlns="http://www.w3.org/2000/svg">
<circle cx="34" cy="34" r="34" fill="#FFBD00"/>
<path d="M64.8948 63.553L49.8948 33.553C49.7248 33.214 49.3788 33 48.9998 33H39.1068L39.2328 32.455C43.2468 31.084 45.9998 27.279 45.9998 23C45.9998 17.486 41.5138 13 35.9998 13C30.4858 13 25.9998 17.486 25.9998 23C25.9998 27.279 28.7528 31.084 32.7668 32.455L32.8928 33H18.9998C18.6208 33 18.2748 33.214 18.1048 33.553L3.10477 63.553C2.94977 63.863 2.96577 64.231 3.14877 64.526C3.33177 64.82 3.65277 65 3.99977 65H63.9998C64.3468 65 64.6678 64.82 64.8508 64.526C65.0328 64.231 65.0498 63.863 64.8948 63.553V63.553ZM32.2928 58.707L36.5858 63H33.4138L25.7068 55.293C25.3158 54.902 24.6838 54.902 24.2928 55.293L16.5858 63H13.4138L22.7068 53.707C23.0978 53.316 23.0978 52.684 22.7068 52.293L14.8828 44.469L15.9398 42.354L20.2918 46.706C20.4878 46.902 20.7438 47 20.9998 47C21.2558 47 21.5118 46.902 21.7068 46.707L26.7068 41.707C26.8948 41.52 26.9998 41.265 26.9998 41V35H28.9998V42.586L23.2928 48.293C22.9018 48.684 22.9018 49.316 23.2928 49.707L29.2928 55.707C29.4878 55.902 29.7438 56 29.9998 56C30.2558 56 30.5118 55.902 30.7068 55.707L39.4138 47H54.3818L55.3818 49H40.9998C40.7338 49 40.4798 49.105 40.2928 49.293L32.2928 57.293C31.9018 57.684 31.9018 58.316 32.2928 58.707V58.707ZM30.5858 63H19.4138L24.9998 57.414L30.5858 63ZM27.9998 23C27.9998 18.589 31.5888 15 35.9998 15C40.4108 15 43.9998 18.589 43.9998 23C43.9998 26.585 41.5828 29.753 38.1228 30.705C37.7688 30.803 37.4968 31.086 37.4138 31.444L35.9998 37.561L34.5858 31.444C34.5028 31.086 34.2308 30.802 33.8768 30.705C30.4168 29.753 27.9998 26.585 27.9998 23V23ZM35.0248 42.225C35.1308 42.679 35.5338 43 35.9998 43C36.4658 43 36.8688 42.679 36.9748 42.225L38.6448 35H48.3818L53.3818 45H38.9998C38.7338 45 38.4798 45.105 38.2928 45.293L29.9998 53.586L25.4138 49L30.7068 43.707C30.8948 43.52 30.9998 43.265 30.9998 43V35H33.3548L35.0248 42.225ZM19.6178 35H24.9998V40.586L20.9998 44.586L16.8828 40.469L19.6178 35ZM13.9408 46.355L20.5858 53L10.5858 63H5.61777L13.9408 46.355ZM39.4138 63L34.4138 58L41.4138 51H56.3818L60.3818 59H55.5348L51.8318 53.445C51.6658 53.195 51.3958 53.034 51.0988 53.005C50.7968 52.974 50.5048 53.082 50.2928 53.293L48.3998 55.185L46.8678 52.503C46.5128 51.88 45.4868 51.88 45.1318 52.503L41.4198 59H38.9998V61H61.3818L62.3818 63H39.4138ZM48.2768 59H43.7228L45.9998 55.016L48.2768 59ZM50.5798 59L49.4288 56.985L50.8448 55.57L53.1318 59H50.5798Z" fill="black"/>
<path d="M40 23H42C42 19.691 39.309 17 36 17V19C38.206 19 40 20.794 40 23Z" fill="black"/>
<path d="M38.3984 26.2L39.5994 27.8C40.4294 27.176 41.0854 26.347 41.4984 25.4L39.6664 24.6C39.3924 25.231 38.9534 25.784 38.3984 26.2V26.2Z" fill="black"/>
<path d="M6 17C5.666 17 5.354 17.167 5.168 17.445L3.168 20.445C2.944 20.781 2.944 21.218 3.168 21.554L5.168 24.554C5.354 24.833 5.666 25 6 25H11V34C11 34.552 11.447 35 12 35H16C16.553 35 17 34.552 17 34V25H24C24.369 25 24.708 24.797 24.882 24.472C25.056 24.147 25.036 23.752 24.832 23.446L23.202 21L24.832 18.555C25.036 18.248 25.056 17.854 24.882 17.529C24.708 17.204 24.369 17 24 17H17V15H22C22.334 15 22.646 14.833 22.832 14.555L24.832 11.555C25.056 11.219 25.056 10.782 24.832 10.446L22.832 7.446C22.646 7.167 22.334 7 22 7H17V4C17 3.448 16.553 3 16 3H12C11.447 3 11 3.448 11 4V7H4C3.631 7 3.292 7.203 3.118 7.528C2.944 7.853 2.964 8.248 3.168 8.554L4.798 11L3.168 13.445C2.964 13.752 2.944 14.146 3.118 14.471C3.292 14.796 3.631 15 4 15H11V17H6ZM15 33H13V25H15V33ZM21.168 21.555L22.132 23H6.535L5.202 21L6.535 19H22.132L21.168 20.445C20.944 20.781 20.944 21.219 21.168 21.555ZM13 5H15V7H13V5ZM6.832 10.445L5.868 9H21.465L22.798 11L21.465 13H5.868L6.832 11.555C7.056 11.219 7.056 10.781 6.832 10.445V10.445ZM13 15H15V17H13V15Z" fill="black"/>
<path d="M7 20H9V22H7V20Z" fill="black"/>
<path d="M11 20H13V22H11V20Z" fill="black"/>
<path d="M19 10H21V12H19V10Z" fill="black"/>
<path d="M15 10H17V12H15V10Z" fill="black"/>
</svg>
