<svg width="68" height="68" viewBox="0 0 68 68" fill="none" xmlns="http://www.w3.org/2000/svg">
<circle cx="34" cy="34" r="34" fill="#FFBD00"/>
<g clip-path="url(#clip0_7701:5967)">
<path d="M45.8112 20.3343L45.1178 20.1605C41.772 19.3249 38.2625 20.6875 36.3573 23.562C36.0463 24.0623 36.1994 24.72 36.6997 25.0311C37.1794 25.3295 37.8085 25.202 38.1344 24.7407C39.5416 22.6215 42.1296 21.6162 44.5984 22.2298L45.2928 22.4036C45.8652 22.5427 46.442 22.1914 46.5812 21.619C46.7188 21.0523 46.3758 20.4801 45.8112 20.3343Z" fill="black"/>
<path d="M56.9631 32.6313C56.6933 32.5416 56.3991 32.5634 56.1453 32.6915H56.1485C51.2211 35.1544 45.4216 35.1544 40.4942 32.6915C39.9684 32.4258 39.3267 32.6366 39.061 33.1623C38.9327 33.4159 38.9111 33.7103 39.0008 33.98L40.0195 37.0477C41.5252 41.6321 46.4623 44.1278 51.0467 42.6221C53.6852 41.7554 55.7545 39.6861 56.6211 37.0477L57.6387 33.98C57.8245 33.4211 57.522 32.8173 56.9631 32.6313ZM54.5976 36.3769C53.4615 39.8432 49.7306 41.7321 46.2642 40.596C44.2664 39.9412 42.6998 38.3745 42.0451 36.3769L41.771 35.5503C46.0099 37.0436 50.6318 37.0436 54.8707 35.5503L54.5976 36.3769Z" fill="black"/>
<path d="M61.703 24.0014C61.6921 23.9838 61.6805 23.9665 61.6685 23.9494C59.7618 21.0779 56.2545 19.717 52.9101 20.551L52.2146 20.7259C51.6533 20.9049 51.3434 21.505 51.5224 22.0662C51.6857 22.5783 52.2045 22.8889 52.733 22.791L53.4296 22.6171C55.8977 22.0042 58.4848 23.0094 59.8914 25.1281C60.2025 25.6283 60.8604 25.7817 61.3605 25.4705C61.8608 25.1594 62.0141 24.5017 61.703 24.0014Z" fill="black"/>
<path d="M65.2713 10.6214C54.2672 6.96064 42.3736 6.96064 31.3695 10.6214C30.935 10.7672 30.6421 11.1742 30.6421 11.6326V19.5771C21.599 21.567 12.1856 21.0661 3.4048 18.1275C2.84613 17.9407 2.24173 18.2423 2.05507 18.801C2.01867 18.9099 2 19.0239 2 19.1387V34.7984C1.99987 43.4454 5.68199 51.6831 12.1248 57.4501C15.9565 60.8775 21.7062 61.0269 25.7109 57.8032L26.0373 57.5408C30.4422 54.0123 33.7638 49.314 35.6213 43.9846C37.0651 46.2018 38.7953 48.2188 40.7669 49.9835C44.5983 53.4107 50.3476 53.5601 54.3519 50.3365L54.6783 50.0741C61.8592 44.3216 66.0269 35.61 65.9999 26.4091V11.6326C65.9997 11.174 65.7063 10.7668 65.2713 10.6214ZM24.6997 55.88L24.3797 56.1424C21.1858 58.7135 16.5998 58.5929 13.5456 55.8576C7.55572 50.4961 4.13266 42.8374 4.13333 34.7984V20.599C12.7297 23.2169 21.8481 23.6205 30.6421 21.7723V27.3361C30.6421 27.9597 30.6617 28.5834 30.7007 29.207C30.7135 29.4139 30.7413 29.6187 30.7583 29.8257C30.7925 30.2395 30.8245 30.6545 30.8757 31.0673C30.9077 31.3179 30.9535 31.5654 30.9909 31.8139C31.0463 32.1809 31.0975 32.5488 31.1658 32.9136C31.2149 33.1782 31.2799 33.4406 31.3365 33.704C31.4111 34.0496 31.4805 34.3963 31.5669 34.7387C31.6362 35.0118 31.7194 35.2816 31.7951 35.5526C31.8879 35.8811 31.9765 36.2107 32.0799 36.536C32.1674 36.8112 32.2677 37.0822 32.3626 37.3542C32.4693 37.6742 32.5813 37.9888 32.7029 38.3024C32.8095 38.5755 32.9258 38.8432 33.0389 39.112C33.1679 39.4192 33.2938 39.7264 33.4325 40.0283C33.5562 40.2982 33.6917 40.5616 33.8239 40.8294C33.9381 41.0598 34.0373 41.2944 34.1621 41.5227C32.5931 47.1831 29.2826 52.2061 24.6997 55.88ZM63.8665 26.4091C63.8909 34.9636 60.0168 43.0632 53.3418 48.4134L53.0154 48.6757C49.8228 51.2436 45.2407 51.1231 42.1876 48.391C39.7893 46.2456 37.7774 43.7042 36.2399 40.8774C34.5435 37.7664 33.4437 34.3658 32.9973 30.8507C32.8497 29.6831 32.7757 28.5075 32.7754 27.3307V12.407C42.8924 9.20917 53.7495 9.20917 63.8665 12.407V26.4091Z" fill="black"/>
<path d="M14.8447 29.3679C14.3534 29.0422 13.691 29.1763 13.3653 29.6677L12.9023 30.3685C11.6667 32.2387 9.57486 33.3638 7.33327 33.3637C6.7442 33.3637 6.2666 33.8413 6.2666 34.4303C6.2666 35.0194 6.7442 35.497 7.33327 35.497C10.2901 35.4979 13.0498 34.0147 14.6804 31.5482L15.1444 30.8474C15.4702 30.3561 15.336 29.6937 14.8447 29.3679Z" fill="black"/>
<path d="M25.9507 45.0938H25.9454C21.8988 42.3684 16.6042 42.3684 12.5577 45.0938C10.8463 46.2438 10.3913 48.5634 11.5413 50.2747C12.2322 51.303 13.3882 51.9214 14.627 51.9258C15.2038 51.9255 15.7726 51.7903 16.2878 51.5311C18.1546 50.5999 20.3506 50.5999 22.2174 51.5311C24.0543 52.4598 26.2963 51.7236 27.225 49.8867C28.0791 48.1972 27.5311 46.1359 25.9507 45.0938ZM25.1987 49.0842C24.7563 49.75 23.8872 49.9819 23.172 49.625C20.7021 48.3914 17.7957 48.3914 15.3257 49.625C14.6106 49.9834 13.7405 49.7512 13.299 49.0842C12.809 48.35 13.0062 47.3578 13.7395 46.8666C17.0682 44.6252 21.4231 44.6252 24.7518 46.8666C25.4874 47.3556 25.6874 48.3483 25.1987 49.0842Z" fill="black"/>
<path d="M31.1875 38.9475L29.1043 34.0878L29.0937 34.0697C28.9449 33.6478 28.5469 33.3651 28.0995 33.3635C25.8582 33.3639 23.7665 32.2387 22.5315 30.3683L22.0665 29.6675C21.7407 29.1765 21.0786 29.0426 20.5875 29.3683C20.0965 29.6941 19.9626 30.3562 20.2883 30.8473L20.7534 31.5481C22.0946 33.569 24.211 34.9462 26.6019 35.3539L25.0606 38.9475C24.335 40.6394 25.1183 42.5992 26.8102 43.3248C28.5021 44.0504 30.4619 43.2671 31.1875 41.5752C31.5474 40.7363 31.5474 39.7864 31.1875 38.9475ZM29.1257 40.924C28.7301 41.477 27.9611 41.6044 27.4083 41.2088C27.2985 41.1302 27.2022 41.034 27.1235 40.924C26.8966 40.5895 26.8563 40.1622 27.0169 39.7912L28.1198 37.2174L29.2227 39.7912C29.3867 40.1606 29.3501 40.588 29.1257 40.924Z" fill="black"/>
</g>
<defs>
<clipPath id="clip0_7701:5967">
<rect width="64" height="64" fill="white" transform="translate(2 2)"/>
</clipPath>
</defs>
</svg>
