<svg width="68" height="68" viewBox="0 0 68 68" fill="none" xmlns="http://www.w3.org/2000/svg">
<circle cx="34" cy="34" r="34" fill="#FFBD00"/>
<path d="M58.62 52.51C58.1922 52.1859 57.6939 51.9671 57.1657 51.8716C56.6376 51.776 56.0943 51.8063 55.58 51.96L41.86 56H34.26L28.86 53H39C39.2652 53 39.5196 52.8946 39.7071 52.7071C39.8946 52.5196 40 52.2652 40 52V49C39.998 48.7349 39.8942 48.4807 39.71 48.29L37.71 46.29C37.5697 46.1525 37.3926 46.0587 37.2 46.02L22.2 43.02C22.1339 43.0084 22.0671 43.0017 22 43H16C15.8732 42.9981 15.7473 43.0219 15.63 43.07L12 44.52V43C12.0007 42.762 11.9165 42.5316 11.7625 42.3501C11.6085 42.1687 11.3949 42.0481 11.16 42.01L5.16 41.01C5.01641 40.9897 4.87016 40.9997 4.73066 41.0393C4.59115 41.0789 4.46149 41.1473 4.35 41.24C4.24079 41.3344 4.15306 41.451 4.09269 41.5821C4.03232 41.7132 4.00071 41.8557 4 42V62C4 62.2652 4.10536 62.5196 4.29289 62.7071C4.48043 62.8946 4.73478 63 5 63C5.05353 63.0017 5.10709 62.9983 5.16 62.99L11.16 61.99C11.3949 61.9519 11.6085 61.8313 11.7625 61.6499C11.9165 61.4684 12.0007 61.238 12 61V60H14.84L26.68 63.95C26.7839 63.9812 26.8915 63.9981 27 64H42C42.1127 64.0004 42.2246 63.9801 42.33 63.94L57.7 58.52C58.3723 58.2825 58.9544 57.8424 59.3663 57.2604C59.7782 56.6784 59.9996 55.983 60 55.27C60.0031 54.7339 59.8797 54.2046 59.6399 53.725C59.4002 53.2455 59.0507 52.8292 58.62 52.51V52.51ZM10 60.15L6 60.82V43.18L10 43.85V60.15ZM57.04 56.63L41.83 62H27.16L15.32 58.05C15.2161 58.0188 15.1085 58.0019 15 58H12V46.68L16.19 45H21.9L36.51 47.92L38 49.41V51H25C24.7794 51.0007 24.5653 51.0742 24.3909 51.2093C24.2165 51.3443 24.0916 51.5332 24.0357 51.7465C23.9798 51.9599 23.996 52.1857 24.0818 52.3889C24.1676 52.5921 24.3181 52.7613 24.51 52.87L33.51 57.87C33.6585 57.9571 33.8279 58.002 34 58H42C42.0949 58.0022 42.1895 57.9886 42.28 57.96L56.15 53.88C56.3647 53.8147 56.5919 53.8015 56.8128 53.8415C57.0336 53.8815 57.2418 53.9736 57.42 54.11C57.6294 54.2666 57.7925 54.477 57.8918 54.7189C57.9911 54.9608 58.0229 55.2251 57.9839 55.4837C57.945 55.7423 57.8366 55.9854 57.6704 56.1873C57.5041 56.3891 57.2863 56.5421 57.04 56.63V56.63Z" fill="black"/>
<path d="M34 42.0001C42.822 42.0001 50 32.5791 50 21.0001V9.00005C50 8.7798 49.9272 8.56572 49.7931 8.39104C49.6589 8.21637 49.4708 8.09088 49.258 8.03405L34.258 4.03405C34.089 3.98891 33.911 3.98891 33.742 4.03405L18.742 8.03405C18.5292 8.09088 18.3411 8.21637 18.2069 8.39104C18.0728 8.56572 18 8.7798 18 9.00005V21.0001C18 32.5791 25.178 42.0001 34 42.0001ZM20 9.76905L34 6.03505L48 9.76905V21.0001C48 31.4771 41.72 40.0001 34 40.0001C26.28 40.0001 20 31.4771 20 21.0001V9.76905Z" fill="black"/>
<path d="M30 27V30C30 30.5304 30.2107 31.0391 30.5858 31.4142C30.9609 31.7893 31.4696 32 32 32H36C36.5304 32 37.0391 31.7893 37.4142 31.4142C37.7893 31.0391 38 30.5304 38 30V27H41C41.5304 27 42.0391 26.7893 42.4142 26.4142C42.7893 26.0391 43 25.5304 43 25V21C43 20.4696 42.7893 19.9609 42.4142 19.5858C42.0391 19.2107 41.5304 19 41 19H38V16C38 15.4696 37.7893 14.9609 37.4142 14.5858C37.0391 14.2107 36.5304 14 36 14H32C31.4696 14 30.9609 14.2107 30.5858 14.5858C30.2107 14.9609 30 15.4696 30 16V19H27C26.4696 19 25.9609 19.2107 25.5858 19.5858C25.2107 19.9609 25 20.4696 25 21V25C25 25.5304 25.2107 26.0391 25.5858 26.4142C25.9609 26.7893 26.4696 27 27 27H30ZM27 21H30C30.5304 21 31.0391 20.7893 31.4142 20.4142C31.7893 20.0391 32 19.5304 32 19V16H36V19C36 19.5304 36.2107 20.0391 36.5858 20.4142C36.9609 20.7893 37.4696 21 38 21H41V25H38C37.4696 25 36.9609 25.2107 36.5858 25.5858C36.2107 25.9609 36 26.4696 36 27V30H32V27C32 26.4696 31.7893 25.9609 31.4142 25.5858C31.0391 25.2107 30.5304 25 30 25H27V21Z" fill="black"/>
<path d="M54 10H56V8H58V6H56V4H54V6H52V8H54V10Z" fill="black"/>
<path d="M64 12H62V10H60V12H58V14H60V16H62V14H64V12Z" fill="black"/>
<path d="M50 35V37H48V39H50V41H52V39H54V37H52V35H50Z" fill="black"/>
<path d="M58 29H56V31H54V33H56V35H58V33H60V31H58V29Z" fill="black"/>
<path d="M12 10H14V8H16V6H14V4H12V6H10V8H12V10Z" fill="black"/>
<path d="M6 16H8V14H10V12H8V10H6V12H4V14H6V16Z" fill="black"/>
<path d="M16 35V37H14V39H16V41H18V39H20V37H18V35H16Z" fill="black"/>
<path d="M12 35V33H14V31H12V29H10V31H8V33H10V35H12Z" fill="black"/>
</svg>
