<svg width="68" height="68" viewBox="0 0 68 68" fill="none" xmlns="http://www.w3.org/2000/svg">
<circle cx="34" cy="34" r="34" fill="#FFBD00"/>
<g clip-path="url(#clip0_7701:5554)">
<path d="M60.0503 55.4762L43.9839 22.4151C43.7972 22.0313 43.6992 21.6029 43.7004 21.1758L43.7305 11.1161C45.6488 11.1562 47.2394 9.6017 47.237 7.68195V5.43415C47.237 3.5405 45.6964 2 43.8028 2H24.3219C22.4283 2 20.8877 3.5405 20.8877 5.43415V7.68195C20.8861 9.59383 22.4619 11.1448 24.3729 11.1161L24.3385 21.1208C24.3369 21.541 24.2388 21.9626 24.0548 22.3408L22.4316 25.6802C22.2054 26.1455 22.3992 26.7059 22.8645 26.932C23.3195 27.1562 23.8894 26.969 24.1162 26.4991L25.7391 23.1602C26.0456 22.531 26.209 21.8283 26.2116 21.1277L26.2461 11.1161H29.3794C29.8968 11.1161 30.316 10.6968 30.316 10.1795C30.316 9.66227 29.8968 9.24293 29.3794 9.24293H24.3219C23.4611 9.24293 22.7609 8.54274 22.7609 7.68195V5.43415C22.7609 4.57336 23.4611 3.87317 24.3219 3.87317H43.8028C44.6636 3.87317 45.3638 4.57336 45.3638 5.43415V7.68195C45.3638 8.54274 44.6636 9.24293 43.8028 9.24293H33.9375C33.4201 9.24293 33.0009 9.66227 33.0009 10.1795C33.0009 10.6968 33.4201 11.1161 33.9375 11.1161H41.8574L41.8274 21.17C41.825 21.8815 41.9885 22.5955 42.2994 23.2345L58.3724 56.3088C59.2642 57.9733 59.2177 59.9397 58.2424 61.5576C57.2734 63.1664 55.5738 64.1268 53.6958 64.1268H14.3039C12.426 64.1268 10.7264 63.1664 9.75746 61.5576C8.78217 59.9397 8.73571 57.9735 9.62734 56.3088L22.1963 30.4491C22.4225 29.9838 22.2287 29.4235 21.7634 29.1973C21.2981 28.9712 20.7376 29.1651 20.5117 29.6303L7.94948 55.476C6.76938 57.7186 6.84493 60.3523 8.15291 62.5239C9.46375 64.7005 11.7633 66 14.304 66H53.6958C56.2367 66 58.5362 64.7005 59.847 62.5239C61.1549 60.352 61.2306 57.7186 60.0503 55.4762V55.4762Z" fill="black"/>
<path d="M24.3841 35.5877C23.2484 35.5283 22.2006 36.1488 21.7069 37.1652L11.8482 57.4537C11.3507 58.3531 11.3652 59.389 11.8976 60.269C12.4181 61.1335 13.2952 61.6294 14.3043 61.6294H53.6961C54.7053 61.6294 55.5825 61.1335 56.1029 60.2692C56.6355 59.3887 56.6499 58.3524 56.1523 57.454L45.1334 34.7795C44.6927 33.8727 43.7935 33.2687 42.7869 33.2037C42.2011 33.1657 41.6891 33.1412 41.2653 33.1312C40.7433 33.1176 40.3191 33.5284 40.3067 34.0454C40.2945 34.5625 40.7038 34.9916 41.2208 35.0039C41.619 35.0133 42.1051 35.0366 42.6656 35.073C43.0014 35.0947 43.3015 35.296 43.4484 35.5983L54.4742 58.2868C54.5775 58.5121 54.7904 58.761 54.4982 59.3031C54.2251 59.7564 53.8269 59.7564 53.6959 59.7564H14.3043C13.6124 59.8414 13.081 58.8237 13.5262 58.2869L23.3917 37.984C23.5561 37.6453 23.9106 37.4385 24.2881 37.4587C24.7816 37.484 25.3055 37.4969 25.8456 37.4969C29.75 37.4969 31.7308 36.8376 33.6465 36.2001C34.703 35.8486 35.7009 35.5164 37.0311 35.2881C37.5409 35.2007 37.8833 34.7166 37.7958 34.2067C37.7085 33.6969 37.225 33.3542 36.7143 33.4419C35.2444 33.6942 34.1314 34.0645 33.055 34.4227C31.1993 35.0403 29.4466 35.6236 25.8457 35.6236C25.3374 35.6234 24.8457 35.6113 24.3841 35.5877V35.5877Z" fill="black"/>
<path d="M28.7564 53.8023C28.2871 54.0198 28.083 54.5766 28.3008 55.0459C28.519 55.52 29.0861 55.7174 29.5445 55.5015C30.8857 54.8796 31.7523 53.5227 31.7523 52.0447C31.7523 49.9447 30.0436 48.236 27.9435 48.236C25.8435 48.236 24.1348 49.9447 24.1348 52.0447C24.1348 52.3843 24.1796 52.7211 24.268 53.046C24.4039 53.5451 24.9189 53.8395 25.4176 53.7037C25.9168 53.568 26.2111 53.0533 26.0754 52.5541C26.0307 52.3896 26.0079 52.2183 26.0079 52.0449C26.0079 50.9775 26.8762 50.1093 27.9435 50.1093C29.0109 50.1093 29.8792 50.9775 29.8792 52.0449C29.879 52.7963 29.4383 53.486 28.7564 53.8023V53.8023Z" fill="black"/>
<path d="M41.4928 51.358C43.352 51.358 44.8645 49.8455 44.8645 47.9863C44.8645 46.1271 43.352 44.6146 41.4928 44.6146C39.6336 44.6146 38.1211 46.1271 38.1211 47.9863C38.1211 49.8455 39.6336 51.358 41.4928 51.358ZM41.4928 46.4878C42.3191 46.4878 42.9913 47.16 42.9913 47.9863C42.9913 48.8126 42.3191 49.4849 41.4928 49.4849C40.6665 49.4849 39.9943 48.8126 39.9943 47.9863C39.9943 47.16 40.6665 46.4878 41.4928 46.4878Z" fill="black"/>
<path d="M27.6309 28.0059C27.6309 30.0028 29.2555 31.6273 31.2523 31.6273C33.2491 31.6273 34.8738 30.0028 34.8738 28.0059C34.8738 26.009 33.2491 24.3844 31.2523 24.3844C29.2555 24.3844 27.6309 26.009 27.6309 28.0059ZM33.0006 28.0059C33.0006 28.9699 32.2164 29.7542 31.2523 29.7542C30.2883 29.7542 29.504 28.9699 29.504 28.0059C29.504 27.0418 30.2883 26.2576 31.2523 26.2576C32.2164 26.2576 33.0006 27.0418 33.0006 28.0059Z" fill="black"/>
<path d="M35.6239 13.8946C33.9025 13.8946 32.502 15.2951 32.502 17.0165C32.502 18.738 33.9025 20.1385 35.6239 20.1385C37.3453 20.1385 38.7458 18.738 38.7458 17.0165C38.7458 15.2951 37.3453 13.8946 35.6239 13.8946ZM35.6239 18.2653C34.9353 18.2653 34.3751 17.7051 34.3751 17.0165C34.3751 16.328 34.9353 15.7678 35.6239 15.7678C36.3125 15.7678 36.8727 16.328 36.8727 17.0165C36.8727 17.7051 36.3125 18.2653 35.6239 18.2653Z" fill="black"/>
<path d="M35.873 42.4917C35.873 40.8392 34.5285 39.4947 32.876 39.4947C31.2235 39.4947 29.8789 40.8392 29.8789 42.4917C29.8789 44.1442 31.2235 45.4888 32.876 45.4888C34.5285 45.4888 35.873 44.1442 35.873 42.4917ZM31.7521 42.4917C31.7521 41.872 32.2562 41.3678 32.876 41.3678C33.4957 41.3678 33.9999 41.872 33.9999 42.4917C33.9999 43.1115 33.4957 43.6156 32.876 43.6156C32.2562 43.6156 31.7521 43.1115 31.7521 42.4917Z" fill="black"/>
</g>
<defs>
<clipPath id="clip0_7701:5554">
<rect width="64" height="64" fill="white" transform="translate(2 2)"/>
</clipPath>
</defs>
</svg>
