<svg width="68" height="68" viewBox="0 0 68 68" fill="none" xmlns="http://www.w3.org/2000/svg">
<circle cx="34" cy="34" r="34" fill="#FFBD00"/>
<g clip-path="url(#clip0_7701:5923)">
<path d="M53.657 37.7275H46.3177C53.1689 30.3355 53.5091 19.9981 53.3069 15.6751C53.272 14.9284 52.8099 14.2922 52.1011 14.0146C51.3809 13.7322 50.5626 13.8978 50.0164 14.4358L43.2356 21.113C42.8667 21.4763 42.8622 22.0697 43.2255 22.4387C43.5887 22.8075 44.1822 22.812 44.5512 22.4489L51.3319 15.7716C51.3434 15.7604 51.3537 15.7501 51.3796 15.7528C51.403 15.7533 51.4235 15.7619 51.4342 15.7689C51.6365 20.1068 51.2696 30.8414 43.6522 37.7275H38.8822C38.9645 37.5554 39.0436 37.382 39.1221 37.2084C40.9626 35.3506 44.4207 31.5485 46.7112 27.1249C46.9492 26.6651 46.7696 26.0994 46.3097 25.8614C45.8501 25.6233 45.2844 25.8027 45.0462 26.2629C43.8197 28.6316 42.2077 30.843 40.7219 32.638C41.2624 30.5003 41.5419 28.3072 41.5419 26.1144C41.5419 17.6016 37.4524 7.18512 35.6941 3.10175C35.4057 2.43238 34.7409 2 34 2C33.2591 2 32.5942 2.43237 32.306 3.10162C30.5477 7.185 26.4581 17.6018 26.4581 26.1143C26.4581 28.307 26.7377 30.5001 27.2781 32.6379C25.7924 30.8429 24.1804 28.6316 22.9537 26.2629C22.7156 25.803 22.1496 25.6235 21.6902 25.8614C21.2304 26.0994 21.0507 26.6652 21.2887 27.1249C23.5792 31.5485 27.0375 35.3506 28.8779 37.2084C28.9564 37.382 29.0355 37.5554 29.1177 37.7275H24.3476C16.7321 30.8431 16.3636 20.1123 16.5657 15.7688C16.5766 15.7618 16.597 15.7533 16.6202 15.7528C16.6439 15.7499 16.6565 15.7605 16.6679 15.7716L23.4585 22.4585C23.8272 22.8216 24.4209 22.8173 24.7842 22.4484C25.1475 22.0794 25.143 21.4859 24.7741 21.1226L17.9834 14.4358C17.4372 13.8979 16.6187 13.7324 15.8987 14.0146C15.1899 14.2922 14.7279 14.9285 14.693 15.675C14.4907 19.9981 14.831 30.3356 21.6821 37.7275H14.343C12.3477 37.7275 10.7246 39.3506 10.7246 41.3457C10.7246 43.341 12.3477 44.9641 14.343 44.9641H15.06L19.2569 62.9614C19.674 64.7505 21.2484 66 23.0855 66H44.9146C46.7516 66 48.3261 64.7505 48.7432 62.9614L52.9401 44.9641H53.6571C55.6524 44.9641 57.2755 43.341 57.2755 41.3457C57.2754 39.3507 55.6522 37.7275 53.657 37.7275V37.7275ZM34 3.90875C35.7272 7.93013 39.6667 17.9947 39.6667 26.1144C39.6667 31.077 38.1586 35.0985 36.7884 37.7276H34.9375V19.4985C34.9375 18.9806 34.5179 18.561 34 18.561C33.4821 18.561 33.0625 18.9806 33.0625 19.4985V37.7275H31.2116C29.8414 35.0983 28.3331 31.0768 28.3331 26.1143C28.3331 17.9951 32.2726 7.93 34 3.90875V3.90875ZM53.657 43.0892H24.3126C23.7947 43.0892 23.3751 43.5089 23.3751 44.0267C23.3751 44.5446 23.7947 44.9642 24.3126 44.9642H51.0149L46.9172 62.5356C46.699 63.4714 45.8755 64.125 44.9146 64.125H23.0855C22.1245 64.125 21.3011 63.4714 21.0829 62.5356L16.9852 44.9642H19.9302C20.4481 44.9642 20.8677 44.5446 20.8677 44.0267C20.8677 43.5089 20.4481 43.0892 19.9302 43.0892H14.343C13.3817 43.0892 12.5996 42.3071 12.5996 41.3459C12.5996 40.3846 13.3817 39.6026 14.343 39.6026H53.657C54.6182 39.6026 55.4004 40.3846 55.4004 41.3459C55.4004 42.3071 54.6182 43.0892 53.657 43.0892V43.0892Z" fill="black"/>
</g>
<defs>
<clipPath id="clip0_7701:5923">
<rect width="64" height="64" fill="white" transform="translate(2 2)"/>
</clipPath>
</defs>
</svg>
