<svg width="68" height="68" viewBox="0 0 68 68" fill="none" xmlns="http://www.w3.org/2000/svg">
<circle cx="34" cy="34" r="34" fill="#FFBD00"/>
<g clip-path="url(#clip0_7701:5920)">
<path d="M11.5999 12.0374C8.65594 12.0374 6.2666 14.0534 6.2666 16.5174C6.2666 18.9814 8.65594 20.9974 11.5999 20.9974C14.5439 20.9974 16.9333 18.992 16.9333 16.5174C16.9333 14.0427 14.5439 12.0374 11.5999 12.0374ZM11.5999 18.864C9.86127 18.864 8.39994 17.7974 8.39994 16.5174C8.39994 15.2374 9.86127 14.1707 11.5999 14.1707C13.3386 14.1707 14.7999 15.2374 14.7999 16.5174C14.7999 17.7974 13.3386 18.864 11.5999 18.864V18.864Z" fill="black"/>
<path d="M11.5999 31.0027C8.65594 31.0027 6.2666 33.008 6.2666 35.4827C6.2666 37.9573 8.65594 39.9627 11.5999 39.9627C14.5439 39.9627 16.9333 37.9467 16.9333 35.4827C16.9333 33.0187 14.5439 31.0027 11.5999 31.0027V31.0027ZM11.5999 37.8293C9.86127 37.8293 8.39994 36.7627 8.39994 35.4827C8.39994 34.2027 9.86127 33.136 11.5999 33.136C13.3386 33.136 14.7999 34.2027 14.7999 35.4827C14.7999 36.7627 13.3386 37.8293 11.5999 37.8293Z" fill="black"/>
<path d="M65.6907 11.376L57.1573 2.84266C56.9502 2.65203 56.6814 2.54224 56.4 2.53333H35.0667C33.2994 2.53333 31.8667 3.96601 31.8667 5.73333V14.1707L23.7173 20.9227L20.9227 18.5973C22.416 13.2 17.8187 7.86666 11.6 7.86666C6.26667 7.86666 2 11.7493 2 16.5173C2 22.8 9.2 27.0667 15.6213 24.3787L17.584 26L15.6213 27.6213C9.22133 24.9333 2 29.2 2 35.4827C2 40.2507 6.26667 44.1333 11.6 44.1333C17.84 44.1333 22.416 38.8 20.9227 33.4027L23.7173 31.088L31.8667 37.8187V46.2667C31.8667 48.034 33.2994 49.4667 35.0667 49.4667H62.8C64.5673 49.4667 66 48.034 66 46.2667V12.1333C65.9892 11.8523 65.8797 11.5842 65.6907 11.376ZM57.4667 6.17066L62.3627 11.0667H57.4667V6.17066ZM16.4747 22.3093C16.1494 22.0355 15.6926 21.981 15.312 22.1707C10.32 24.6453 4.13333 21.5093 4.13333 16.5173C4.13333 12.9227 7.48267 9.99999 11.6 9.99999C16.72 9.99999 20.2827 14.3947 18.6827 18.5333C18.5189 18.9621 18.6478 19.4476 19.0027 19.7387L22.0533 22.2667L19.2587 24.6133L16.4747 22.3093ZM18.6827 33.4667C20.2827 37.6587 16.7093 42 11.6 42C7.48267 42 4.13333 39.0773 4.13333 35.4827C4.13333 30.512 10.2987 27.344 15.312 29.8293C15.6926 30.019 16.1494 29.9645 16.4747 29.6907C35.568 13.8933 -5.68 48.1013 35.7813 13.6907C37.3078 12.4212 39.5671 12.5961 40.88 14.0853L19.0027 32.2187C18.6284 32.516 18.4977 33.0259 18.6827 33.4667ZM31.8667 27.664L29.8613 26L31.8667 24.336V27.664ZM25.392 29.7013L28.1867 27.3867L31.8667 30.4373V35.056L25.392 29.7013ZM62.8 47.3333H35.0667C34.4776 47.3333 34 46.8558 34 46.2667V22.5653L43.0667 15.0987C43.2848 14.9178 43.422 14.6576 43.448 14.3754C43.4741 14.0933 43.3867 13.8123 43.2053 13.5947L42.5973 12.8693C41.6207 11.6764 40.2073 10.9239 38.6723 10.7797C37.1374 10.6354 35.6085 11.1113 34.4267 12.1013L34 12.4533V5.73333C34 5.14422 34.4776 4.66666 35.0667 4.66666H55.3333V11.0667C55.3333 12.2449 56.2885 13.2 57.4667 13.2H63.8667V46.2667C63.8667 46.8558 63.3891 47.3333 62.8 47.3333Z" fill="black"/>
<path d="M43.2907 34.4266L48.9334 30.3307L54.5761 34.4266C54.9502 34.7002 55.4582 34.7008 55.833 34.4282C56.2078 34.1556 56.3637 33.6722 56.2188 33.232L54.0854 26.608L59.7174 22.5973C60.0942 22.3246 60.2509 21.8391 60.1045 21.3976C59.9582 20.9561 59.5425 20.6603 59.0774 20.6667H52.1334L50.0001 13.936C49.8562 13.4983 49.4475 13.2024 48.9867 13.2024C48.526 13.2024 48.1173 13.4983 47.9734 13.936L45.7334 20.6667H38.7894C38.3282 20.6696 37.9212 20.9686 37.7804 21.4078C37.6397 21.847 37.7972 22.3269 38.1707 22.5973L43.8027 26.608L41.6694 33.232C41.5359 33.6654 41.691 34.1358 42.056 34.4048C42.4211 34.6738 42.9164 34.6826 43.2907 34.4266V34.4266ZM42.1281 22.8H46.5334C47.0143 22.8235 47.4514 22.5219 47.6001 22.064L48.9761 17.7973L50.3521 22.064C50.5008 22.5219 50.9378 22.8235 51.4187 22.8H55.8241L52.2721 25.328C51.8947 25.598 51.7351 26.081 51.8774 26.5227L53.2641 30.7893L49.5627 28.1333C49.1879 27.8594 48.6789 27.8594 48.3041 28.1333L44.6667 30.768L46.0534 26.5013C46.202 26.0818 46.0744 25.614 45.7334 25.328L42.1281 22.8Z" fill="black"/>
<path d="M61.7333 51.6C10.5333 51.6 13.5413 51.4933 13.1147 51.8027L5.92533 56.9333H3.06667C2.47756 56.9333 2 57.4109 2 58C2 58.5891 2.47756 59.0667 3.06667 59.0667H5.92533L13.1147 64.1973C13.552 64.5173 10.6187 64.4 61.7333 64.4C64.0898 64.4 66 62.4898 66 60.1333V55.8667C66 53.5103 64.0898 51.6 61.7333 51.6ZM48.9333 56.9333H42.5333C41.9442 56.9333 41.4667 57.4109 41.4667 58C41.4667 58.5891 41.9442 59.0667 42.5333 59.0667H48.9333V62.2667H14.8V59.0667H21.2C21.7891 59.0667 22.2667 58.5891 22.2667 58C22.2667 57.4109 21.7891 56.9333 21.2 56.9333H14.8V53.7333H48.9333V56.9333ZM12.6667 54.736V61.264L8.10133 58L12.6667 54.736ZM51.0667 53.7333H54.2667V62.2667H51.0667V53.7333ZM63.8667 60.1333C63.8667 61.3116 62.9115 62.2667 61.7333 62.2667H56.4V53.7333H61.7333C62.9115 53.7333 63.8667 54.6885 63.8667 55.8667V60.1333Z" fill="black"/>
<path d="M25.4661 59.0666H38.2661C38.8552 59.0666 39.3327 58.5891 39.3327 58C39.3327 57.4109 38.8552 56.9333 38.2661 56.9333H25.4661C24.877 56.9333 24.3994 57.4109 24.3994 58C24.3994 58.5891 24.877 59.0666 25.4661 59.0666Z" fill="black"/>
<path d="M39.3338 43.0667H37.2005C36.6114 43.0667 36.1338 43.5442 36.1338 44.1333C36.1338 44.7224 36.6114 45.2 37.2005 45.2H39.3338C39.9229 45.2 40.4005 44.7224 40.4005 44.1333C40.4005 43.5442 39.9229 43.0667 39.3338 43.0667Z" fill="black"/>
<path d="M60.6665 43.0667H43.5999C43.0108 43.0667 42.5332 43.5442 42.5332 44.1333C42.5332 44.7224 43.0108 45.2 43.5999 45.2H60.6665C61.2556 45.2 61.7332 44.7224 61.7332 44.1333C61.7332 43.5442 61.2556 43.0667 60.6665 43.0667Z" fill="black"/>
</g>
<defs>
<clipPath id="clip0_7701:5920">
<rect width="64" height="64" fill="white" transform="translate(2 2)"/>
</clipPath>
</defs>
</svg>
