<svg width="68" height="68" viewBox="0 0 68 68" fill="none" xmlns="http://www.w3.org/2000/svg">
<circle cx="34" cy="34" r="34" fill="#FFBD00"/>
<g clip-path="url(#clip0_7701:5989)">
<path d="M41.751 28.4801C39.6492 28.4801 37.6079 28.8877 35.6839 29.6913C35.0469 29.9575 34.7462 30.6896 35.0122 31.3266C35.2784 31.9637 36.0105 32.2639 36.6475 31.9982C38.2647 31.3226 39.9817 30.9801 41.751 30.9801C49.0571 30.9801 55.001 36.9241 55.001 44.2301C55.001 51.5361 49.0571 57.4801 41.751 57.4801C34.4449 57.4801 28.501 51.5361 28.501 44.2301C28.501 42.4636 28.8425 40.7488 29.5161 39.1338C29.7819 38.4966 29.4807 37.7647 28.8436 37.499C28.2069 37.2336 27.4745 37.5343 27.2087 38.1715C26.4074 40.0931 26.001 42.1315 26.001 44.2301C26.001 52.9147 33.0664 59.9801 41.751 59.9801C50.4356 59.9801 57.501 52.9147 57.501 44.2301C57.501 35.5455 50.4356 28.4801 41.751 28.4801Z" fill="black"/>
<path d="M41.751 54.4801C47.4029 54.4801 52.001 49.882 52.001 44.2301C52.001 38.5782 47.4029 33.9801 41.751 33.9801C36.0991 33.9801 31.501 38.5782 31.501 44.2301C31.501 49.882 36.0992 54.4801 41.751 54.4801ZM41.751 36.4801C46.0244 36.4801 49.501 39.9568 49.501 44.2301C49.501 48.5033 46.0244 51.9801 41.751 51.9801C37.4776 51.9801 34.001 48.5035 34.001 44.2301C34.001 39.9567 37.4776 36.4801 41.751 36.4801Z" fill="black"/>
<path d="M59.6605 22.4801H55.858L51.4936 15.0943C51.2688 14.7136 50.8595 14.4801 50.4175 14.4801H33.0841C32.642 14.4801 32.2329 14.7136 32.008 15.0943L27.6436 22.4801H20.5V20.9801C20.5 18.4988 18.4814 16.4801 16 16.4801C13.5186 16.4801 11.5 18.4988 11.5 20.9801V22.4801H8.3395C4.84387 22.4801 2 25.324 2 28.8198V59.6405C2 63.1363 4.84387 65.9801 8.3395 65.9801H59.6604C63.156 65.9801 65.9999 63.1363 65.9999 59.6405V28.8198C66 25.324 63.156 22.4801 59.6605 22.4801ZM33.7974 16.9801H49.7041L52.9541 22.4801H30.5474L33.7974 16.9801ZM14 20.9801C14 19.8774 14.8973 18.9801 16 18.9801C17.1027 18.9801 18 19.8774 18 20.9801V22.4801H14V20.9801ZM63.5 59.6405C63.5 61.7578 61.7776 63.4801 59.6605 63.4801H8.3395C6.22237 63.4801 4.5 61.7576 4.5 59.6405V28.8198C4.5 26.7025 6.22237 24.9801 8.3395 24.9801H59.6604C61.7775 24.9801 63.4999 26.7025 63.4999 28.8198V59.6405H63.5Z" fill="black"/>
<path d="M41.751 41.7926C43.0951 41.7926 44.1885 42.8861 44.1885 44.2301C44.1885 44.9205 44.7481 45.4801 45.4385 45.4801C46.1289 45.4801 46.6885 44.9205 46.6885 44.2301C46.6885 41.5076 44.4735 39.2926 41.751 39.2926C41.0606 39.2926 40.501 39.8523 40.501 40.5426C40.501 41.2328 41.0606 41.7926 41.751 41.7926Z" fill="black"/>
<path d="M41.751 11.1915C42.4414 11.1915 43.001 10.6318 43.001 9.9415V3.26988C43.001 2.57963 42.4414 2.01988 41.751 2.01988C41.0606 2.01988 40.501 2.5795 40.501 3.26988V9.9415C40.501 10.6319 41.0606 11.1915 41.751 11.1915Z" fill="black"/>
<path d="M47.6992 11.1915C48.0191 11.1915 48.3391 11.0694 48.5831 10.8254L53.1694 6.239C53.6576 5.75087 53.6576 4.95937 53.1693 4.47112C52.6812 3.98312 51.8897 3.98312 51.4016 4.47112L46.8153 9.05762C46.3272 9.54575 46.3272 10.3372 46.8153 10.8255C47.0594 11.0695 47.3793 11.1915 47.6992 11.1915V11.1915Z" fill="black"/>
<path d="M34.9192 10.8255C35.1633 11.0695 35.4832 11.1917 35.8031 11.1917C36.123 11.1917 36.443 11.0695 36.687 10.8255C37.1751 10.3374 37.1752 9.5459 36.6871 9.05765L32.1007 4.47128C31.6126 3.9834 30.8211 3.98328 30.333 4.47128C29.8448 4.9594 29.8447 5.7509 30.3328 6.23915L34.9192 10.8255Z" fill="black"/>
<path d="M19.25 32.7301H12.75C12.0596 32.7301 11.5 33.2898 11.5 33.9801C11.5 34.6705 12.0596 35.2301 12.75 35.2301H19.25C19.9404 35.2301 20.5 34.6705 20.5 33.9801C20.5 33.2897 19.9404 32.7301 19.25 32.7301Z" fill="black"/>
<path d="M31.4951 35.23C31.8239 35.23 32.1464 35.0963 32.3789 34.8638C32.6114 34.6313 32.7451 34.3099 32.7451 33.98C32.7451 33.6513 32.6114 33.3288 32.3789 33.0963C32.1464 32.8639 31.8239 32.73 31.4951 32.73C31.1664 32.73 30.8439 32.8638 30.6114 33.0963C30.3776 33.3288 30.2451 33.6514 30.2451 33.98C30.2451 34.3088 30.3776 34.6313 30.6114 34.8638C30.8439 35.0963 31.1651 35.23 31.4951 35.23Z" fill="black"/>
</g>
<defs>
<clipPath id="clip0_7701:5989">
<rect width="64" height="64" fill="white" transform="translate(2 2)"/>
</clipPath>
</defs>
</svg>
