<svg width="68" height="68" viewBox="0 0 68 68" fill="none" xmlns="http://www.w3.org/2000/svg">
<circle cx="34" cy="34" r="34" fill="#FFBD00"/>
<path d="M66 46.4248C66 46.4231 65.9997 46.4215 65.9997 46.4199V11.2207C65.9997 8.42012 63.7214 6.14162 60.9206 6.14162H57.7166V5.00837C57.7166 3.3495 56.367 2 54.7082 2H48.4335C47.9156 2 47.496 2.41975 47.496 2.9375C47.496 3.45525 47.9156 3.875 48.4335 3.875H54.7082C55.3332 3.875 55.8416 4.38337 55.8416 5.00837V14.4253L12.1584 14.4355V5.00837C12.1584 4.38337 12.6668 3.875 13.2916 3.875H44.6833C45.2011 3.875 45.6208 3.45525 45.6208 2.9375C45.6208 2.41975 45.2011 2 44.6833 2H13.2916C11.6329 2 10.2834 3.3495 10.2834 5.00837V6.14162H7.07925C4.27862 6.14162 2.00013 8.42012 2.00013 11.2207V46.4224C2.00013 46.4232 2 46.424 2 46.4248C2 46.4256 2.00013 46.4264 2.00013 46.4271V48.496C2.00013 51.2966 4.27862 53.575 7.07925 53.575H11.2209C11.7386 53.575 12.1584 53.1553 12.1584 52.6375C12.1584 52.1198 11.7386 51.7 11.2209 51.7H7.07925C5.3125 51.7 3.87513 50.2626 3.87513 48.496V47.3623H64.1247V48.496C64.1247 50.2627 62.6874 51.7 60.9206 51.7H14.9709C14.4531 51.7 14.0334 52.1198 14.0334 52.6375C14.0334 53.1553 14.4531 53.575 14.9709 53.575H25.8146L25.8148 59.9835H20.5042C19.4359 59.9835 18.5667 60.8526 18.5667 61.921V64.0625C18.5667 65.1309 19.4359 66 20.5042 66H47.4959C48.5643 66 49.4334 65.1309 49.4334 64.0625V61.921C49.4334 60.8526 48.5643 59.9835 47.4959 59.9835H42.1855V53.575H60.9207C63.7214 53.575 65.9999 51.2965 65.9999 48.496V46.4295C65.9997 46.428 66 46.4264 66 46.4248V46.4248ZM47.5584 61.921V64.0625C47.5584 64.097 47.5303 64.125 47.4959 64.125H20.5042C20.4697 64.125 20.4417 64.097 20.4417 64.0625V61.921C20.4417 61.8865 20.4697 61.8585 20.5042 61.8585H47.4959C47.5303 61.8585 47.5584 61.8865 47.5584 61.921ZM35.1334 59.9835H32.8666V57.8141C32.8666 57.7601 32.9106 57.7163 32.9645 57.7163H35.0354C35.0894 57.7163 35.1333 57.7601 35.1333 57.8141V59.9835H35.1334ZM40.3104 59.9835H37.0084V57.8141C37.0084 56.7263 36.1234 55.8413 35.0355 55.8413H32.9646C31.8767 55.8413 30.9918 56.7263 30.9918 57.8141V59.9835H27.6898L27.6896 53.575H40.3105V59.9835H40.3104ZM59.9834 45.4873H57.7166V12.1585H58.85C59.4749 12.1585 59.9832 12.6669 59.9832 13.2917V45.4873H59.9834ZM55.8416 16.3003V45.4873H12.1584V16.3105L55.8416 16.3003ZM10.2834 45.4873H8.01662V13.2917C8.01662 12.6669 8.525 12.1585 9.14988 12.1585H10.2834V45.4873ZM3.87513 11.2207C3.87513 9.454 5.3125 8.01662 7.07925 8.01662H10.2834V10.2835H9.14988C7.49113 10.2835 6.14162 11.633 6.14162 13.2917V45.4873H3.87513V11.2207ZM61.8584 45.4873V13.2917C61.8584 11.633 60.5089 10.2835 58.8501 10.2835H57.7168V8.01662H60.9207C62.6875 8.01662 64.1249 9.454 64.1249 11.2207V45.4873H61.8584Z" fill="black"/>
<path d="M14.4248 9.14998C14.4248 10.8089 15.7743 12.1582 17.4331 12.1582C19.0918 12.1582 20.4414 10.8087 20.4414 9.14998C20.4414 7.4911 19.0919 6.1416 17.4331 6.1416C15.7742 6.1416 14.4248 7.49123 14.4248 9.14998ZM18.5666 9.14998C18.5666 9.77485 18.0582 10.2832 17.4332 10.2832C16.8083 10.2832 16.2999 9.77485 16.2999 9.14998C16.2999 8.52498 16.8083 8.0166 17.4332 8.0166C18.0581 8.0166 18.5666 8.5251 18.5666 9.14998Z" fill="black"/>
<path d="M22.708 9.14998C22.708 10.8089 24.0575 12.1582 25.7163 12.1582C27.375 12.1582 28.7246 10.8087 28.7246 9.14998C28.7246 7.4911 27.3751 6.1416 25.7163 6.1416C24.0575 6.1416 22.708 7.49123 22.708 9.14998ZM26.8496 9.14998C26.8496 9.77485 26.3413 10.2832 25.7163 10.2832C25.0914 10.2832 24.583 9.77485 24.583 9.14998C24.583 8.52498 25.0914 8.0166 25.7163 8.0166C26.3413 8.0166 26.8496 8.5251 26.8496 9.14998Z" fill="black"/>
<path d="M30.9922 9.14998C30.9922 10.8089 32.3417 12.1582 34.0004 12.1582C35.6592 12.1582 37.0087 10.8087 37.0087 9.14998C37.0087 7.4911 35.6592 6.1416 34.0004 6.1416C32.3416 6.1416 30.9922 7.49123 30.9922 9.14998V9.14998ZM35.1337 9.14998C35.1337 9.77485 34.6253 10.2832 34.0004 10.2832C33.3756 10.2832 32.8672 9.77485 32.8672 9.14998C32.8672 8.52498 33.3756 8.0166 34.0004 8.0166C34.6253 8.0166 35.1337 8.5251 35.1337 9.14998Z" fill="black"/>
<path d="M30.9785 39.9603C31.287 40.0631 31.6071 40.1152 31.93 40.1152C33.2266 40.1152 34.3733 39.2883 34.7836 38.0576L38.9253 25.6327C39.1795 24.8703 39.1215 24.0547 38.7621 23.336C38.4027 22.6173 37.785 22.0815 37.0227 21.8274C36.2603 21.5733 35.445 21.6313 34.7261 21.9907C34.0072 22.35 33.4715 22.9678 33.2175 23.7302L29.0758 36.1551C28.8217 36.9174 28.8797 37.7331 29.239 38.4518C29.5982 39.1704 30.216 39.7062 30.9785 39.9603ZM30.8545 36.7479L34.9961 24.3229C35.0918 24.0358 35.2936 23.803 35.5645 23.6677C35.7242 23.5878 35.8966 23.5474 36.0702 23.5474C36.1908 23.5474 36.312 23.5669 36.4296 23.6062C36.7168 23.7019 36.9495 23.9037 37.0848 24.1744C37.2203 24.4452 37.2421 24.7524 37.1463 25.0397L33.0046 37.4647C32.85 37.9284 32.4181 38.2402 31.9298 38.2402C31.8087 38.2402 31.688 38.2204 31.5711 38.1814C31.284 38.0857 31.0512 37.8839 30.9158 37.6132C30.7806 37.3424 30.7587 37.0352 30.8545 36.7479V36.7479Z" fill="black"/>
<path d="M15.3062 33.021L21.5188 39.2335C22.0871 39.8016 22.8424 40.1145 23.6459 40.1145C24.4494 40.1145 25.2048 39.8016 25.7731 39.2334C26.3413 38.6653 26.6542 37.9097 26.6542 37.1061C26.6542 36.3025 26.3413 35.547 25.7731 34.9789L21.7571 30.9629C21.7188 30.9246 21.7188 30.8625 21.7569 30.8244L25.7729 26.8084C26.3517 26.2296 26.6726 25.4284 26.6532 24.61C26.6337 23.7799 26.2839 23.0144 25.6684 22.4544C24.4793 21.3721 22.6381 21.4342 21.4771 22.5954L15.3059 28.7664C14.7377 29.3345 14.4248 30.09 14.4248 30.8936C14.4251 31.6974 14.7379 32.4529 15.3062 33.021V33.021ZM16.6321 30.0924L22.8032 23.9214C23.0406 23.684 23.3566 23.5631 23.6664 23.5631C23.9366 23.5631 24.2021 23.655 24.4068 23.8414C24.6394 24.053 24.7717 24.3417 24.7791 24.6544C24.7864 24.9672 24.6687 25.2615 24.4474 25.4827L20.4313 29.4989C19.6622 30.268 19.6622 31.5197 20.4313 32.2889L24.4473 36.305C24.6613 36.519 24.7792 36.8036 24.7792 37.1064C24.7792 37.4091 24.6613 37.6937 24.4473 37.9077C24.2332 38.1217 23.9486 38.2397 23.6459 38.2397C23.3432 38.2397 23.0586 38.1219 22.8446 37.9079L16.6321 31.6954C16.4181 31.4814 16.3001 31.1967 16.3001 30.8939C16.3001 30.591 16.4179 30.3064 16.6321 30.0924V30.0924Z" fill="black"/>
<path d="M46.2431 30.8383C46.2621 30.8573 46.2717 30.8805 46.2717 30.9074C46.2717 30.9343 46.2621 30.9575 46.243 30.9766L42.227 34.9928C41.6482 35.5715 41.3275 36.3729 41.3467 37.1913C41.3663 38.0213 41.7161 38.7868 42.3315 39.3466C42.8992 39.8633 43.6155 40.1191 44.3353 40.1191C45.1235 40.1191 45.9161 39.8125 46.5228 39.2056L52.6938 33.0346C53.2619 32.4665 53.575 31.711 53.575 30.9074C53.575 30.1039 53.2619 29.3484 52.6938 28.7801L46.4813 22.5676C45.9131 21.9995 45.1576 21.6865 44.3541 21.6865C43.5505 21.6865 42.795 21.9994 42.227 22.5676C41.6587 23.1358 41.3457 23.8913 41.3457 24.6949C41.3457 25.4984 41.6587 26.2539 42.2268 26.822L46.2431 30.8383ZM43.553 23.8935C43.767 23.6795 44.0515 23.5616 44.3542 23.5616C44.657 23.5616 44.9416 23.6795 45.1556 23.8936L51.368 30.1061C51.5821 30.3201 51.7 30.6048 51.7 30.9075C51.7 31.2103 51.5821 31.4949 51.368 31.7089L45.197 37.8799C44.7526 38.3241 44.0333 38.3601 43.5933 37.9599C43.3608 37.7483 43.2286 37.4596 43.2212 37.147C43.2137 36.834 43.3316 36.5399 43.5528 36.3186L47.5687 32.3026C47.9415 31.93 48.1467 31.4345 48.1467 30.9075C48.1467 30.3805 47.9414 29.885 47.5688 29.5125L43.5527 25.4964C43.3387 25.2824 43.2208 24.9978 43.2208 24.6951C43.221 24.3921 43.3388 24.1075 43.553 23.8935V23.8935Z" fill="black"/>
</svg>
