<svg width="68" height="68" viewBox="0 0 68 68" fill="none" xmlns="http://www.w3.org/2000/svg">
<circle cx="34" cy="34" r="34" fill="#FFBD00"/>
<g clip-path="url(#clip0_7701:5505)">
<path d="M51.4891 63.6015C51.4865 63.5959 51.4838 63.5902 51.4811 63.5846C50.7098 62.0054 49.623 60.6445 48.3117 59.567L51.4908 58.252C51.7212 58.1566 51.9043 57.9734 51.9995 57.7431C52.0947 57.5126 52.0941 57.2536 51.998 57.0236C51.1645 55.0275 49.6983 53.6814 47.6402 53.0226C47.4028 52.9464 47.1448 52.9681 46.9233 53.0826C46.7018 53.1971 46.5351 53.3951 46.4598 53.6327L45.1697 57.7071C44.2261 57.3289 43.2262 57.0674 42.1893 56.9365L37.5737 56.3539C36.7133 56.2454 36.0645 55.5095 36.0645 54.6421V54.1501C36.0645 53.2589 36.7333 52.5207 37.6203 52.433L42.9496 51.9067C44.8011 51.7239 46.1973 50.1829 46.1973 48.3224C46.1973 46.9966 45.4726 45.7817 44.3056 45.1524L36.6365 41.0151C36.6 36.2706 37.0103 31.4337 37.8576 26.6295C37.9476 26.1192 37.6068 25.6325 37.0966 25.5426C36.5865 25.4521 36.0996 25.7934 36.0096 26.3036C35.3307 30.1534 34.926 34.0244 34.8002 37.8555L25.4496 17.4661L40.2755 10.5832C39.15 13.6692 38.1878 16.7689 37.4098 19.8175C37.2817 20.3196 37.5848 20.8305 38.087 20.9586C38.5888 21.0862 39.1 20.7836 39.2281 20.2815C40.1093 16.8282 41.2322 13.3064 42.5653 9.81412C42.6672 9.54712 42.6418 9.24849 42.4967 9.00237C42.3515 8.75624 42.102 8.58999 41.819 8.55037C32.4006 7.23199 24.6737 5.11824 18.197 2.08849C17.9516 1.97337 17.6687 1.97049 17.421 2.07987C17.1731 2.18912 16.9846 2.40012 16.904 2.65862C14.7118 9.67599 11.2295 17.045 6.55345 24.5609C6.39845 24.8099 6.36895 25.1172 6.4737 25.3914C6.57845 25.6655 6.80533 25.8747 7.08708 25.9571C8.79645 26.4565 10.4688 27.012 12.1033 27.6229C11.9883 27.9769 11.907 28.3422 11.8606 28.7127C10.8853 29.3346 10.2658 30.398 10.2202 31.5741H8.8747C8.13608 31.5741 7.44208 31.8614 6.9202 32.3831C6.39858 32.9049 6.11133 33.5989 6.11133 34.3375C6.11133 35.8612 7.35108 37.1009 8.8747 37.1009H28.9963C29.063 37.1009 29.1281 37.0939 29.1907 37.0806C31.2423 38.6696 33.1938 40.3855 35.0418 42.2265C35.0605 42.245 35.0797 42.2626 35.0996 42.2794C35.1597 42.3374 35.2287 42.3884 35.306 42.43L43.4142 46.8042C43.9732 47.1059 44.3206 47.6877 44.3206 48.3229C44.3206 49.2141 43.6517 49.9522 42.7647 50.04L37.4355 50.5662C35.584 50.7491 34.1877 52.2901 34.1877 54.1506V54.6426C34.1877 56.4532 35.5423 57.9896 37.3385 58.2161L41.9541 58.7987C42.1778 58.827 42.3996 58.8625 42.619 58.905L40.5245 59.5681C40.2868 59.6434 40.0888 59.8104 39.9743 60.0317C39.8597 60.2531 39.8382 60.5111 39.9142 60.7485C40.573 62.8066 41.9191 64.2727 43.9152 65.1062C44.0308 65.1545 44.1537 65.1786 44.2767 65.1786C44.3985 65.1786 44.52 65.155 44.6347 65.1077C44.8652 65.0125 45.0485 64.8295 45.1437 64.5991L46.7461 60.7252C48.0182 61.6737 49.0681 62.9235 49.7908 64.4L50.281 65.4566C50.4398 65.7989 50.7787 66.0002 51.1327 66.0002C51.2648 66.0002 51.3992 65.9721 51.5268 65.913C51.9968 65.695 52.2012 65.1371 51.9831 64.667L51.4891 63.6015ZM37.5455 9.78187L24.6672 15.7607L19.6291 4.77512C24.81 6.94737 30.7193 8.59924 37.5455 9.78187ZM17.9225 5.55524L22.9652 16.551L9.92383 22.6054C13.3172 16.796 15.9982 11.0814 17.9225 5.55524ZM8.8747 35.2245V35.2244C8.3857 35.2244 7.98783 34.8265 7.98783 34.3375C7.98783 34.1001 8.07995 33.8771 8.2472 33.7099C8.41445 33.5426 8.63733 33.4505 8.87483 33.4505H11.2791C11.5785 33.4505 11.8598 33.3076 12.0366 33.0661C12.2132 32.8244 12.264 32.513 12.1732 32.2277C12.1205 32.0617 12.0936 31.889 12.0936 31.7144C12.0936 31.036 12.4968 30.427 13.1211 30.1626C13.4592 30.0194 13.6827 29.6921 13.6931 29.3252C13.703 28.974 13.757 28.633 13.8541 28.305C18.4457 30.1647 22.7241 32.4759 26.6658 35.2245H8.8747V35.2245ZM13.7577 26.2467C13.7113 26.2242 13.664 26.2059 13.616 26.1915C12.3252 25.6901 11.011 25.223 9.67383 24.7902L23.7473 18.2566L32.503 37.3484C26.9878 32.6812 20.7141 28.9659 13.7577 26.2467ZM43.7978 62.9436C43.0407 62.4711 42.465 61.8442 42.059 61.0504L44.961 60.1314L43.7978 62.9436ZM47.0233 58.0694L47.9422 55.1672C48.736 55.5731 49.3628 56.1491 49.8355 56.9062L47.0233 58.0694Z" fill="black"/>
<path d="M63.3322 20.9993C62.8586 20.5257 62.2427 20.2453 61.5806 20.1977C61.6144 19.978 61.6317 19.7554 61.6317 19.5324C61.6317 17.1285 59.6759 15.1728 57.2721 15.1728C57.1088 15.1728 56.9463 15.1818 56.7851 15.1997C55.7636 13.3588 53.8368 12.2068 51.6828 12.2068C48.6848 12.2068 46.2373 14.4154 45.8849 17.33C44.9104 17.952 44.2917 19.0149 44.2461 20.1904H42.9011C41.3774 20.1904 40.1377 21.43 40.1377 22.9538C40.1377 23.6924 40.4249 24.3864 40.9467 24.9083C41.4683 25.4299 42.1623 25.7172 42.9011 25.7172H61.3777C62.9013 25.7172 64.1411 24.4775 64.1411 22.9538C64.1412 22.2153 63.8539 21.5212 63.3322 20.9993ZM61.3778 23.841H42.9012C42.6638 23.841 42.4408 23.7489 42.2737 23.5818C42.1064 23.4144 42.0142 23.1917 42.0142 22.954C42.0142 22.4648 42.4121 22.0669 42.9011 22.0669H45.3054C45.6048 22.0669 45.8862 21.924 46.0629 21.6825C46.2396 21.4409 46.2903 21.1294 46.1996 20.8442C46.1468 20.6782 46.1198 20.5054 46.1198 20.3308C46.1198 19.6524 46.5232 19.0434 47.1473 18.779C47.4857 18.6357 47.7092 18.308 47.7193 17.9408C47.7786 15.7779 49.5196 14.0834 51.6827 14.0834C53.3283 14.0834 54.7786 15.0738 55.3773 16.6065C55.5564 17.0649 56.0593 17.3073 56.5293 17.1612C56.7682 17.0869 57.0181 17.0493 57.2721 17.0493C58.6412 17.0493 59.7552 18.1632 59.7552 19.5324C59.7552 19.9419 59.6589 20.3314 59.4692 20.6893C59.3151 20.98 59.3246 21.3304 59.4942 21.6125C59.6638 21.8945 59.9689 22.067 60.2981 22.067H61.3777C61.6151 22.067 61.8381 22.1592 62.0052 22.3263C62.1724 22.4937 62.2647 22.7164 62.2647 22.954C62.2648 23.443 61.8668 23.841 61.3778 23.841Z" fill="black"/>
<path d="M21.0702 54.2006C20.7379 53.8686 20.3219 53.6509 19.8701 53.5676C19.8777 53.4739 19.8816 53.3798 19.8816 53.2855C19.8816 51.3706 18.3242 49.8129 16.4102 49.8129C16.3337 49.8129 16.2576 49.8154 16.1818 49.8204C15.3653 48.4604 13.9016 47.6163 12.2708 47.6163C9.96369 47.6163 8.07306 49.2883 7.74969 51.5131C7.08006 51.9798 6.63681 52.7115 6.53844 53.5295H5.76581C4.50356 53.5295 3.47656 54.5564 3.47656 55.8188C3.47656 56.431 3.71456 57.006 4.14644 57.4376C4.57931 57.8709 5.15444 58.1093 5.76569 58.1093H19.4512C20.7134 58.1093 21.7404 57.0818 21.7404 55.8186C21.7403 55.2075 21.5024 54.6329 21.0702 54.2006ZM19.4512 56.233H5.76569C5.61731 56.233 5.51894 56.1569 5.47319 56.1109C5.42831 56.066 5.35281 55.9683 5.35281 55.8188C5.35281 55.5913 5.53794 55.406 5.76569 55.406H7.54706C7.84606 55.406 8.12706 55.2635 8.30381 55.0226C8.48056 54.7815 8.53181 54.4708 8.44194 54.1856C8.41019 54.085 8.39419 53.9809 8.39419 53.8761C8.39419 53.4721 8.63481 53.109 9.00731 52.9509C9.34519 52.8075 9.56831 52.48 9.57856 52.1131C9.61894 50.6438 10.8016 49.4929 12.2709 49.4929C13.3887 49.4929 14.3733 50.1659 14.7794 51.2073C14.9588 51.6673 15.4638 51.9095 15.9344 51.7615C16.0867 51.7138 16.2468 51.6895 16.4103 51.6895C17.2897 51.6895 18.0053 52.4055 18.0053 53.2858C18.0053 53.5496 17.9438 53.7991 17.8224 54.0274C17.6678 54.3181 17.6769 54.6688 17.8464 54.9511C18.0161 55.2335 18.3213 55.4063 18.6507 55.4063H19.4513C19.5997 55.4063 19.6981 55.4824 19.7436 55.5281C19.7886 55.573 19.8641 55.6709 19.8641 55.8191C19.8641 56.0473 19.6789 56.233 19.4512 56.233Z" fill="black"/>
<path d="M63.9116 45.5109C63.64 45.2409 63.3076 45.0544 62.9462 44.9646C62.948 44.9229 62.9488 44.8809 62.9488 44.8392C62.9488 43.1382 61.565 41.7543 59.864 41.7543C59.8256 41.7543 59.7872 41.7551 59.749 41.7564C59.0232 40.6046 57.7598 39.8931 56.3562 39.8931C54.3501 39.8931 52.703 41.3316 52.3941 43.2557C51.8552 43.6503 51.4887 44.2403 51.3757 44.9032H50.8446C49.6961 44.9032 48.7617 45.8382 48.7617 46.9873C48.7617 47.5436 48.9783 48.0667 49.3717 48.4599C49.7651 48.8533 50.2882 49.0701 50.8446 49.0701H62.441C63.5895 49.0701 64.5238 48.1357 64.5238 46.9873C64.5236 46.4299 64.307 45.9064 63.9116 45.5109ZM62.4408 47.1934H50.8445C50.7877 47.1934 50.7386 47.1732 50.6985 47.1331C50.6583 47.0931 50.6381 47.0438 50.6381 46.9872C50.6381 46.8727 50.7307 46.7796 50.8445 46.7796H52.3543C52.6536 46.7796 52.935 46.6367 53.1116 46.3953C53.2883 46.1538 53.3391 45.8424 53.2485 45.5573C53.2263 45.4873 53.215 45.4146 53.215 45.3411C53.215 45.0553 53.3846 44.7988 53.6473 44.6874C53.9857 44.5441 54.2091 44.2163 54.2192 43.8491C54.2508 42.6831 55.1896 41.7696 56.3562 41.7696C57.244 41.7696 58.0265 42.3038 58.3496 43.1306C58.5287 43.5889 59.0316 43.8304 59.5016 43.6851C59.6171 43.6492 59.739 43.6309 59.8638 43.6309C60.5302 43.6309 61.0722 44.1731 61.0722 44.8393C61.0722 45.0356 61.0241 45.2307 60.9327 45.4038C60.7793 45.6947 60.7895 46.0446 60.9593 46.3261C61.1292 46.6076 61.434 46.7797 61.7627 46.7797H62.4407C62.5111 46.7797 62.5601 46.8136 62.5867 46.8401C62.6143 46.8676 62.6471 46.9156 62.6471 46.9873C62.6472 47.1008 62.5546 47.1934 62.4408 47.1934Z" fill="black"/>
</g>
<defs>
<clipPath id="clip0_7701:5505">
<rect width="64" height="64" fill="white" transform="translate(2 2)"/>
</clipPath>
</defs>
</svg>
