<svg width="68" height="68" viewBox="0 0 68 68" fill="none" xmlns="http://www.w3.org/2000/svg">
<circle cx="34" cy="34" r="34" fill="#FFBD00"/>
<g clip-path="url(#clip0_1498:9)">
<path d="M18.7254 43.9809C17.116 43.9809 15.8066 45.2902 15.8066 46.8996C15.8066 48.509 17.116 49.8184 18.7254 49.8184C20.3348 49.8184 21.6441 48.509 21.6441 46.8996C21.6441 45.2902 20.3348 43.9809 18.7254 43.9809ZM18.7254 47.9432C18.1499 47.9432 17.6816 47.475 17.6816 46.8995C17.6816 46.324 18.1499 45.8557 18.7254 45.8557C19.3009 45.8557 19.7691 46.324 19.7691 46.8995C19.7691 47.475 19.3009 47.9432 18.7254 47.9432Z" fill="black"/>
<path d="M23.2895 10.2859C23.2895 7.76918 21.242 5.72168 18.7254 5.72168C16.2086 5.72168 14.1611 7.76918 14.1611 10.2859C14.1611 12.8026 16.2086 14.8501 18.7254 14.8501C21.242 14.8501 23.2895 12.8026 23.2895 10.2859ZM16.0361 10.2859C16.0361 8.80305 17.2425 7.59668 18.7254 7.59668C20.2081 7.59668 21.4145 8.80305 21.4145 10.2859C21.4145 11.7687 20.2081 12.9751 18.7254 12.9751C17.2425 12.9751 16.0361 11.7687 16.0361 10.2859Z" fill="black"/>
<path d="M37.7518 18.9737C36.1424 18.9737 34.833 20.2831 34.833 21.8924C34.833 23.5018 36.1424 24.8112 37.7518 24.8112C39.3611 24.8112 40.6705 23.5018 40.6705 21.8924C40.6705 20.2831 39.3611 18.9737 37.7518 18.9737ZM37.7518 22.9361C37.1763 22.9361 36.708 22.4678 36.708 21.8923C36.708 21.3168 37.1763 20.8486 37.7518 20.8486C38.3273 20.8486 38.7955 21.3168 38.7955 21.8923C38.7955 22.4678 38.3273 22.9361 37.7518 22.9361Z" fill="black"/>
<path d="M65.2542 38.6779L59.2182 32.6429V28.4204C60.3317 28.2469 61.1875 27.2843 61.1875 26.1229C61.1875 25.6051 60.7678 25.1854 60.25 25.1854C59.7323 25.1854 59.3125 25.6051 59.3125 26.1229C59.3125 26.3727 59.1093 26.576 58.8594 26.576H53.0335C52.7837 26.576 52.5804 26.3727 52.5804 26.1229V20.6506L54.8379 19.6055C55.5424 19.2792 56.3507 19.2792 57.0552 19.6055L58.1855 20.1289C58.8703 20.4459 59.3127 21.1381 59.3127 21.8926C59.3127 22.4104 59.7324 22.8301 60.2502 22.8301C60.7679 22.8301 61.1877 22.4104 61.1877 21.8926C61.1877 20.4104 60.3184 19.0501 58.9733 18.4272L57.8429 17.9039C56.6377 17.346 55.2554 17.346 54.0502 17.9039L51.4824 19.0926L43.1353 18.2377C41.9629 16.5164 39.9875 15.3836 37.7524 15.3836C34.5832 15.3836 31.9373 17.6609 31.3613 20.6646L23.9632 16.7008C25.5058 15.4389 26.5865 13.633 26.9099 11.5786L31.6445 14.8795C31.8079 14.9934 31.9948 15.048 32.1799 15.048C32.476 15.048 32.7675 14.908 32.9498 14.6466C33.2459 14.2219 33.1417 13.6375 32.7169 13.3414L26.9537 9.32338C26.4748 5.20663 22.9685 2 18.7254 2C14.1565 2 10.4395 5.717 10.4395 10.2859C10.4395 13.2405 11.9953 15.8372 14.3294 17.3045L12.6209 41.916C11.2673 43.3914 10.4394 45.3566 10.4394 47.512V53.9229C8.39804 53.8752 6.53204 55.1973 6.07229 57.2249C4.63454 57.1894 3.26154 57.7339 2.90867 59.2896L2.12079 62.762C1.75004 64.3965 3.03554 66 4.70654 66H25.7153C26.233 66 26.6528 65.5802 26.6528 65.0625C26.6528 64.5448 26.233 64.125 25.7153 64.125H4.70654C4.21729 64.125 3.84067 63.6561 3.94942 63.1769L4.73742 59.7045C4.81817 59.3485 5.12942 59.1 5.49454 59.1H31.9564C32.3214 59.1 32.6328 59.3486 32.7137 59.7046L33.5015 63.1769C33.6098 63.654 33.2359 64.1251 32.7444 64.1251H30.2573C29.7395 64.1251 29.3198 64.5449 29.3198 65.0626C29.3198 65.5804 29.7395 66.0001 30.2573 66.0001H32.7444C34.4157 66.0001 35.701 64.3973 35.33 62.762L34.5422 59.2896C34.1892 57.7339 32.8162 57.1894 31.3784 57.2249C30.9193 55.1996 29.0517 53.8717 27.0113 53.9229V47.512C27.0113 45.3568 26.1835 43.3915 24.83 41.9161L23.1993 18.4186L31.3032 22.7607C31.7292 25.9405 34.4579 28.4014 37.7524 28.4014C39.9875 28.4014 41.9628 27.2686 43.1353 25.5473L50.7054 24.7719V26.1229C50.7054 27.2841 51.561 28.2467 52.6743 28.4204V32.6429L46.6383 38.6779C45.7132 39.6027 45.7129 41.1575 46.6382 42.0826C47.9698 43.4143 49.5602 44.2774 51.2079 45.1391C53.2898 46.228 55.3403 43.4306 53.6693 41.7739L52.2607 40.3774L55.1835 37.4552C55.6045 37.0345 56.2893 37.0345 56.7102 37.4552L59.6592 40.4043L58.1645 42.0141C56.5649 43.7373 58.7328 46.4656 60.7764 45.2725C62.2922 44.3872 63.7983 43.5389 65.0529 42.2841C66.0737 41.3123 66.3175 39.741 65.2542 38.6779ZM12.3145 10.2859C12.3145 6.75088 15.1904 3.875 18.7254 3.875C22.2604 3.875 25.1363 6.75088 25.1363 10.2859C25.1363 13.8208 22.2604 16.6967 18.7254 16.6967C15.1904 16.6967 12.3145 13.8208 12.3145 10.2859ZM18.7254 18.5718C19.6248 18.5718 20.4903 18.4257 21.3018 18.1596L22.84 40.3246C21.6267 39.6272 20.2224 39.2262 18.7254 39.2262C17.2284 39.2262 15.8243 39.6272 14.6109 40.3246L16.1495 18.1599C16.9609 18.4259 17.8262 18.5718 18.7254 18.5718ZM29.4152 57.2249H8.03554C8.39917 56.3861 9.23529 55.7979 10.2062 55.7979H27.2445C28.2155 55.7979 29.0515 56.386 29.4152 57.2249ZM25.1362 53.9229H12.3145V47.512C12.3145 43.9771 15.1904 41.1011 18.7254 41.1011C22.2604 41.1011 25.1363 43.977 25.1363 47.512V53.9229H25.1362ZM37.7523 26.5263C35.1972 26.5263 33.1184 24.4475 33.1184 21.8924C33.1184 19.3374 35.1972 17.2586 37.7523 17.2586C40.3074 17.2586 42.3862 19.3374 42.3862 21.8924C42.386 24.4476 40.3074 26.5263 37.7523 26.5263ZM44.0409 23.5696C44.1838 23.0343 44.261 22.4722 44.261 21.8925C44.261 21.3127 44.1838 20.7508 44.0409 20.2154L50.7052 20.8979V22.8871L44.0409 23.5696ZM57.3432 28.451V32.0938H54.5492V28.451H57.3432ZM63.9285 40.7569C62.7212 41.978 61.2969 42.7972 59.8305 43.6536C59.5693 43.8068 59.388 43.452 59.5385 43.29L61.6478 41.0181C61.9908 40.6485 61.9802 40.0739 61.6237 39.7174L58.0359 36.1295C57.4599 35.5536 56.7034 35.2656 55.9468 35.2656C55.1904 35.2656 54.4338 35.5535 53.8579 36.1292L50.269 39.7173C49.9065 40.0798 49.9078 40.6851 50.2718 41.046L52.3492 43.1055C52.5084 43.2634 52.3369 43.614 52.0768 43.4777C50.5997 42.7052 49.1598 41.9527 47.9639 40.7569C47.7584 40.5514 47.7585 40.2093 47.9639 40.0039L54 33.9689H57.8924L63.9285 40.0039C64.1339 40.2093 64.1339 40.5514 63.9285 40.7569Z" fill="black"/>
</g>
<defs>
<clipPath id="clip0_1498:9">
<rect width="64" height="64" fill="white" transform="translate(2 2)"/>
</clipPath>
</defs>
</svg>
