<svg width="68" height="68" viewBox="0 0 68 68" fill="none" xmlns="http://www.w3.org/2000/svg">
<circle cx="34" cy="34" r="34" fill="#FFBD00"/>
<path d="M57.4229 31.1422H38.1807C37.6626 31.1422 37.2432 31.5621 37.2432 32.0797C37.2432 32.5977 37.6626 33.0172 38.1807 33.0172H57.4229C57.9409 33.0172 58.3604 32.5977 58.3604 32.0797C58.3604 31.5621 57.9404 31.1422 57.4229 31.1422Z" fill="black"/>
<path d="M57.4229 36.166H38.1807C37.6626 36.166 37.2432 36.5854 37.2432 37.1035C37.2432 37.6211 37.6626 38.041 38.1807 38.041H57.4229C57.9409 38.041 58.3604 37.6211 58.3604 37.1035C58.3604 36.5854 57.9404 36.166 57.4229 36.166Z" fill="black"/>
<path d="M57.4229 41.1895H38.1807C37.6626 41.1895 37.2432 41.6094 37.2432 42.127C37.2432 42.645 37.6626 43.0645 38.1807 43.0645H57.4229C57.9409 43.0645 58.3604 42.645 58.3604 42.127C58.3604 41.6094 57.9404 41.1895 57.4229 41.1895Z" fill="black"/>
<path d="M57.4229 46.2134H38.1807C37.6626 46.2134 37.2432 46.6333 37.2432 47.1509C37.2432 47.6685 37.6626 48.0884 38.1807 48.0884H57.4229C57.9409 48.0884 58.3604 47.6685 58.3604 47.1509C58.3604 46.6333 57.9404 46.2134 57.4229 46.2134Z" fill="black"/>
<path d="M13.8814 19.9908C15.088 19.8389 16.2882 19.7623 17.4493 19.7623C23.8692 19.7623 28.1192 21.9996 30.0811 23.3326C30.2423 23.4424 30.4258 23.4952 30.607 23.4952C30.9073 23.4952 31.2022 23.3511 31.3834 23.0845C31.6744 22.6563 31.5631 22.0733 31.1348 21.7818C28.9952 20.3277 24.3712 17.8873 17.4493 17.8873C16.2105 17.8873 14.9317 17.9693 13.648 18.1304C13.1343 18.1949 12.7701 18.6636 12.8345 19.1773C12.899 19.691 13.3663 20.0552 13.8814 19.9908Z" fill="black"/>
<path d="M13.8814 26.1392C15.088 25.9874 16.2882 25.9107 17.4493 25.9107C23.8692 25.9107 28.1192 28.1475 30.0811 29.481C30.2423 29.5909 30.4258 29.6431 30.607 29.6431C30.9073 29.6431 31.2022 29.4996 31.3834 29.233C31.6744 28.8043 31.5631 28.2213 31.1348 27.9302C28.9952 26.4756 24.3712 24.0357 17.4493 24.0357C16.2105 24.0357 14.9317 24.1172 13.648 24.2784C13.1343 24.3433 12.7701 24.8121 12.8345 25.3257C12.899 25.8394 13.3663 26.2037 13.8814 26.1392Z" fill="black"/>
<path d="M30.607 35.7915C30.9073 35.7915 31.2017 35.6479 31.3834 35.3809C31.6744 34.9526 31.5631 34.3696 31.1348 34.0786C28.9947 32.624 24.3712 30.1841 17.4493 30.1841C16.2105 30.1841 14.9312 30.2656 13.648 30.4268C13.1339 30.4912 12.7701 30.96 12.8345 31.4741C12.899 31.9878 13.3663 32.3516 13.8814 32.2871C15.088 32.1357 16.2882 32.0591 17.4493 32.0591C23.8692 32.0591 28.1192 34.2959 30.0811 35.6294C30.2423 35.7393 30.4254 35.7915 30.607 35.7915Z" fill="black"/>
<path d="M31.1342 40.2271C29.4154 39.0586 25.7167 37.0176 20.2572 36.4712C19.7411 36.419 19.2826 36.7954 19.2313 37.3106C19.1796 37.8257 19.5555 38.2852 20.0707 38.3369C25.1176 38.8418 28.5082 40.7095 30.0804 41.7778C30.2416 41.8877 30.4247 41.94 30.6063 41.94C30.9066 41.94 31.201 41.7964 31.3827 41.5293C31.6737 41.1011 31.5624 40.5181 31.1342 40.2271V40.2271Z" fill="black"/>
<path d="M15.7467 36.3823C15.0567 36.4219 14.3507 36.4868 13.648 36.5752C13.1339 36.6397 12.7701 37.1084 12.8345 37.6221C12.8941 38.0962 13.2979 38.4429 13.7633 38.4429C13.8023 38.4429 13.8419 38.4404 13.8814 38.4355C14.5426 38.3525 15.2066 38.2915 15.8551 38.2539C16.3721 38.2241 16.7667 37.7808 16.7369 37.2637C16.7071 36.7471 16.2633 36.3506 15.7467 36.3823Z" fill="black"/>
<path d="M57.0137 19.7202H38.5898C37.8472 19.7202 37.2432 20.3242 37.2432 21.0669V26.0454C37.2432 26.7876 37.8472 27.3916 38.5898 27.3916H41.1309C41.6489 27.3916 42.0684 26.9717 42.0684 26.4541C42.0684 25.9365 41.6489 25.5166 41.1309 25.5166H39.1182V21.5952H56.4854V25.5166H45.4932C44.9751 25.5166 44.5557 25.9365 44.5557 26.4541C44.5557 26.9717 44.9751 27.3916 45.4932 27.3916H57.0137C57.7563 27.3916 58.3604 26.7876 58.3604 26.0454V21.0669C58.3604 20.3242 57.7563 19.7202 57.0137 19.7202Z" fill="black"/>
<path d="M64.4794 19.0938H62.5399V15.6729C62.5399 14.6563 61.7128 13.8291 60.6962 13.8291H34.3486C33.6342 13.2364 31.6186 11.712 28.3935 10.4195C24.7207 8.9478 18.6987 7.50884 10.8701 9.01225C10.0381 9.17192 9.43407 9.90288 9.43407 10.75V13.8291H6.93407C6.12109 13.8291 5.45995 14.4908 5.45995 15.3033V19.0938H3.5205C2.68213 19.0938 2 19.7759 2 20.6143V57.0097C2 57.8481 2.68213 58.5307 3.5205 58.5307H28.4594C28.6235 58.5307 28.7797 58.6088 28.8774 58.7407C29.3276 59.3452 30.0458 59.7065 30.7997 59.7065H37.2001C37.9535 59.7065 38.6723 59.3452 39.1225 58.7407C39.2201 58.6093 39.3769 58.5307 39.5405 58.5307H64.4794C65.3177 58.5307 65.9999 57.8481 65.9999 57.0097V20.6143C65.9999 19.7759 65.3177 19.0938 64.4794 19.0938ZM34.9374 15.7041H60.6649V53.3877H34.9374V15.7041ZM11.3091 10.8374C18.6049 9.45512 24.1982 10.773 27.6103 12.1255C30.5117 13.2759 32.3745 14.6455 33.0624 15.2007V52.4311C30.5903 50.7524 25.271 47.9272 17.4677 47.9272C15.5615 47.9272 13.5058 48.0962 11.3091 48.4912V10.8374ZM7.33495 15.7041H9.43407V48.6196C9.43407 49.146 9.666 49.6416 10.0708 49.979C10.4746 50.3149 11.0014 50.4536 11.5176 50.3589C18.747 49.0327 24.2885 50.3598 27.664 51.707C29.0507 52.2607 30.1899 52.8559 31.0761 53.3872H7.33495V15.7041ZM64.1249 56.6557H39.5405C38.787 56.6557 38.0683 57.0166 37.6181 57.621C37.5204 57.7529 37.3637 57.8315 37.2001 57.8315H30.7997C30.6357 57.8315 30.4794 57.7529 30.3818 57.6215C29.9316 57.0166 29.2128 56.6557 28.4594 56.6557H3.875V20.9688H5.45995V53.7885C5.45995 54.601 6.12157 55.2627 6.93407 55.2627H60.6962C61.7128 55.2627 62.5399 54.4355 62.5399 53.4184V20.9688H64.1249V56.6557Z" fill="black"/>
</svg>
