<svg width="24" height="24" viewBox="0 0 24 24" fill="none" xmlns="http://www.w3.org/2000/svg">
<path d="M19.7812 15.4219C20.25 14.3281 20.4844 13.1875 20.4844 12C20.4844 10.8125 20.25 9.67188 19.7812 8.57812L17.0625 9.84375C17.3438 10.5312 17.4844 11.25 17.4844 12C17.4844 12.75 17.3438 13.4688 17.0625 14.1562L19.7812 15.4219ZM15.4219 4.21875C14.3281 3.75 13.1875 3.51562 12 3.51562C10.8125 3.51562 9.67188 3.75 8.57812 4.21875L9.84375 6.9375C10.5312 6.65625 11.25 6.51562 12 6.51562C12.75 6.51562 13.4844 6.65625 14.2031 6.9375L15.4219 4.21875ZM4.21875 8.57812C3.75 9.67188 3.51562 10.8125 3.51562 12C3.51562 13.1875 3.75 14.3281 4.21875 15.4219L6.9375 14.1562C6.65625 13.4688 6.51562 12.75 6.51562 12C6.51562 11.25 6.65625 10.5156 6.9375 9.79688L4.21875 8.57812ZM8.57812 19.7812C9.67188 20.25 10.8125 20.4844 12 20.4844C13.1875 20.4844 14.3281 20.25 15.4219 19.7812L14.2031 17.0625C13.4844 17.3438 12.75 17.4844 12 17.4844C11.25 17.4844 10.5312 17.3438 9.84375 17.0625L8.57812 19.7812ZM12 2.01562C13.3125 2.01562 14.5781 2.26562 15.7969 2.76562C17.0469 3.26563 18.1406 3.98438 19.0781 4.92188C20.0156 5.85938 20.7344 6.95312 21.2344 8.20312C21.7344 9.42188 21.9844 10.6875 21.9844 12C21.9844 13.3125 21.7344 14.5938 21.2344 15.8438C20.7344 17.0625 20.0156 18.1406 19.0781 19.0781C18.1406 20.0156 17.0469 20.7344 15.7969 21.2344C14.5781 21.7344 13.3125 21.9844 12 21.9844C10.6875 21.9844 9.40625 21.7344 8.15625 21.2344C6.9375 20.7344 5.85938 20.0156 4.92188 19.0781C3.98438 18.1406 3.26562 17.0625 2.76562 15.8438C2.26562 14.5938 2.01562 13.3125 2.01562 12C2.01562 10.6875 2.26562 9.42188 2.76562 8.20312C3.26562 6.95312 3.98438 5.85938 4.92188 4.92188C5.85938 3.98438 6.9375 3.26563 8.15625 2.76562C9.40625 2.26562 10.6875 2.01562 12 2.01562ZM12 8.01562C10.9062 8.01562 9.96875 8.40625 9.1875 9.1875C8.40625 9.96875 8.01562 10.9062 8.01562 12C8.01562 13.0938 8.40625 14.0312 9.1875 14.8125C9.96875 15.5938 10.9062 15.9844 12 15.9844C13.0938 15.9844 14.0312 15.5938 14.8125 14.8125C15.5938 14.0312 15.9844 13.0938 15.9844 12C15.9844 10.9062 15.5938 9.96875 14.8125 9.1875C14.0312 8.40625 13.0938 8.01562 12 8.01562Z" fill="white"/>
</svg>
